<?xml version="1.0" encoding="UTF-8" standalone="no"?>
<svg
   xmlns:dc="http://purl.org/dc/elements/1.1/"
   xmlns:cc="http://creativecommons.org/ns#"
   xmlns:rdf="http://www.w3.org/1999/02/22-rdf-syntax-ns#"
   xmlns:svg="http://www.w3.org/2000/svg"
   xmlns="http://www.w3.org/2000/svg"
   xmlns:xlink="http://www.w3.org/1999/xlink"
   xmlns:sodipodi="http://sodipodi.sourceforge.net/DTD/sodipodi-0.dtd"
   xmlns:inkscape="http://www.inkscape.org/namespaces/inkscape"
   version="1.1"
   id="Layer_1"
   x="0px"
   y="0px"
   width="263.79999"
   height="151.2"
   viewBox="-827 465.8 263.79999 151.2"
   xml:space="preserve"
   sodipodi:docname="base.svg"
   inkscape:version="1.0.2-2 (e86c870879, 2021-01-15)"><sodipodi:namedview
   pagecolor="#ffffff"
   bordercolor="#666666"
   borderopacity="1"
   objecttolerance="10"
   gridtolerance="10"
   guidetolerance="10"
   inkscape:pageopacity="0"
   inkscape:pageshadow="2"
   inkscape:window-width="1920"
   inkscape:window-height="1027"
   id="namedview17"
   showgrid="false"
   inkscape:zoom="2.8284271"
   inkscape:cx="82.890033"
   inkscape:cy="-7.4483911"
   inkscape:window-x="-8"
   inkscape:window-y="-8"
   inkscape:window-maximized="1"
   inkscape:current-layer="Layer_1" /><metadata
   id="metadata102"><rdf:RDF><cc:Work
       rdf:about=""><dc:format>image/svg+xml</dc:format><dc:type
         rdf:resource="http://purl.org/dc/dcmitype/StillImage" /><dc:title /></cc:Work></rdf:RDF></metadata><defs
   id="defs100" />
<style
   type="text/css"
   id="style75">
	.st0{fill:none;}
	.st1{fill:#4C4C4C;}
	.st2{fill:#EDEDED;}
	.st3{fill:#F7F7F7;}
	.st4{opacity:0.12;}
	.st5{fill:url(#SVGID_1_);}
</style>
<pattern
   x="-827"
   y="617"
   width="71"
   height="71"
   patternUnits="userSpaceOnUse"
   id="New_Pattern_Swatch_5"
   viewBox="0 -71 71 71"
   style="overflow:visible">
	<g
   id="g81">
		<polygon
   class="st0"
   points="0,-71 71,-71 71,0 0,0   "
   id="polygon77" />
		<path
   class="st1"
   d="M41.8-35.5c0,3.5-2.8,6.3-6.3,6.3c-3.5,0-6.3-2.8-6.3-6.3s2.8-6.3,6.3-6.3C39-41.8,41.8-39,41.8-35.5z"
   id="path79" />
	</g>
</pattern>
<g
   id="g95"
   transform="translate(-0.1)">
	<path
   class="st2"
   d="m -563.2,471.4 c -0.4,-3.2 -3.3,-5.6 -6.5,-5.6 v 0 H -695 v 0 h -125.3 v 0 c -3.2,0 -6.1,2.3 -6.5,5.6 -0.1,0.7 -0.1,1.4 -0.1,2.1 v 127.4 c 0,8.9 7.2,16.1 16.1,16.1 H -695 v 0 h 115.8 c 8.9,0 16.1,-7.2 16.1,-16.1 V 473.5 c 0,-0.8 0,-1.5 -0.1,-2.1 z"
   id="path84" />
	<g
   id="g93">
		<path
   class="st3"
   d="m -567.6,467.7 c 0,-1 -0.8,-1.9 -1.9,-1.9 H -695 v 0 h -125.6 c -1,0 -1.9,0.8 -1.9,1.9 v 6 123.2 c 0,8.6 7,15.6 15.6,15.6 H -695 v 0 h 111.9 c 8.6,0 15.6,-7 15.6,-15.6 V 473.7 Z"
   id="path86" />
		<g
   class="st4"
   id="g91">
			
				<pattern
   id="SVGID_1_"
   xlink:href="#New_Pattern_Swatch_5"
   patternTransform="matrix(0.1017 0 0 0.1017 -7106.0005 -7406.6733)"
   class="st4">
			</pattern>
			<path
   class="st5"
   d="m -822.5,596.9 c 0,8.6 7,15.6 15.6,15.6 H -695 v 0 h 111.9 c 8.6,0 15.6,-7 15.6,-15.6 V 490.3 h -254.9 v 106.6 z"
   id="path89" />
		</g>
	</g>
</g>
<rect
   style="fill:#f7f7f7;fill-opacity:1;stroke-width:0.998504"
   id="rect842"
   width="263.77725"
   height="151.18152"
   x="-826.98981"
   y="465.81009" /></svg>
