<svg width="212.25mm" height="150.2mm" version="1.1" viewBox="0 0 802.22 567.69" xmlns="http://www.w3.org/2000/svg">
 <defs>
  <clipPath id="clipPath182">
   <rect x="752.1" y="26.928" width="252.45" height="163.67" style="stroke-width:1.0124"/>
  </clipPath>
 </defs>
 <g transform="translate(-474.42 76.614)" clip-path="url(#clipPath182)" style="fill:#212121;stroke-width:1.3334">
  <path d="m847.95 158.89v-29.394l-4.3334 0.76379c-2.3834 0.42009-12.487 1.8344-22.452 3.143l-18.119 2.3792 31.523-38.662c17.338-21.264 32.178-38.881 32.98-39.148 0.80114-0.26705 13.329 14.094 27.84 31.913 14.511 17.819 28.96 35.447 32.109 39.173l5.7251 6.7739-18.302-2.4038c-10.066-1.3221-20.252-2.7475-22.636-3.1676l-4.3334-0.76379v58.789h-40.001zm38.667-1.1942c0-15.357 0.48278-28.22 1.0729-28.585 0.59006-0.36468 9.7217 0.5061 20.293 1.9351 10.571 1.429 19.637 2.442 20.146 2.2511 1.229-0.46035-58.557-73.682-60.162-73.682-2.0127 0-61.263 73.3-59.565 73.689 0.85082 0.19498 9.9225-0.81296 20.159-2.2399 10.237-1.4269 19.087-2.3011 19.667-1.9425s1.0548 13.217 1.0548 28.574v27.922h37.334z"/>
 </g>
</svg>
