<svg width="284.5mm" height="418.7mm" version="1.1" viewBox="0 0 1075.3 1582.5" xmlns="http://www.w3.org/2000/svg">
 <g transform="matrix(.10023 0 0 -.10005 -2.2056 1586.7)">
  <path d="m2415 15850c-256-7-369-20-452-52-120-44-302-192-405-328-94-124-119-189-257-693-301-1092-987-3795-1177-4637-45-201-54-325-29-420 49-191 196-346 365-387 109-26 617-35 1710-30 676 3 1116 9 1205 17 186 15 312 41 399 83 95 46 240 151 276 201 97 131 113 314 130 1451 16 1144 26 1430 55 1567 32 153 186 357 344 452 124 76 272 116 532 146 95 11 175 22 178 26 9 9 23 1542 17 1834-7 325-12 357-81 496-97 198-158 233-455 265-124 13-1985 21-2355 9zm2212-230c117-5 231-14 255-20 93-25 150-122 178-303 19-123 30-553 30-1199v-638l-22-5c-13-2-68-10-123-16-283-32-516-144-692-332-110-119-218-297-242-402-29-128-36-329-61-1850-13-776-26-947-81-1074-40-93-127-148-321-201-147-40-242-43-1663-47l-1371-4-80 83c-89 93-126 157-132 232-8 101 69 418 593 2431 694 2668 697 2683 761 2878 59 177 132 265 328 396l99 66 601 5c1091 10 1728 10 1943 0z"/>
  <path d="m6095 15850c-237-8-292-16-368-58-102-55-221-216-261-352-32-107-38-374-28-1303 5-488 11-889 13-891 2-3 85-14 184-25 344-39 514-109 685-281 104-105 176-234 200-360 21-113 32-494 40-1500 5-613 14-1091 20-1140 32-263 147-418 401-540 113-54 186-67 434-80 328-16 2094-24 2480-11 346 12 400 18 474 53 73 34 209 178 255 270 37 74 39 80 38 175-2 273-115 744-908 3793-281 1080-332 1272-390 1457-121 393-211 520-490 695l-139 87-780 5c-429 4-973 8-1210 10-236 1-529 0-650-4zm2345-230c161-12 216-27 335-88 166-86 247-199 338-472 61-183 94-303 412-1530 152-586 343-1321 425-1635 445-1706 512-2005 480-2126-10-35-33-65-108-141l-96-98h-1105c-1708 0-1930 13-2116 125-149 90-183 169-205 485-6 85-15 628-20 1205-5 608-14 1090-20 1145-23 204-52 317-106 415-36 64-147 189-239 268-198 171-409 260-653 274l-115 6 6 811c3 446 11 862 16 923 21 225 54 323 128 379 50 38 83 44 313 54 265 11 2178 11 2330 0z"/>
  <path d="m5121 12919c-246-30-364-105-549-350l-73-97-7-913c-9-1155-3-1657 21-1717 31-80 110-187 211-287 178-176 223-189 656-189 333 0 406 9 511 65 125 67 331 295 358 397 28 101 36 384 35 1222 0 1099-14 1386-72 1493-41 76-182 219-282 286-140 93-142 94-460 97-151 1-309-2-349-7zm542-233c113-31 252-115 296-180 39-56 60-122 79-251 15-97 17-232 16-1110 0-883-2-1013-16-1110-31-204-65-272-171-343-132-89-295-120-565-108-266 12-309 30-468 189l-112 112-7 1010c-8 1031-5 1318 16 1415 36 175 197 332 381 375 98 22 121 23 313 20 125-2 198-8 238-19z"/>
  <path d="m370 9100c-176-131-248-220-271-337-30-151-7-503 39-601 31-67 99-82 372-82 102 0 252-5 334-10 181-11 223-28 314-124 102-110 37 185 601-2726 267-1381 351-1823 351-1856 0-34-45-91-91-115-53-27-185-39-429-39-226 0-366-12-411-36-45-23-50-49-33-161 61-407 417-2160 490-2410 50-171 359-479 515-512 155-33 387-36 3319-36 3064 0 3101 1 3226 44 77 27 157 84 262 185 97 93 174 190 211 264 55 108 122 437 776 3767 686 3500 795 4085 795 4285 0 159-49 288-147 392-76 79-137 116-220 133-162 34-532 37-5248 41l-4660 4zm10034-253c66-81 103-152 112-218 8-57-46-361-287-1614-168-876-1059-5421-1130-5765-126-610-205-778-416-888-91-47-146-59-319-73-195-16-3893-23-4959-10-490 6-953 16-1030 21-187 14-214 27-360 174-171 173-163 153-261 644-314 1572-356 1795-340 1810 12 12 60 17 233 23 351 13 444 39 564 159 101 101 138 206 119 337-37 258-141 819-376 2028-410 2110-473 2399-566 2577-37 69-50 82-162 152-136 86-144 87-506 95-348 8-368 12-388 71-6 16-16 66-23 109-21 147 11 251 116 375l56 66h4932l4932-1z"/>
  <path d="m222 7989c-63-11-98-27-136-65-56-57-61-76-60-234 2-163 25-314 154-985 121-630 161-790 215-861 45-59 108-113 165-142l55-27 306-3c435-5 526 14 572 117 26 59 27 199 3 361-53 353-227 1257-281 1465-39 151-68 206-142 275-76 71-100 85-178 99-70 13-595 13-673 0zm670-232c46-20 62-50 93-179 83-352 254-1294 289-1596 6-49 5-53-19-62-91-35-559-39-623-6-45 23-63 67-106 261-107 489-289 1536-271 1565 24 38 554 52 637 17z"/>
  <path d="m723 5610c-121-9-181-33-223-92-81-112-65-271 120-1233 86-448 135-663 171-760 17-46 37-74 87-123 36-35 83-72 104-83 54-28 169-39 404-39 371 0 490 25 536 112 51 97 23 349-127 1133-111 577-161 789-209 884-30 58-124 147-185 174-76 33-401 46-678 27zm614-242c38-21 52-56 92-228 82-348 281-1464 281-1577 0-17-9-25-37-34-44-13-489-25-560-14-56 8-96 45-112 101-66 236-292 1456-308 1665-6 74-5 77 18 84 54 18 146 23 364 22 197-2 235-4 262-19z"/>
 </g>
</svg>
