<svg width="136.9mm" height="172.9mm" version="1.1" viewBox="0 0 517.44 653.5" xml:space="preserve" xmlns="http://www.w3.org/2000/svg">
<path d="m52.99 651.91c-6.7819-0.46257-14.452-1.4232-17.047-2.1348-10.666-2.9264-24.079-14.516-29.443-25.444-7.3945-15.059-8.0284-26.923-2.7345-51.174 21.683-99.331 114.26-463.15 130.33-512.14 6.5953-20.123 28.09-43.703 48.671-53.397 14.664-6.9064 13.778-6.8663 152.09-6.8663 133.53 0 139.42 0.20923 153.46 5.4442 9.6005 3.5792 13.755 7.9232 20.389 21.319 4.7019 9.4958 6.1253 13.806 7.1615 21.69 1.452 11.049 0.98487 209.99-0.49662 211.47-0.46949 0.46783-9.1738 1.8103-19.342 2.9833-28.966 3.3412-45.402 8.9161-59.124 20.052-11.496 9.3311-23.224 27.389-25.611 39.429-2.3371 11.798-3.5185 43.161-4.7822 126.96-1.8544 122.98-3.0789 146.52-8.4861 163.18-2.9491 9.0817-8.7576 15.345-22.657 24.43-14.943 9.7667-25.935 12.395-59.645 14.259-23.031 1.2739-243.96 1.2472-262.72-0.0319zm250.47-23.365c13.423-0.60195 27.69-1.6577 31.708-2.3461 10.828-1.8556 26.928-7.8777 31.835-11.908 12.706-10.435 14.018-23.955 15.999-164.8 1.3326-94.734 2.4703-123.74 5.3241-135.71 4.6746-19.622 24.436-44.751 45.455-57.805 14.461-8.9806 28.999-13.385 54.734-16.583l6.2939-0.78205-0.59047-84.416c-0.47434-67.814-0.94982-86.888-2.4177-96.985-2.5749-17.712-6.3526-25.172-15.007-29.631-6.7748-3.4908-42.531-4.2436-163.09-3.4334l-114.5 0.76937-9.3756 6.0493c-11.832 7.6344-24.073 19.527-27.909 27.113-5.487 10.853-11.337 31.778-40.079 143.34-9.3678 36.362-31.612 122.62-49.429 191.71-51.43 199.38-52.395 203.85-46.516 215.32 1.3715 2.6788 5.9804 8.5533 10.242 13.055l7.7482 8.184 117.59-0.0309c64.673-0.0168 128.56-0.52323 141.98-1.1252z" style="fill:#f60;stroke-width:1.1722"/></svg>
