<svg width="179pt" height="338pt" version="1.0" viewBox="0 0 179 338" xmlns="http://www.w3.org/2000/svg">
 <path d="m62.475 1.1507c-10.613 1.2372-16.52 2.76-24.529 6.3766-8.9105 3.9973-18.522 12.753-30.136 27.315l-7.4088 9.4221-0.10012 122.39c0 113.35 0.10012 122.68 1.702 126.48 5.5065 12.944 25.831 34.453 37.845 39.973 10.212 4.6635 17.02 5.4249 49.559 5.3297 39.847 0 44.753-1.0469 60.672-13.324 10.613-8.1849 21.525-21.128 24.429-29.028 2.8033-7.5186 3.6043-26.648 4.205-95.554 0.70082-85.18-1.2014-148.76-4.7056-158.75-2.6031-7.6138-16.419-22.461-28.334-30.55-3.5042-2.3793-9.5112-5.7104-13.316-7.4235l-6.9082-3.1407-28.033-0.19035c-15.418 0-31.137 0.28552-34.941 0.66621zm54.865 21.414c11.414 3.0455 25.63 11.326 29.935 17.512 8.6102 12.372 9.7115 26.363 9.7115 129.05 0 99.646-1.0012 114.3-8.2097 128.01-2.9034 5.52-4.205 6.7573-11.313 11.23-9.8116 6.1862-17.721 8.5656-32.038 9.8028-12.815 1.1421-36.043 0.28551-45.954-1.618-9.6114-1.8083-14.617-4.949-26.331-16.179l-10.112-9.898-0.60071-9.8028c-0.40047-5.3297-0.70083-55.962-0.90106-112.49-0.20024-94.316-0.10012-103.36 1.5018-109.83 1.0012-3.8069 2.8033-8.7559 4.205-10.945 9.5113-15.418 22.126-23.317 42.15-26.268 9.311-1.3324 40.948-0.38069 47.957 1.4276z" fill="#f60" style="stroke-width:.097614"/>
</svg>
