<?xml version="1.0" encoding="UTF-8" standalone="no"?>
<svg
   xmlns:dc="http://purl.org/dc/elements/1.1/"
   xmlns:cc="http://creativecommons.org/ns#"
   xmlns:rdf="http://www.w3.org/1999/02/22-rdf-syntax-ns#"
   xmlns:svg="http://www.w3.org/2000/svg"
   xmlns="http://www.w3.org/2000/svg"
   xmlns:sodipodi="http://sodipodi.sourceforge.net/DTD/sodipodi-0.dtd"
   xmlns:inkscape="http://www.inkscape.org/namespaces/inkscape"
   width="136.89999mm"
   height="172.89999mm"
   version="1.0"
   viewBox="0 0 388.06297 490.1102"
   id="svg4"
   sodipodi:docname="right_button.svg"
   inkscape:version="1.0.2-2 (e86c870879, 2021-01-15)">
  <metadata
     id="metadata10">
    <rdf:RDF>
      <cc:Work
         rdf:about="">
        <dc:format>image/svg+xml</dc:format>
        <dc:type
           rdf:resource="http://purl.org/dc/dcmitype/StillImage" />
        <dc:title></dc:title>
      </cc:Work>
    </rdf:RDF>
  </metadata>
  <defs
     id="defs8" />
  <sodipodi:namedview
     pagecolor="#ffffff"
     bordercolor="#666666"
     borderopacity="1"
     objecttolerance="10"
     gridtolerance="10"
     guidetolerance="10"
     inkscape:pageopacity="0"
     inkscape:pageshadow="2"
     inkscape:window-width="1920"
     inkscape:window-height="1027"
     id="namedview6"
     showgrid="false"
     units="mm"
     inkscape:zoom="1.1737968"
     inkscape:cx="294.66667"
     inkscape:cy="476.23235"
     inkscape:window-x="-8"
     inkscape:window-y="-8"
     inkscape:window-maximized="1"
     inkscape:current-layer="svg4" />
  <path
     d="M 33.237135,0.68511831 C 26.368233,1.8300655 21.172526,4.3841784 16.417133,9.228186 7.6989116,17.947399 3.2957697,27.018903 1.8867643,39.172958 0.91807307,48.156389 0.7419474,92.280891 1.6225758,152.78695 l 0.528377,42.27497 11.0959172,1.05687 c 20.166391,1.9376 31.174245,5.10822 42.622414,12.41827 11.448169,7.22198 21.575396,20.69712 24.833721,33.1154 2.113508,8.27885 2.994136,34.7007 3.522513,111.32409 0.528377,77.41605 1.144817,93.00495 4.050891,101.45993 4.755393,14.09166 17.524501,25.9815 33.992251,31.44202 9.51079,3.17062 24.39341,3.69906 115.62651,4.2275 91.2331,0.44036 116.41907,-0.0881 124.25667,-2.81834 9.68691,-3.34676 22.45602,-17.96686 24.56953,-28.09524 2.55382,-12.15406 -2.81801,-37.69519 -31.70262,-152.45412 C 334.85236,226.41586 299.09884,87.084592 294.6957,71.583769 289.85225,54.409562 286.50586,44.80962 281.83853,35.121606 276.20251,23.495989 269.15748,16.274015 254.36292,6.9382915 L 244.05957,0.42089978 141.20217,0.15668114 C 80.262691,-0.01946454 36.319334,0.24475409 33.237135,0.68511831 Z M 224.86187,16.538233 c 11.18398,0.968802 17.08419,2.730259 25.71435,7.750412 14.35424,8.366921 19.46189,19.199883 32.231,67.551882 3.34639,12.594423 16.20356,62.707873 28.70848,111.412173 12.41687,48.70428 27.7398,108.50575 33.99226,132.99001 11.6243,45.35752 19.37383,77.15182 22.72021,92.91687 2.02545,9.59994 3.25833,24.39618 2.28964,28.09524 -0.26419,1.23302 -3.78671,5.63666 -7.74953,9.77608 l -7.13309,7.48619 h -55.56765 c -69.74577,-0.0881 -147.15301,-1.40916 -158.16086,-2.64218 -16.29163,-1.9376 -25.97854,-5.72473 -32.58325,-12.85863 -3.61058,-3.96329 -5.4599,-8.71921 -7.04503,-18.8476 -0.52838,-3.25869 -1.23288,-36.63831 -1.76126,-77.94448 -0.44031,-39.72086 -0.968688,-80.1463 -1.232876,-89.83431 -1.056754,-38.22363 -4.227016,-48.7043 -19.726076,-64.82162 -16.731939,-17.43843 -33.463879,-25.9815 -53.189955,-26.9503 l -9.510786,-0.52844 v -60.41798 c 0,-74.333492 0.968691,-87.544422 7.045027,-95.911343 3.874765,-5.372444 6.956964,-6.341246 22.279898,-7.133902 19.54995,-1.056874 166.526828,-1.056874 178.679498,-0.08807 z"
     fill="#ff6600"
     id="path2"
     style="stroke-width:0.0880679" />
</svg>
