<?xml version="1.0" encoding="UTF-8" standalone="no"?>
<svg
   xmlns:dc="http://purl.org/dc/elements/1.1/"
   xmlns:cc="http://creativecommons.org/ns#"
   xmlns:rdf="http://www.w3.org/1999/02/22-rdf-syntax-ns#"
   xmlns:svg="http://www.w3.org/2000/svg"
   xmlns="http://www.w3.org/2000/svg"
   xmlns:sodipodi="http://sodipodi.sourceforge.net/DTD/sodipodi-0.dtd"
   xmlns:inkscape="http://www.inkscape.org/namespaces/inkscape"
   width="146pt"
   height="217pt"
   version="1.0"
   viewBox="0 0 146 217"
   id="svg6"
   sodipodi:docname="x_button.svg"
   inkscape:version="1.0.2-2 (e86c870879, 2021-01-15)">
  <metadata
     id="metadata12">
    <rdf:RDF>
      <cc:Work
         rdf:about="">
        <dc:format>image/svg+xml</dc:format>
        <dc:type
           rdf:resource="http://purl.org/dc/dcmitype/StillImage" />
        <dc:title></dc:title>
      </cc:Work>
    </rdf:RDF>
  </metadata>
  <defs
     id="defs10" />
  <sodipodi:namedview
     pagecolor="#ffffff"
     bordercolor="#666666"
     borderopacity="1"
     objecttolerance="10"
     gridtolerance="10"
     guidetolerance="10"
     inkscape:pageopacity="0"
     inkscape:pageshadow="2"
     inkscape:window-width="1920"
     inkscape:window-height="1027"
     id="namedview8"
     showgrid="false"
     inkscape:zoom="2.7564103"
     inkscape:cx="100"
     inkscape:cy="214.04651"
     inkscape:window-x="-8"
     inkscape:window-y="-8"
     inkscape:window-maximized="1"
     inkscape:current-layer="svg6" />
  <g
     transform="matrix(0.09855564,0,0,-0.09382676,-1.065608,218.00608)"
     fill="#ff6600"
     id="g4">
    <path
       d="M 230,2324 C 131,2307 81,2278 42,2210 16,2167 15,2160 16,2025 18,1867 45,1694 171,1040 289,422 327,268 380,189 417,132 495,66 557,37 603,16 621,15 908,12 c 409,-4 502,12 554,96 61,99 26,385 -163,1341 -82,415 -126,597 -162,667 -31,60 -134,159 -197,188 -42,20 -63,21 -365,22 -176,1 -331,0 -345,-2 z m 643,-224 c 51,-15 71,-58 113,-244 84,-372 257,-1343 270,-1512 l 7,-83 -27,-11 c -49,-18 -269,-33 -426,-27 -177,6 -219,17 -245,67 -58,113 -338,1645 -326,1787 1,12 98,30 196,37 102,6 398,-3 438,-14 z"
       id="path2" />
  </g>
</svg>
