<svg width="212.25mm" height="150.2mm" version="1.1" viewBox="0 0 802.22 567.69" xmlns="http://www.w3.org/2000/svg">
 <g transform="translate(975.97 -278.43)">
  <path d="m-763.69 846.04c-2.9188-0.35328-5.6685-1.2274-6.1104-1.9424-0.44192-0.71504-0.18231-4.2635 0.57691-7.8854 5.62-26.811 37.573-153.72 40.196-159.65 3.2565-7.3618 4.7352-7.8569 25.999-8.7054 10.255-0.40918 129.86-0.77655 265.78-0.81639 239.09-0.0701 247.21-0.0121 249.43 1.7789l2.2863 1.8513-1.7988 9.3987c-1.926 10.063-27.481 113.18-35.042 141.4-4.0497 15.114-4.9355 17.381-7.9838 20.435l-3.4287 3.4346-19.299 0.73929c-23.52 0.901-503.15 0.87064-510.61-0.0323zm-181.66-0.92134c-1.7128-0.38245-3.5878-1.7739-4.4425-3.2966-1.3866-2.4704-0.58287-6.1843 12.875-59.496 19.079-75.579 27.717-107.95 29.548-110.75 4.0235-6.1406 13.647-6.7935 94.599-6.4181 60.695 0.28147 65.672 0.43306 68.18 2.0767 1.9919 1.3057 2.7049 2.6032 2.7049 4.9222 0 2.8808-26.123 107.78-36.558 146.8-5.371 20.085-6.4492 22.338-11.818 24.692-3.8447 1.6857-9.1322 1.8188-78.124 1.9663-40.7 0.087-75.334-0.13954-76.964-0.50352zm83.892-53.726c0.86429-0.86428 1.5714-1.7596 1.5714-1.9897 0-1.3633 11.36-48.767 12.627-52.689 1.3207-4.0894 1.9053-4.7521 4.2037-4.7653 3.7114-0.0213 5.0416-1.0946 5.7507-4.6402 0.56379-2.819 0.36132-3.106-2.61-3.7003-4.903-0.98059-16.513-0.76882-19.469 0.35513-2.2059 0.83866-2.5781 1.522-2.3151 4.25 0.2756 2.8584 0.70554 3.2884 3.5634 3.564 1.7875 0.17235 3.25 0.53617 3.25 0.80849 0 0.27233-1.327 5.7563-2.9489 12.187-8.2949 32.887-11.128 46.526-9.8361 47.346 2.0151 1.2786 4.4995 0.98849 6.2135-0.72551zm22.23-1.0876c0.63696-0.80958 2.1177-5.155 3.2905-9.6565 3.062-11.752 4.4392-15.185 6.0929-15.185 1.1656 0 1.6027 2.5944 2.1768 12.921 0.69609 12.521 1.2926 14.548 4.2817 14.548 3.2485 0 3.8043-1.9184 4.2362-14.621 0.34485-10.143 0.80719-13.375 2.1954-15.348 3.414-4.8534 4.8787-8.6105 7.46-19.136 4.5808-18.678 3.8917-19.864-11.547-19.864-8.3803 0-9.7823 0.23966-10.237 1.75-1.0571 3.5106-15.608 65.407-15.608 66.393 0 1.4604 6.248-0.01 7.6581-1.8022zm10.71-34.823c-0.62415-1.6265 2.012-16.758 3.687-21.164 0.70231-1.8472 1.6414-2.3542 4.3608-2.3542 1.9062 0 3.7608 0.47751 4.1216 1.0611 0.95095 1.5387-3.4874 18.68-5.4094 20.891-2.3739 2.7315-5.991 3.5689-6.7599 1.5651zm30.632 36.593c2.0072-0.55384 2.5612-1.4213 2.8104-4.4003l0.31036-3.7105h-4.0604c-3.4902 0-4.0604-0.3024-4.0604-2.1536 0-1.1845 2.9654-14.719 6.5897-30.077 3.6243-15.358 6.3565-28.157 6.0715-28.442-0.28501-0.28502-1.8625-0.22295-3.5055 0.13791-2.3218 0.50995-3.3626 1.5894-4.6718 4.8452-1.7208 4.2794-15.484 60.435-15.484 63.177 0 1.2102 1.3483 1.4924 6.75 1.4126 3.7125-0.0548 7.875-0.4101 9.25-0.78949zm-86.509-2.2822c5.2016-4.0915 8.4336-14.876 4.8684-16.244-2.9155-1.1188-5.4029 0.48463-7.0195 4.525-1.5974 3.9923-3.8176 5.8907-6.8891 5.8907-2.3442 0-1.4945-5.95 4.4617-31.244l4.7697-20.256h3.9091c4.3299 0 4.4072 0.21357 2.9852 8.25l-0.75198 4.25h4.0494c3.9046 0 4.0894-0.1488 5.1706-4.164 2.0444-7.5922 1.7429-12.78-0.86553-14.892-3.2057-2.5961-8.0676-3.3201-13.134-1.9557-8.1205 2.1866-8.8483 3.7964-16.624 36.774-6.6768 28.317-6.1532 31.238 5.5997 31.238 5.3725 0 7.2604-0.43286 9.4706-2.1714zm282.51-133.53c-8.9415-0.43071-10.732-0.96339-12.546-3.7319-1.4869-2.2693-0.63013-6.1358 15.895-71.734 25.716-102.08 25.285-100.71 32.349-102.88 4.8016-1.4778 101.59-3.298 129.37-2.4329 21.462 0.66837 26.266 1.3716 29.164 4.2688 1.9081 1.9081 1.7526 2.6438-13.073 61.837-16.487 65.828-26.464 103.13-28.785 107.62-2.502 4.8384-6.8513 5.9254-27.375 6.842-17.147 0.7657-110.26 0.92833-125 0.21833zm88.98-45.053c1.914-0.96165 4.4401-3.1864 5.6135-4.9438 2.3312-3.4914 5.9775-16.803 7.0107-25.595 0.80237-6.8269-0.86461-9.9581-9.614-18.058l-5.9397-5.4991 5.29-22.976 4.4214-0.66303c2.4318-0.36467 4.6777-0.40676 4.9909-0.0935 0.31322 0.31322 9e-3 3.704-0.67533 7.5351-0.68466 3.8311-0.95561 7.4336-0.60213 8.0055 0.96547 1.5622 7.1714 1.2503 8.8673-0.44553 1.9028-1.9029 3.6574-10.078 3.6574-17.041 0-7.4626-2.2958-8.9738-13.633-8.9738-6.7782 0-8.7161 0.36744-11.044 2.094-4.129 3.0624-6.9975 8.7821-9.2927 18.53-3.6642 15.561-2.4382 21.217 6.0575 27.946 6.7463 5.3432 7.3352 7.4634 4.9097 17.676-2.7148 11.431-3.9475 13.254-8.9618 13.254-2.1549 0-4.1896-0.43962-4.5217-0.97693-0.52093-0.84289 0.19615-4.6692 2.1126-11.273 0.40201-1.3852-0.10544-1.75-2.4345-1.75-4.8662 0-9.0316 1.1387-9.6019 2.6248-0.29555 0.7702-0.83496 4.3051-1.1987 7.8553-0.75235 7.3434 0.52783 11.687 3.9294 13.331 3.6759 1.7772 16.708 1.4221 20.659-0.56282zm98.922 43.821c-16.021-0.58489-18.155-1.1417-19.399-5.0607-0.31607-0.99585 5.9529-27.843 13.931-59.66 19.28-76.89 27.199-106.33 29.413-109.35 1.0082-1.375 3.0977-3.1194 4.6433-3.8766 4.8906-2.3956 34.512-3.3018 96.01-2.9373 62.561 0.37082 62.664 0.37897 64.408 5.093 0.55548 1.5016-4.5501 23.385-16.958 72.685-19.167 76.156-23.379 91.993-25.628 96.365-2.7347 5.3166-6.1276 5.94-36.822 6.7657-31.478 0.84683-86.058 0.83435-109.6-0.0251zm80.146-44.139c7.0946-1.7974 8.4939-4.526 14.367-28.017 7.9537-31.814 11.954-52.813 10.694-56.129-1.6635-4.3752-5.9121-5.8229-19.024-6.4822l-11.815-0.59403-1.253 5.3959c-0.68915 2.9677-5.4847 22.946-10.657 44.396-5.1721 21.45-9.2775 39.675-9.1231 40.5 0.47916 2.5598 17.982 3.1674 26.811 0.93065zm-12.64-10.54c-0.72895-0.30152 0.14734-5.56 2.6337-15.804 2.0494-8.4439 5.6548-23.73 8.0121-33.969l4.286-18.617h5.2234c3.6204 0 5.3927 0.4413 5.7752 1.438 0.59792 1.5582-2.0532 15.09-7.8223 39.927-4.9562 21.337-6.2598 25.428-8.4834 26.618-1.9021 1.018-7.5685 1.2578-9.6245 0.40743zm-410.55 53.61c-32.271-0.46572-34.791-0.63062-36.75-2.405-1.1568-1.0477-2.1034-2.9948-2.1034-4.3267 0-5.7521 40.188-162.19 42.833-166.73 2.6296-4.5167 6.04-5.6413 20.005-6.5967 15.268-1.0445 124.67-1.1167 134.92-0.089 5.5542 0.55678 7.7881 1.254 9.4988 2.9648l2.2368 2.2368-16.348 65.223c-18.815 75.066-25.533 100.13-27.739 103.5-2.9116 4.4437-7.5304 5.5116-25.411 5.8751-35.215 0.71597-67.888 0.82858-101.15 0.34861zm44.521-46.25c0.34322-1.7875 2.0132-9.2125 3.7111-16.5l3.087-13.25h5.7473c3.161 0 5.9767 0.22942 6.2571 0.50982 0.2804 0.28039-1.0208 7.0876-2.8916 15.127-1.8708 8.0395-3.1643 15.235-2.8745 15.99 0.34671 0.9035 2.1897 1.373 5.3901 1.373h4.8632l4.2618-18.25c11.423-48.916 14.562-64.638 13.546-67.839-1.0774-3.3947-6.2946-5.3124-14.472-5.3194-11.394-0.01-15.89 3.1332-19.097 13.35-3.3089 10.539-18.903 72.905-18.903 75.6 0 2.3058 0.33281 2.458 5.375 2.458 5.2694 0 5.3873-0.0638 5.999-3.25zm10.107-43c0.22997-0.6875 2.0556-8 4.057-16.25 2.0014-8.25 4.1042-15.562 4.6729-16.25 1.4249-1.7225 8.2739-1.5758 9.7551 0.20904 1.3296 1.602 1.2583 2.1318-2.6292 19.541-1.4124 6.325-3.0211 12.062-3.5748 12.75-0.59819 0.74264-3.3798 1.25-6.853 1.25-4.2333 0-5.7308-0.34486-5.428-1.25zm-266.71 87.565c-1.5004-0.24395-3.5962-1.5473-4.6573-2.8963-2.3407-2.9757-3.9077 4.3337 15.847-73.919 16.388-64.917 23.464-91.562 25.319-95.338 3.8709-7.88 9.2726-8.3355 94.379-7.9582 70.351 0.3119 70.418 0.31641 71.841 4.7975 0.37408 1.1786-5.8067 27.629-15.014 64.251-20.472 81.428-26.184 102.72-28.372 105.75-3.9507 5.4714-3.4237 5.4359-83.114 5.6037-40.425 0.0851-74.728-0.0448-76.228-0.28876zm47.701-58.739c4.017-1.6784 6.5312-6.0973 8.8984-15.64 2.8327-11.419 2.3404-13.373-5.4015-21.436l-4.8007-5 1.9228-7.4575c2.1608-8.3806 2.3239-8.6332 6.1889-9.5879l2.7812-0.687-0.28118 6.8662c-0.26637 6.5046-0.15979 6.8834 2.0239 7.193 1.2678 0.17972 2.9263-0.1888 3.6855-0.81893 1.7011-1.4118 4.7316-14.265 3.8841-16.474-1.595-4.1565-12.609-6.0157-18.276-3.085-5.1816 2.6795-7.5071 8.4087-9.07 22.345l-0.85971 7.666 6.0228 5.6429c6.6994 6.2768 6.6611 6.0507 2.9454 17.398-1.5476 4.7259-1.8453 5.0172-5.4302 5.3129l-3.7928 0.31291 1.3432-10.126h-3.5936c-3.9722 0-4.9851 1.1948-6.0582 7.1462-1.6748 9.2884 7.6172 14.712 17.867 10.429zm19.93-0.12214c1.773-1.773 3.568-7.4165 6.1079-19.204l1.7778-8.25h4.8553c2.6704 0 4.8518 0.3375 4.8475 0.75-4e-3 0.4125-1.3508 6.15-2.9921 12.75-3.6715 14.763-3.6986 15.5-0.57143 15.5 3.3807 0 5.3033-2.2659 7.0524-8.3113 1.355-4.6835 14.519-59.352 14.519-60.295 0-0.21648-1.598-0.3936-3.551-0.3936-4.3905 0-5.0815 1.4351-9.0284 18.75l-2.7924 12.25h-4.2551c-2.3403 0-4.4923-0.38383-4.7822-0.85297-0.28994-0.46913 1.0335-7.5396 2.941-15.712 1.9075-8.1725 3.4681-14.898 3.4681-14.946s-1.6208 0.10212-3.6017 0.33338c-4.8123 0.56181-5.0991 1.3379-13.531 36.622-3.8188 15.981-7.1816 29.843-7.4728 30.806-0.42206 1.3951 0.0782 1.75 2.4665 1.75 1.6478 0 3.6919-0.69592 4.5425-1.5465zm33.954 0.0458c0.82536-0.82537 2.179-3.8629 3.0081-6.75 1.6991-5.9168 14.634-59.624 14.634-60.762 0-0.40435-1.4625-0.443-3.25-0.0859-2.3696 0.47341-3.7132 1.5704-4.9602 4.0498-0.9406 1.8703-4.4725 14.909-7.8486 28.974-3.3761 14.066-6.7263 27.936-7.4449 30.824l-1.3064 5.25h2.8336c1.5585 0 3.5089-0.6753 4.3343-1.5007zm17.149 0.11964c1.3011-0.95137 2.8688-5.3848 5.0392-14.25l3.1505-12.869 4.3823-0.31875c5.3374-0.38819 6.9216-1.5761 6.9216-5.1901 0-2.4984-0.42131-2.8272-4.3839-3.4214l-4.3839-0.65741 2.3788-11.206c1.3083-6.1634 2.3811-11.319 2.3839-11.456 3e-3 -0.1375 2.2663-0.25 5.0299-0.25 4.4736 0 5.1317-0.28135 6-2.5651 2.0333-5.3479 1.7412-5.534-8.1993-5.2224l-9.1746 0.28753-7.7788 32.5c-4.2783 17.875-7.7998 33.288-7.8254 34.25-0.0574 2.1548 3.7223 2.3707 6.4598 0.36898zm31.863-0.86894c0.77862-1.2375 3.9965-13.5 7.1508-27.25 7.1137-31.009 7.2979-31.5 11.822-31.5 3.6385 0 4.658-1.2217 4.658-5.5818 0-2.4177-2e-3 -2.4182-11.521-2.4182-11.239 0-11.549 0.0598-12.631 2.4362-1.6208 3.5574-0.448 5.5638 3.2524 5.5638 3.8569 0 4.1638-2.401-4.0275 31.5-3.3223 13.75-6.0477 26.012-6.0563 27.25-0.0128 1.833 0.5361 2.25 2.9613 2.25 2.0011 0 3.441-0.73757 4.3926-2.25zm258.21-131.7c-3.8637-0.77624-6.5817-3.1568-6.5817-5.7644 0-1.6149 25.953-105.7 32.486-130.28 9.9044-37.273 10.449-38.738 15.216-40.91 5.4994-2.5057 26.952-3.1836 91.444-2.8894 62.923 0.28698 65.733 0.37842 67.75 2.2044 1.1573 1.0477 2.1042 3.0093 2.1042 4.359 0 2.672-28.88 118.3-37.014 148.19-5.3876 19.8-6.6445 22.159-12.912 24.23-4.1717 1.3786-145.93 2.181-152.49 0.86317zm83.933-52.297c14.081-38.625 15.981-43.281 15.002-36.75-1.1923 7.9507-4.515 39.775-4.5156 43.25l-6.2e-4 3.75h11.695l6.7446-18.25c15.572-42.135 25.406-69.376 25.723-71.25 0.29549-1.7487-0.2903-2.0365-4.662-2.2902l-5-0.29025-2.3509 6.7902c-6.9566 20.094-20.472 57.301-20.723 57.05-0.15979-0.1598 0.10127-3.6586 0.58014-7.775 4.1988-36.094 6.1115-51.823 6.5343-53.734 0.45136-2.0412 0.1264-2.25-3.5012-2.25-3.6161 0-4.1824 0.35992-5.9175 3.761-1.0553 2.0686-5.7359 14.556-10.401 27.75-9.579 27.089-11.518 31.929-11.639 29.052-0.0449-1.0653 1.2964-13.56 2.9805-27.767 1.6842-14.207 2.9216-27.285 2.75-29.063-0.29033-3.0075-0.59704-3.2538-4.3986-3.5325-2.4998-0.18321-4.4666 0.20506-5.0654 1-1.1871 1.5758-9.7478 88.344-8.8582 89.783 0.34545 0.55896 3.0266 1.0163 5.958 1.0163h5.3299zm99.627 51.321c-5.6234-0.67919-8.1416-2.6691-8.1416-6.4336 0-2.246 29.156-118.16 37.01-147.14 3.3591-12.394 5.8683-19.772 7.2167-21.221 4.4449-4.7758 4.5017-4.779 84.918-4.779 72.983 0 75.719 0.067 77.75 1.905 1.158 1.0477 2.1055 2.982 2.1055 4.2983 0 2.4172-28.41 115.86-36.61 146.19-2.4381 9.017-5.1757 17.96-6.0835 19.873-2.3652 4.9843-6.4923 6.3361-22.306 7.3061-15.653 0.96016-127.91 0.9581-135.86-2e-3zm88.881-44.071c0.52069-0.825 0.9536-3.1394 0.96202-5.143 0.0177-4.2007-1.0206-4.857-7.6831-4.857-3.8264 0-4.4634-0.27338-4.0776-1.75 0.25149-0.9625 1.7331-6.9817 3.2924-13.376l2.8351-11.626 6.0464-0.63197c7.1091-0.74305 8.5637-1.9115 9.3104-7.4786l0.55497-4.1376-4.8817-0.0153c-8.2963-0.026-8.2916-0.01-4.5375-15.298l3.2946-13.417 6.1528-0.6431c7.0495-0.73682 8.0534-1.5189 9.4689-7.3773l1.0269-4.25h-12.425c-9.0625 0-12.532 0.33828-12.82 1.25-0.21744 0.6875-4.9602 20.375-10.539 43.75s-10.356 43.251-10.615 44.169c-0.65506 2.322 1.4361 2.7133 13.4 2.5079 7.9161-0.13589 10.506-0.52243 11.235-1.6766zm-448.52 43.315c-6.6312-0.57764-8.4023-1.2366-10.04-3.7353-1.4776-2.255-0.64599-6.032 14.913-67.734 18.843-74.727 24.952-97.641 27.185-101.96 3.3783-6.533 1.2028-6.3551 81.942-6.7005 40.15-0.17178 74.921-0.0304 77.269 0.31411 2.9875 0.43839 4.7477 1.357 5.8636 3.0602 1.5172 2.3155 0.80703 5.5568-14.61 66.686-26.724 105.96-26.311 104.59-32.392 107.57-4.9299 2.4172-25.619 3.1353-86.131 2.9897-33-0.0794-61.8-0.30121-64-0.49286zm103.6-44.02c0.54226-0.54226 1.078-2.968 1.1906-5.3906 0.18187-3.9138-0.053-4.4412-2.1077-4.7324-2.7224-0.38583-3.0801 2.1029 3.9772-27.672 7.7499-32.698 9.7666-43.101 8.9583-46.211-1.1748-4.5206-6.1142-6.4449-15.623-6.0863-9.6205 0.36276-15.007 2.7617-17.653 7.862-3.6428 7.021-17.847 66.638-17.847 74.907 0 7.1539 5.9486 9.0982 26.309 8.5991 6.4952-0.15922 12.253-0.73316 12.795-1.2754zm-26.795-11.93c-0.9308-2.4256 11.006-55.388 14.217-63.079 1.525-3.653 4.6253-4.8549 9.9474-3.8565 3.2608 0.61172 3.427 0.83461 2.8794 3.86-0.48913 2.7023-6.2512 27.868-13.157 57.461l-1.6918 7.25h-5.7838c-4.4312 0-5.9305-0.38241-6.4113-1.6352z" style="fill:#212121"/>
 </g>
</svg>
