<svg width="806px" height="598.9px" enable-background="new 97 97.1 806 598.9" version="1.1" viewBox="97 97.1 806 598.9" xml:space="preserve" xmlns="http://www.w3.org/2000/svg">
<path transform="translate(97,97.1)" d="m236.45 569.92c-15.757-0.22235-29.251-0.6989-29.986-1.059-0.89711-0.43932-1.337-1.5419-1.337-3.3512 0-3.4912 4.4143-22.388 17.981-76.976 14.039-56.487 21.278-83.818 23.456-88.558 2.8072-6.1094 4.5325-6.5669 27.982-7.4201 11.323-0.412 123.04-0.62211 264.86-0.4981 229.78 0.20093 245.4 0.29686 247.26 1.5192l1.9912 1.3047-2.2965 10.919c-3.1469 14.963-34.377 139.75-37.319 149.12-1.9478 6.2018-2.9636 8.1821-5.6611 11.037l-3.2873 3.4793-42.682 0.5559c-47.542 0.6192-416.08 0.56286-460.96-0.0705z" style="fill:#ff2a2a;stroke-width:.76398"/><path d="m315.19 474.27c-15.757-0.22235-29.251-0.6989-29.986-1.059-0.89711-0.43932-1.337-1.5419-1.337-3.3512 0-3.4912 4.4143-22.388 17.981-76.976 14.039-56.487 21.278-83.818 23.456-88.558 2.8072-6.1094 4.5325-6.5669 27.982-7.4201 11.323-0.412 123.04-0.62211 264.86-0.4981 229.78 0.20093 245.4 0.29686 247.26 1.5192l1.9912 1.3047-2.2965 10.919c-3.1469 14.963-34.377 139.75-37.319 149.12-1.9478 6.2018-2.9636 8.1821-5.6611 11.037l-3.2873 3.4793-42.682 0.5559c-47.542 0.6192-416.08 0.56286-460.96-0.0705z" style="fill:#ff2a2a;stroke-width:.76398"/><path d="m130.44 473.19c-15.757-0.22235-29.251-0.6989-29.986-1.059-0.89711-0.43932-1.337-1.5419-1.337-3.3512 0-3.4912 4.4143-22.388 17.981-76.976 14.039-56.487 21.278-83.818 23.456-88.558 2.8072-6.1094 4.5325-6.5669 27.982-7.4201 11.323-0.412 123.04-0.62211 264.86-0.4981 229.78 0.20093 245.4 0.29686 247.26 1.5192l1.9912 1.3047-2.2965 10.919c-3.1469 14.963-34.377 139.75-37.319 149.12-1.9478 6.2018-2.9636 8.1821-5.6611 11.037l-3.2873 3.4793-42.682 0.5559c-47.542 0.6192-416.08 0.56286-460.96-0.0705z" style="fill:#ff2a2a;stroke-width:.76398"/><path d="m350.84 276.55c-15.757-0.22235-29.251-0.6989-29.986-1.059-0.89711-0.43932-1.337-1.5419-1.337-3.3512 0-3.4912 4.4143-22.388 17.981-76.976 14.039-56.487 21.278-83.818 23.456-88.558 2.8072-6.1094 4.5325-6.5669 27.982-7.4201 11.323-0.412 123.04-0.62211 264.86-0.4981 229.78 0.20093 245.4 0.29686 247.26 1.5192l1.9912 1.3047-2.2965 10.919c-3.1469 14.963-34.377 139.75-37.319 149.12-1.9478 6.2018-2.9636 8.1821-5.6611 11.037l-3.2873 3.4793-42.682 0.5559c-47.542 0.6192-416.08 0.56286-460.96-0.0705z" style="fill:#ff2a2a;stroke-width:.76398"/><path d="m171.49 667.67c-15.757-0.22235-29.251-0.6989-29.986-1.059-0.89711-0.43932-1.337-1.5419-1.337-3.3512 0-3.4912 4.4143-22.388 17.981-76.976 14.039-56.487 21.278-83.818 23.456-88.558 2.8072-6.1094 4.5325-6.5669 27.982-7.4201 11.323-0.412 123.04-0.62211 264.86-0.4981 229.78 0.20093 245.4 0.29686 247.26 1.5192l1.9912 1.3047-2.2965 10.919c-3.1469 14.963-34.377 139.75-37.319 149.12-1.9478 6.2018-2.9636 8.1821-5.6611 11.037l-3.2873 3.4793-42.682 0.5559c-47.542 0.6192-416.08 0.56286-460.96-0.0705z" style="fill:#ff2a2a;stroke-width:.76398"/><g transform="translate(-1.3292 -1.134)" fill="#f2f2f2"><path d="m268.5 348.8c4.3-0.7 9.8-1.1 15.7-1.1 10.1 0 17 2.1 22 6.2 5.2 4.2 8.4 10.6 8.4 19.8 0 9.6-3.3 16.8-8.4 21.4-5.4 4.9-13.9 7.4-24.4 7.4-5.8 0-10.1-0.3-13.3-0.7zm9.9 45.7c1.4 0.2 3.4 0.2 5.4 0.2 12.8 0.1 20.4-7 20.4-20.6 0.1-11.9-6.8-18.7-19.1-18.7-3.1 0-5.4 0.2-6.7 0.6z"/><path d="m333.5 352.2c0 3-2.2 5.3-5.6 5.3-3.3 0-5.4-2.3-5.4-5.3s2.2-5.4 5.5-5.4 5.4 2.4 5.5 5.4zm-10.5 49.8v-39h9.9v39z"/><path d="m343 393c2.2 1.4 6.5 2.8 10 2.8 4.3 0 6.2-1.8 6.2-4.3 0-2.6-1.6-4-6.4-5.7-7.6-2.6-10.8-6.8-10.7-11.4 0-6.9 5.7-12.2 14.7-12.2 4.3 0 8.1 1.1 10.3 2.3l-1.9 7c-1.7-1-4.8-2.2-8.2-2.2-3.5 0-5.4 1.7-5.4 4.1 0 2.5 1.8 3.7 6.8 5.4 7 2.6 10.3 6.2 10.4 11.9 0 7-5.5 12.2-15.8 12.2-4.7 0-9-1.1-11.8-2.7z"/><path d="m405.5 400.8c-2.1 1-6.2 2-11 2-12.2 0-20.1-7.8-20.1-19.8 0-11.7 8-20.8 21.7-20.8 3.6 0 7.3 0.8 9.5 1.8l-1.8 7.4c-1.6-0.7-3.9-1.5-7.4-1.5-7.5 0-12 5.5-11.9 12.6 0 8 5.2 12.6 11.9 12.6 3.4 0 5.8-0.7 7.8-1.5z"/><path d="m449.1 382.2c0 14.3-10.1 20.7-20 20.7-11 0-19.5-7.6-19.5-20.1 0-12.8 8.4-20.6 20.2-20.6 11.5 0 19.3 8.2 19.3 20zm-29.4 0.4c0 7.5 3.7 13.2 9.7 13.2 5.6 0 9.5-5.5 9.5-13.4 0-6.1-2.7-13-9.4-13-7 0-9.8 6.7-9.8 13.2z"/><path d="m457.2 374.7c0-4.5-0.1-8.2-0.3-11.6h8.6l0.5 5.8h0.2c1.7-3 5.9-6.7 12.4-6.7 6.8 0 13.8 4.4 13.8 16.7v23.1h-9.8v-22c0-5.6-2.1-9.8-7.4-9.8-3.9 0-6.6 2.8-7.7 5.8-0.3 0.9-0.4 2.1-0.4 3.2v22.9h-9.9z"/><path d="m502.9 374.7c0-4.5-0.1-8.2-0.3-11.6h8.6l0.5 5.8h0.2c1.7-3 5.9-6.7 12.4-6.7 6.8 0 13.8 4.4 13.8 16.7v23.1h-9.8v-22c0-5.6-2.1-9.8-7.4-9.8-3.9 0-6.6 2.8-7.7 5.8-0.3 0.9-0.4 2.1-0.4 3.2v22.9h-9.9z"/><path d="m555.6 385.3c0.2 7 5.8 10.1 12 10.1 4.6 0 7.8-0.6 10.8-1.8l1.4 6.8c-3.4 1.4-8 2.4-13.6 2.4-12.6 0-20.1-7.8-20.1-19.7 0-10.8 6.6-21 19-21 12.6 0 16.8 10.4 16.8 19 0 1.8-0.2 3.3-0.3 4.2zm17.2-6.9c0.1-3.6-1.5-9.5-8.1-9.5-6.1 0-8.6 5.5-9 9.5z"/><path d="m618.6 400.8c-2.1 1-6.2 2-11 2-12.2 0-20.1-7.8-20.1-19.8 0-11.7 8-20.8 21.7-20.8 3.6 0 7.3 0.8 9.5 1.8l-1.8 7.4c-1.6-0.7-3.9-1.5-7.4-1.5-7.5 0-12 5.5-11.9 12.6 0 8 5.2 12.6 11.9 12.6 3.4 0 5.8-0.7 7.8-1.5z"/><path d="m638.4 352v11.1h9.4v7.4h-9.4v17.2c0 4.7 1.3 7.2 5 7.2 1.7 0 3-0.2 3.8-0.5l0.2 7.5c-1.4 0.6-4 1-7.1 1-3.6 0-6.6-1.2-8.5-3.2-2.1-2.2-3-5.8-3-10.9v-18.3h-5.6v-7.4h5.6v-8.8z"/><path d="m661.6 385.3c0.2 7 5.8 10.1 12 10.1 4.6 0 7.8-0.6 10.8-1.8l1.4 6.8c-3.4 1.4-8 2.4-13.6 2.4-12.6 0-20.1-7.8-20.1-19.7 0-10.8 6.6-21 19-21 12.6 0 16.8 10.4 16.8 19 0 1.8-0.2 3.3-0.3 4.2zm17.2-6.9c0.1-3.6-1.5-9.5-8.1-9.5-6.1 0-8.6 5.5-9 9.5z"/><path d="m731.9 345.2v45.9c0 4 0.2 8.3 0.3 11h-8.8l-0.4-6.2h-0.2c-2.3 4.3-7 7-12.7 7-9.3 0-16.6-7.9-16.6-19.9-0.1-13 8.1-20.8 17.4-20.8 5.4 0 9.2 2.2 11 5.1h0.2v-22.1zm-9.9 34.1c0-0.8-0.1-1.8-0.2-2.6-0.9-3.8-4-7-8.5-7-6.3 0-9.8 5.6-9.8 12.9 0 7.1 3.5 12.3 9.8 12.3 4 0 7.5-2.7 8.5-7 0.2-0.9 0.3-1.8 0.3-2.9z"/></g></svg>
