<svg width="56mm" height="48.9mm" enable-background="new 97 97.1 806 598.9" version="1.1" viewBox="97 97.1 211.65 184.82" xml:space="preserve" xmlns="http://www.w3.org/2000/svg"><defs><clipPath id="clipPath1366"><rect x="585.18" y="168.15" width="92.442" height="78.69" style="stroke-width:.95743"/></clipPath></defs>
<path transform="matrix(2.544 0 0 2.8078 -1402.9 -393.28)" d="m232.29 668.42c-0.88588-0.86371-0.99382-1.3891-0.58889-2.8665 0.27268-0.99494 3.9286-14.34 8.1243-29.654 4.1958-15.315 8.0084-28.419 8.4729-29.12 1.8396-2.7756 2.3906-2.8208 34.341-2.8208 28.63 0 29.738 0.0381 30.785 1.0575 0.88533 0.86315 0.99382 1.39 0.59028 2.8665-11.962 43.766-15.907 57.734-16.597 58.774-1.8431 2.7758-2.3924 2.8208-34.342 2.8208-28.63 0-29.738-0.0382-30.785-1.0575zm29.367-21.874 1.7359-6.8249 2.492-0.17097c2.8268-0.19393 3.0483-0.34501 3.5506-2.4224 0.35506-1.4687 0.3077-1.5015-2.1679-1.5015-2.9978 0-2.9956 0.0124-1.1964-6.2788l1.2493-4.3679 2.4884-0.17097c2.8229-0.19396 3.0446-0.34536 3.5468-2.4224l0.363-1.5015h-9.3602l-4.101 15.697c-2.2555 8.6335-4.22 16.022-4.3656 16.416-0.19602 0.53295 0.29252 0.67469 1.8821 0.546l2.1469-0.17379zm21.922-8.4782c3.9098-15.285 3.9637-15.59 2.8753-16.334-0.99211-0.67747-1.3606-0.57496-3.4911 0.97095-1.31 0.9506-2.7832 1.9741-3.2737 2.2743-0.61163 0.37445-0.79342 1.0135-0.57861 2.034 0.27064 1.2858 0.46344 1.4096 1.4186 0.91125 0.60795-0.31722 1.2516-0.43415 1.4304-0.25988 0.17877 0.1743-1.1968 6.091-3.0569 13.148l-3.3818 12.831h4.0732zm38.317 30.352c-0.88589-0.86371-0.99381-1.3891-0.5889-2.8665 0.27269-0.99494 3.9286-14.34 8.1243-29.654 4.1957-15.315 8.0084-28.419 8.4729-29.12 1.8396-2.7756 2.3906-2.8208 34.341-2.8208 28.63 0 29.738 0.0381 30.785 1.0575 0.88533 0.86315 0.99382 1.39 0.59028 2.8665-11.962 43.766-15.907 57.734-16.597 58.774-1.8431 2.7758-2.3924 2.8208-34.342 2.8208-28.63 0-29.738-0.0382-30.785-1.0575zm28.807-21.874 1.7359-6.8249 2.492-0.17097c2.8268-0.19393 3.0483-0.34501 3.5506-2.4224 0.35505-1.4687 0.3077-1.5015-2.1679-1.5015-2.9978 0-2.9956 0.0124-1.1964-6.2788l1.2493-4.3679 2.4884-0.17097c2.8229-0.19396 3.0446-0.34536 3.5468-2.4224l0.363-1.5015h-9.3602l-4.101 15.697c-2.2555 8.6335-4.22 16.022-4.3656 16.416-0.19603 0.53295 0.29252 0.67469 1.8821 0.546l2.1469-0.17379zm23.809 6.4153c5e-3 -0.37537 0.15961-1.2353 0.34533-1.9109 0.3253-1.1834 0.20163-1.2285-3.3679-1.2285-2.038 0-3.7055-0.19122-3.7055-0.42489 0-0.61458 1.911-3.1308 7.0618-9.2985 4.3112-5.1623 4.6048-5.6876 5.7875-10.354 0.68525-2.7037 1.1617-5.49 1.0587-6.1918-0.26748-1.8233-2.4603-2.7512-5.9318-2.5096-4.1837 0.29104-6.0563 2.083-7.1093 6.8027-0.38516 1.7265-0.34498 1.7744 1.486 1.7744 1.7116 0 1.9563-0.21002 2.7046-2.3205 0.60795-1.7145 1.1624-2.3674 2.1236-2.5001 2.7892-0.38529 2.9281 0.0463 1.5886 4.9368-1.1484 4.1927-1.6275 5.0059-6.2087 10.54-4.7425 5.7288-6.4754 8.5594-7.2644 11.866l-0.35823 1.5015h5.891c4.3354 0 5.8931-0.18023 5.8986-0.68249zm36.99 15.459c-0.88588-0.86371-0.99381-1.3891-0.58889-2.8665 0.27269-0.99494 3.9286-14.34 8.1243-29.654 4.1957-15.315 8.0084-28.419 8.4729-29.12 1.8396-2.7756 2.3906-2.8208 34.341-2.8208 28.63 0 29.738 0.0381 30.785 1.0575 0.88533 0.86315 0.99382 1.39 0.59028 2.8665-11.962 43.766-15.907 57.734-16.597 58.774-1.8431 2.7758-2.3924 2.8208-34.342 2.8208-28.63 0-29.738-0.0382-30.785-1.0575zm28.807-21.874 1.7359-6.8248 2.492-0.17097c2.8268-0.19393 3.0483-0.34502 3.5506-2.4224 0.35507-1.4687 0.30772-1.5015-2.1679-1.5015-2.998 0-2.9956 0.0124-1.1964-6.2788l1.2493-4.3679 2.4884-0.17098c2.823-0.19395 3.0446-0.34535 3.5468-2.4224l0.36298-1.5015h-9.3602l-4.1008 15.697c-2.2555 8.6335-4.22 16.022-4.3656 16.416-0.19604 0.53295 0.29251 0.67469 1.8821 0.546l2.1469-0.17379zm21.815 6.3245c2.5644-1.0446 3.3544-2.4132 4.95-8.5753 1.4075-5.436 1.271-7.0096-0.61198-7.0528-0.6537-0.0155-0.47328-0.27523 0.57555-0.83013 1.5134-0.80064 1.8024-1.4705 3.7563-8.7028 1.3437-4.9738 0.17568-6.8248-4.3066-6.8248-4.8479 0-7.0361 1.736-8.431 6.6883l-0.57668 2.0474h2.0788c1.9906 0 2.1074-0.10431 2.7529-2.457 0.62819-2.2898 0.80117-2.457 2.543-2.457 2.8765 0 2.8513-0.31367 0.60679 7.5074-0.75621 2.6351-0.95696 2.8665-2.487 2.8665-0.95413 0-1.6677 0.29126-1.6721 0.68249-5e-3 0.37535-0.15961 1.2353-0.34533 1.9109-0.28797 1.0476-0.11938 1.2285 1.1453 1.2285 0.81564 0 1.6215 0.35195 1.7908 0.78209 0.1693 0.43015-0.28651 2.8256-1.0129 5.3234l-1.3208 4.5414-4.8676 0.34234 0.38327-2.4916 0.38325-2.4916h-1.8983c-1.8218 0-1.9247 0.11144-2.5535 2.7676-0.70268 2.9679-0.32363 4.375 1.4498 5.3822 1.4173 0.80502 5.4751 0.70586 7.6681-0.18744zm38.982 15.55c-0.88589-0.86371-0.99382-1.3891-0.5889-2.8665 0.27269-0.99494 3.9286-14.34 8.1243-29.654 4.1957-15.315 8.0084-28.419 8.4729-29.12 1.8396-2.7756 2.3906-2.8208 34.341-2.8208 28.63 0 29.738 0.0381 30.785 1.0575 0.88534 0.86316 0.99383 1.39 0.59028 2.8665-11.962 43.766-15.907 57.734-16.597 58.774-1.8431 2.7758-2.3924 2.8208-34.342 2.8208-28.63 0-29.738-0.0382-30.785-1.0575zm28.807-21.874 1.7359-6.8248 2.492-0.17097c2.8268-0.19393 3.0483-0.34502 3.5506-2.4224 0.35506-1.4687 0.3077-1.5015-2.1679-1.5015-2.998 0-2.9956 0.0124-1.1964-6.2788l1.2493-4.3679 2.4884-0.17098c2.823-0.19395 3.0446-0.34535 3.5468-2.4224l0.36299-1.5015h-9.3602l-4.1008 15.697c-2.2555 8.6335-4.22 16.022-4.3656 16.416-0.19604 0.53295 0.29251 0.67469 1.8821 0.546l2.1469-0.17379zm23.247 4.7774c0.93788-3.5721 1.0051-3.6854 2.1834-3.6854 1.2482 0 1.4276-0.21409 1.944-2.3205 0.3091-1.2607 0.1868-1.5015-0.76261-1.5015-0.62191 0-1.1307-0.29122-1.1307-0.64714 0-0.35593 1.2601-5.371 2.8002-11.145 1.5401-5.7735 2.8002-10.642 2.8002-10.819 0-0.17669-1.1971-0.31505-2.6602-0.3075l-2.6602 0.0139-6.3004 11.654c-4.1399 7.6574-6.3004 12.24-6.3004 13.363v1.7093h7.179l-0.78271 2.8665c-0.4305 1.5765-0.78572 2.9279-0.78937 3.003-3e-3 0.0751 0.86569 0.13651 1.9318 0.13651 1.8116 0 1.9783-0.15183 2.5478-2.3205zm-1.6561-16.302c2.4843-4.8368 4.6269-8.687 4.7614-8.556 0.13446 0.13109-0.8886 4.011-2.2734 8.6219-1.3849 4.6109-2.5179 8.4611-2.5179 8.556 0 0.0949-1.0095 0.1725-2.2434 0.1725h-2.2434zm39.208 33.399c-0.88588-0.86371-0.99381-1.3891-0.58889-2.8665 0.27268-0.99494 3.9286-14.34 8.1243-29.654 4.1957-15.315 8.0084-28.419 8.4729-29.12 1.8396-2.7756 2.3906-2.8208 34.341-2.8208 28.63 0 29.738 0.0381 30.785 1.0575 0.88533 0.86315 0.99382 1.39 0.59027 2.8665-11.962 43.766-15.907 57.734-16.597 58.774-1.8431 2.7758-2.3924 2.8208-34.342 2.8208-28.63 0-29.738-0.0382-30.785-1.0575zm28.807-21.874 1.7359-6.8248 2.492-0.17097c2.8268-0.19393 3.0483-0.34502 3.5506-2.4224 0.35506-1.4687 0.3077-1.5015-2.1679-1.5015-2.9978 0-2.9956 0.0124-1.1964-6.2788l1.2493-4.3679 2.4884-0.17098c2.8229-0.19396 3.0446-0.34535 3.5468-2.4224l0.36299-1.5015h-9.3602l-4.101 15.697c-2.2555 8.6335-4.22 16.022-4.3656 16.416-0.19602 0.53295 0.29253 0.67469 1.8821 0.546l2.1469-0.17379zm21.507 6.4074c2.303-1.1538 3.4138-3.2506 5.1073-9.6409 1.1857-4.4738 1.4847-6.4523 1.085-7.1804-0.71354-1.2998-4.1141-1.9261-5.9736-1.1001-0.78626 0.34927-1.5019 0.56442-1.5904 0.4781-0.0884-0.0864 0.41326-2.491 1.1148-5.3439l1.2755-5.1869 4.2184-0.15842c3.8108-0.14316 4.2505-0.27503 4.5502-1.365 0.69985-2.545 0.64284-2.5715-5.5116-2.5715h-5.8588l-0.55088 2.0474c-0.30298 1.1261-1.2066 4.6273-2.008 7.7804-0.80141 3.1531-1.5883 6.1629-1.7486 6.6884-0.2581 0.84612 0.1578 0.95548 3.6334 0.95548 2.1587 0 4.0519 0.20041 4.2072 0.44533 0.31955 0.50409-1.698 8.5471-2.5193 10.043-0.3609 0.65743-1.1875 0.97721-2.526 0.97721h-1.9896l0.37848-2.184 0.37845-2.1839h-1.9393c-1.724 0-1.9782 0.18943-2.2893 1.7062-0.65119 3.1743-0.40112 4.7489 0.89466 5.6338 1.4864 1.015 5.7759 1.1043 7.6619 0.15942zm-386.16-70.545c-0.37181-0.94461 7.4601-32.359 8.3416-33.458 0.36861-0.45984 2.266-0.68249 5.8164-0.68249 5.928 0 6.248 0.21745 5.4134 3.6787-0.47628 1.975-0.60131 2.0648-3.2448 2.3273l-2.7494 0.273-0.99991 3.8219c-0.54995 2.1021-1.0057 3.9914-1.0127 4.1984-6e-3 0.2071 0.93228 0.45279 2.0874 0.546 1.781 0.14378 2.1255 0.38172 2.2669 1.5666 0.0918 0.76837-0.091 2.0583-0.40616 2.8665-0.50456 1.2938-0.87322 1.4694-3.0855 1.4694-2.8394 0-2.2244-1.115-4.9687 9.0088l-1.332 4.9139-2.894 0.16525c-2.2255 0.12706-2.9721-0.0334-3.2324-0.69476zm6.5132-6.0224c0.82326-3.003 1.6685-6.1355 1.8783-6.9614 0.3524-1.3872 0.59365-1.5015 3.1709-1.5015 1.8542 0 2.7921-0.22884 2.7972-0.68249 5e-3 -0.37538 0.15961-1.2353 0.34535-1.9109 0.3145-1.1441 0.16013-1.2285-2.2477-1.2285-1.422 0-2.5792-0.18429-2.5717-0.40951 8e-3 -0.22522 0.5892-2.6207 1.2924-5.3234l1.2786-4.9139 2.4878-0.17096c2.8224-0.19398 3.044-0.34542 3.5461-2.4224l0.363-1.5015h-9.4988l-0.55379 2.0474c-0.30459 1.1261-2.089 8.067-3.9652 15.424-1.8763 7.3573-3.549 13.823-3.7174 14.368-0.2635 0.85344-0.0143 0.96735 1.7959 0.81899l2.102-0.17234zm13.126 6.1193c-0.16521-0.41973 1.0632-6.0639 2.7298-12.542 2.7927-10.856 2.951-11.799 2.0185-12.037-1.8732-0.47757-2.386-5.8364-0.55838-5.8364 0.26261 0 1.7597-0.85994 3.3271-1.9109 3.2524-2.1812 3.5303-2.2339 5.4164-1.0292 0.91902 0.58705 1.3653 1.3626 1.3352 2.3204-0.0249 0.79127-1.852 8.1954-4.0602 16.454l-4.0151 15.015-2.9464 0.16525c-2.1272 0.11933-3.0299-0.0469-3.2467-0.59791zm9.1222-15.814c4.0383-15.38 4.046-15.424 2.9105-16.351-1.0882-0.88882-1.2448-0.85268-3.5477 0.819-1.3251 0.96187-2.8443 1.9951-3.3761 2.2962-0.7189 0.40703-0.86845 0.92912-0.58339 2.0364 0.33057 1.284 0.53626 1.4094 1.4935 0.90988 0.61058-0.31857 1.2246-0.46764 1.3645-0.33128 0.13986 0.13635-1.2383 6.053-3.0626 13.148l-3.3169 12.9 4.0691-6e-3 4.049-15.421zm60.283 15.717c-0.37181-0.94461 7.4601-32.359 8.3416-33.458 0.3686-0.45984 2.266-0.68249 5.8164-0.68249 5.928 0 6.2481 0.21745 5.4134 3.6787-0.47627 1.975-0.6013 2.0648-3.2448 2.3273l-2.7494 0.273-0.99989 3.8219c-0.54996 2.1021-1.0057 3.9914-1.0127 4.1984-6e-3 0.2071 0.93228 0.45279 2.0874 0.546 1.781 0.14378 2.1255 0.38172 2.2669 1.5666 0.0917 0.76837-0.091 2.0583-0.40618 2.8665-0.50456 1.2938-0.87321 1.4694-3.0854 1.4694-2.8394 0-2.2244-1.115-4.9687 9.0088l-1.332 4.9139-2.894 0.16525c-2.2255 0.12706-2.9721-0.0334-3.2324-0.69476zm6.5132-6.0224c0.82326-3.003 1.6685-6.1355 1.8783-6.9614 0.3524-1.3872 0.59365-1.5015 3.1708-1.5015 1.8542 0 2.7921-0.22884 2.7972-0.68249 5e-3 -0.37538 0.15961-1.2353 0.34534-1.9109 0.31449-1.1441 0.16013-1.2285-2.2477-1.2285-1.422 0-2.5792-0.18428-2.5717-0.40951 8e-3 -0.22522 0.5892-2.6207 1.2924-5.3234l1.2786-4.9139 2.4878-0.17096c2.8224-0.19397 3.044-0.34542 3.5462-2.4224l0.363-1.5015h-9.4988l-0.55382 2.0474c-0.30456 1.1261-2.0888 8.067-3.9651 15.424-1.8763 7.3573-3.549 13.823-3.7174 14.368-0.26351 0.85344-0.0143 0.96735 1.7959 0.81899l2.102-0.17234zm11.572 6.4608c-0.57542-0.56099-0.44944-1.918 0.4532-4.8813 0.58624-1.9246 2.3839-4.6124 6.183-9.2444 4.1602-5.0724 5.5488-7.2014 6.2177-9.5338 0.47368-1.6517 0.98451-3.4329 1.1351-3.9584 0.17444-0.60845-0.0357-0.95549-0.57849-0.95549-0.53303 0-0.99212 0.72603-1.2253 1.9377-0.50071 2.6021-1.5794 3.5221-4.1295 3.5221-2.9532 0-3.6249-0.93863-2.8032-3.9167 1.5678-5.6816 3.8454-7.5438 9.2303-7.547 2.1917-1e-3 3.8246 0.30454 4.6556 0.87205 2.3158 1.5814 2.4528 3.0469 0.86272 9.2335l-1.4608 5.6836-10.919 12.873 3.4231 0.27299c3.2353 0.25803 3.418 0.34789 3.3301 1.6379-0.0511 0.75073-0.35995 2.0406-0.68619 2.8665l-0.59314 1.5015h-6.3609c-3.4985 0-6.5289-0.16379-6.7343-0.364zm12.515-1.4105c5e-3 -0.37535 0.1596-1.2353 0.34533-1.9109 0.32493-1.1821 0.19969-1.2285-3.3155-1.2285-3.3115 0-3.6271-0.0969-3.3752-1.036 0.15288-0.56976 2.5365-3.681 5.297-6.9138 2.7605-3.2328 5.2397-6.2796 5.5092-6.7707 0.73712-1.3428 2.8118-9.5607 2.8118-11.138 0-1.8684-1.9431-3.0794-4.9403-3.0794-4.6801 0-7.3066 2.2336-8.2956 7.0542-0.33317 1.624-0.27734 1.6816 1.6319 1.6816 1.8344 0 2.0314-0.1674 2.7302-2.3205 0.56509-1.741 1.078-2.3653 2.0539-2.5001 2.7913-0.38556 2.9284 0.045 1.5807 4.9656-1.1633 4.247-1.6 4.9844-6.1433 10.37-4.621 5.4776-6.4986 8.5566-7.3218 12.007l-0.35822 1.5015h5.891c4.3354 0 5.8931-0.18023 5.8986-0.68249zm59.006 0.97197c-0.3718-0.94461 7.4601-32.359 8.3416-33.458 0.3686-0.45983 2.266-0.68249 5.8164-0.68249 5.928 0 6.2481 0.21745 5.4134 3.6787-0.47628 1.975-0.6013 2.0648-3.2448 2.3273l-2.7494 0.273-0.99992 3.8219c-0.54994 2.1021-1.0057 3.9913-1.0127 4.1984-6e-3 0.2071 0.93225 0.4528 2.0874 0.546 1.781 0.14378 2.1255 0.38173 2.2669 1.5666 0.0918 0.76837-0.091 2.0583-0.40615 2.8665-0.50457 1.2938-0.87323 1.4694-3.0854 1.4694-2.8394 0-2.2244-1.115-4.9687 9.0088l-1.3321 4.9139-2.894 0.16525c-2.2255 0.12707-2.9721-0.0334-3.2324-0.69476zm6.5132-6.0224c0.82328-3.003 1.6684-6.1355 1.8783-6.9614 0.35241-1.3872 0.59365-1.5015 3.1709-1.5015 1.8542 0 2.7921-0.22885 2.7972-0.68249 5e-3 -0.37538 0.1596-1.2353 0.34533-1.9109 0.3145-1.1441 0.16014-1.2285-2.2477-1.2285-1.422 0-2.5792-0.18428-2.5716-0.4095 8e-3 -0.22522 0.58919-2.6207 1.2924-5.3234l1.2786-4.9139 2.4878-0.17096c2.8224-0.19397 3.044-0.34541 3.5461-2.4224l0.36299-1.5015h-9.4988l-0.55382 2.0474c-0.30459 1.1261-2.0888 8.067-3.9651 15.424-1.8763 7.3573-3.5492 13.823-3.7174 14.368-0.2635 0.85343-0.0143 0.96734 1.7959 0.81898l2.102-0.17233zm12.558 5.4695c-1.3628-1.3286-1.4766-1.7446-1.1979-4.3775 0.49007-4.6291 1.0586-5.2716 4.4939-5.0778l2.9054 0.16385-0.1551 2.3633c-0.13208 2.0125-8e-3 2.3356 0.83907 2.1767 0.68128-0.12799 1.2888-1.2154 1.9304-3.4554 1.2508-4.367 1.2468-5.1797-0.0257-5.1797-1.7478 0-2.2317-1.1302-1.5183-3.5465 0.52574-1.7805 0.94325-2.2321 2.2714-2.457 1.4897-0.25216 1.7105-0.59722 2.6124-4.0816 0.54181-2.0934 0.88371-3.905 0.75974-4.0259-0.63277-0.61691-1.8374 0.57603-2.1574 2.1368-0.19964 0.97316-0.64435 2.0999-0.98826 2.5039-0.70562 0.82892-4.2718 0.97488-5.4876 0.22462-1.3286-0.81979 0.21264-6.2778 2.4428-8.6502 1.5694-1.6695 2.2341-1.962 4.9587-2.1824 4.8446-0.39167 6.96 0.17787 8.0094 2.1562 0.83257 1.5697 0.81065 2.0433-0.32112 6.9369-0.66808 2.8888-1.6624 5.8688-2.2098 6.6227-0.74863 1.0311-0.84847 1.5971-0.40321 2.2852 0.43752 0.67622 0.24743 2.2406-0.72909 6.0004-1.5389 5.9249-2.1817 7.3238-4.2176 9.1784-1.2798 1.1658-2.133 1.391-5.9012 1.5579-4.1619 0.18426-4.4883 0.11391-5.911-1.2731zm9.7875-0.42718c2.1825-1.0934 3.281-3.091 4.7249-8.5912 1.4175-5.4001 1.2691-7.0765-0.6303-7.1197-0.68616-0.0156-0.54271-0.24316 0.50242-0.79694 1.6145-0.85544 2.2711-2.181 3.5552-7.177 1.6737-6.5111 0.77105-8.384-4.0405-8.384-4.8479 0-7.0361 1.736-8.431 6.6883l-0.57668 2.0475h2.0788c1.9906 0 2.1074-0.10432 2.7529-2.457 0.62819-2.2898 0.80116-2.457 2.543-2.457 1.0279 0 2.0079 0.13542 2.1777 0.30104 0.40823 0.39799-1.7346 8.5143-2.4793 9.3903-0.31907 0.37537-1.1793 0.68249-1.9117 0.68249-0.73234 0-1.335 0.30713-1.3392 0.68249-5e-3 0.37537-0.15961 1.2353-0.34533 1.9109-0.28797 1.0476-0.11938 1.2285 1.1453 1.2285 0.81564 0 1.5996 0.30713 1.7421 0.68251 0.14256 0.37536-0.30643 2.7708-0.99765 5.3234l-1.2567 4.6409-2.3801 0.16789c-2.6057 0.18379-2.7416-0.0384-1.8593-3.038l0.52092-1.7709h-2.1545c-2.1307 0-2.1612 0.0302-2.7522 2.717-0.67889 3.0862-0.12414 5.238 1.4531 5.6365 2.0668 0.52219 6.6556 0.34449 7.9582-0.30821zm60.747 0.98002c-0.3718-0.94461 7.4601-32.359 8.3416-33.458 0.36862-0.45983 2.2662-0.68249 5.8164-0.68249 5.928 0 6.2481 0.21745 5.4134 3.6787-0.47628 1.975-0.6013 2.0648-3.2448 2.3273l-2.7494 0.273-0.99992 3.8219c-0.54995 2.1021-1.0057 3.9913-1.0127 4.1984-6e-3 0.2071 0.93225 0.4528 2.0874 0.546 1.781 0.14378 2.1255 0.38173 2.2669 1.5666 0.0917 0.76837-0.091 2.0583-0.40617 2.8665-0.50457 1.2938-0.87323 1.4694-3.0854 1.4694-2.8394 0-2.2244-1.115-4.9687 9.0088l-1.332 4.9139-2.894 0.16525c-2.2255 0.12707-2.9721-0.0334-3.2324-0.69476zm6.5132-6.0224c0.82326-3.003 1.6685-6.1355 1.8783-6.9614 0.35239-1.3872 0.59365-1.5015 3.1709-1.5015 1.8542 0 2.7921-0.22885 2.7972-0.68249 5e-3 -0.37538 0.15961-1.2353 0.34533-1.9109 0.3145-1.1441 0.16015-1.2285-2.2477-1.2285-1.422 0-2.5792-0.18428-2.5717-0.4095 8e-3 -0.22522 0.58919-2.6207 1.2924-5.3234l1.2786-4.9139 2.4878-0.17096c2.8224-0.19397 3.044-0.34541 3.5462-2.4224l0.36299-1.5015h-9.4988l-0.5538 2.0474c-0.30459 1.1261-2.089 8.067-3.9652 15.424-1.8762 7.3573-3.549 13.823-3.7174 14.368-0.26352 0.85343-0.0143 0.96734 1.7959 0.81898l2.102-0.17233zm18.116 5.9933c-0.18001-0.45734-0.0729-1.8086 0.23805-3.003l0.56533-2.1714h-2.9521c-3.5034 0-4.4896-0.83397-4.0573-3.4309 0.16329-0.981 3.1829-7.06 6.7102-13.509l6.4132-11.725 3.2102-0.16512c1.7656-0.0908 3.5364 0.0989 3.9352 0.42148 0.5836 0.47221 0.18755 2.6744-2.0306 11.291-2.7083 10.521-2.7365 10.717-1.6496 11.459 1.0077 0.68816 1.0451 0.96102 0.42091 3.0702-0.50432 1.704-1.0088 2.3605-1.9114 2.4879-0.9101 0.12831-1.3878 0.76186-1.8526 2.457-0.34445 1.2562-0.88452 2.5912-1.2001 2.9665-0.8439 1.0037-5.4318 0.88656-5.8394-0.14904zm5.7069-3.2635c0.76818-2.5761 1.0888-3.003 2.2558-3.003 0.74819 0 1.3638-0.30712 1.368-0.68249 5e-3 -0.37538 0.15961-1.2353 0.34533-1.9109 0.27233-0.99074 0.10827-1.2285-0.84769-1.2285-0.65197 0-1.1854-0.13186-1.1854-0.29295 0-0.16111 1.2601-5.189 2.8002-11.173 1.5401-5.984 2.8002-11.012 2.8002-11.173 0-0.16096-1.1971-0.28885-2.6602-0.28382l-2.6602 9e-3 -6.3004 11.66c-4.1356 7.6535-6.3004 12.247-6.3004 13.368v1.7079h7.179l-0.78272 2.8665c-0.4305 1.5765-0.78572 2.9279-0.78937 3.003-3e-3 0.0751 0.86836 0.13651 1.9378 0.13651 1.875 0 1.9764-0.10726 2.8399-3.003zm-1.9542-15.619c2.4843-4.8369 4.6172-8.6965 4.7398-8.577 0.12256 0.11948-0.90044 3.9596-2.2734 8.5337-1.373 4.574-2.4965 8.4337-2.4965 8.577 0 0.14332-1.0095 0.26068-2.2434 0.26068h-2.2434zm-0.90784 6.6104c0.90525-3.1109 0.863-3.4577-0.19957-1.6379-1.2592 2.1566-1.3938 2.73-0.64046 2.73 0.28726 0 0.66526-0.49138 0.84003-1.092zm62.13 12.301c-0.37181-0.94461 7.4601-32.359 8.3416-33.458 0.36861-0.45984 2.266-0.68249 5.8164-0.68249 5.928 0 6.248 0.21745 5.4134 3.6787-0.47628 1.975-0.60131 2.0648-3.2448 2.3273l-2.7494 0.273-0.99989 3.8219c-0.54996 2.1021-1.0057 3.9914-1.0127 4.1984-6e-3 0.2071 0.93228 0.45279 2.0874 0.546 1.781 0.14378 2.1255 0.38172 2.2669 1.5666 0.0917 0.76837-0.091 2.0583-0.40618 2.8665-0.50456 1.2938-0.87323 1.4694-3.0854 1.4694-2.8394 0-2.2244-1.115-4.9687 9.0088l-1.3321 4.9139-2.894 0.16525c-2.2255 0.12706-2.9721-0.0334-3.2324-0.69476zm6.5132-6.0224c0.82325-3.003 1.6684-6.1355 1.8783-6.9614 0.35241-1.3872 0.59366-1.5015 3.1708-1.5015 1.8542 0 2.7921-0.22884 2.7972-0.68249 5e-3 -0.37538 0.15961-1.2353 0.34534-1.9109 0.3145-1.1441 0.16013-1.2285-2.2477-1.2285-1.422 0-2.5792-0.18429-2.5717-0.40951 8e-3 -0.22522 0.5892-2.6207 1.2924-5.3234l1.2786-4.9139 2.4878-0.17096c2.8224-0.19398 3.044-0.34542 3.5461-2.4224l0.363-1.5015h-9.4988l-0.55381 2.0474c-0.30457 1.1261-2.0888 8.067-3.9651 15.424-1.8763 7.3573-3.549 13.823-3.7174 14.368-0.26351 0.85344-0.0143 0.96735 1.7959 0.81899l2.102-0.17234zm13.616 6.2751c-1.8296-0.71869-2.594-2.5481-2.209-5.2869 0.57342-4.0786 1.1131-4.616 4.4472-4.428l2.9054 0.16386-0.12335 2.0474c-0.2131 3.54 1.2755 2.4888 2.3196-1.6379 0.51287-2.027 1.0645-4.1155 1.2259-4.6409 0.26003-0.84683-0.15669-0.95548-3.6646-0.95548-3.5996 0-3.9579-0.1-3.9579-1.1046 0-1.648 3.9995-17.079 4.6314-17.868 0.38243-0.47797 2.5446-0.68249 7.2155-0.68249 7.5325 0 7.9025 0.20961 6.5408 3.706l-0.78938 2.027-8.0476 0.32024-0.56718 2.0536c-0.31198 1.1295-0.72827 2.8388-0.92514 3.7984-0.35471 1.7291-0.33789 1.7447 1.8767 1.7447 2.8072 0 5.1859 1.6884 5.1859 3.6807 0 1.8445-2.7191 11.982-3.7422 13.952-1.2684 2.4423-3.8728 3.6622-7.7384 3.6247-1.8482-0.0179-3.9108-0.24883-4.5837-0.51315zm8.1699-1.2327c2.2752-1.14 3.4246-3.252 5.1444-9.4542 1.8386-6.6305 1.6732-8.1133-0.9774-8.762-0.83891-0.20527-2.453-0.13186-3.5869 0.16327l-2.0617 0.53648 0.78891-3.3178c0.43389-1.8247 1.0411-4.2391 1.3493-5.3652l0.56046-2.0474h8.1694l1.2032-3.8219h-12.173l-0.55087 2.0474c-0.30298 1.1261-1.2066 4.6273-2.008 7.7804-0.80143 3.1531-1.5883 6.1629-1.7486 6.6884-0.2578 0.84512 0.15494 0.95549 3.5731 0.95549 2.1255 0 4.003 0.13496 4.1722 0.29984 0.32628 0.31809-1.9358 9.5076-2.5973 10.551-0.45564 0.71876-3.4803 0.83216-3.9148 0.14672-0.16326-0.25755-0.0697-1.2403 0.20785-2.184 0.50295-1.7097 0.49724-1.7158-1.631-1.7158-2.3687 0-2.8044 0.69146-2.8187 4.4734-6e-3 1.4702 0.32952 2.2468 1.237 2.8665 1.4864 1.015 5.7759 1.1043 7.6619 0.15941zm-498.35-56.057c-0.88588-0.86367-0.99381-1.389-0.58889-2.8665 0.27268-0.99493 3.9286-14.34 8.1243-29.654 4.1957-15.315 8.0084-28.419 8.4729-29.12 1.8396-2.7756 2.3906-2.8208 34.341-2.8208 28.63 0 29.738 0.0381 30.785 1.0575 0.88533 0.86314 0.99382 1.39 0.59027 2.8665-11.962 43.766-15.907 57.734-16.597 58.774-1.8431 2.7758-2.3924 2.8208-34.342 2.8208-28.63 0-29.738-0.0381-30.785-1.0575zm42.55-16.192c0.70604-0.68909 1.7075-3.1813 2.5232-6.2788 1.6664-6.3285 1.7129-7.6094 0.28913-7.9723-1.0257-0.26152-1.0105-0.34175 0.27511-1.4504 1.0126-0.87318 1.702-2.5709 2.6933-6.6334 0.76643-3.1406 1.16-5.9238 0.92655-6.5518-0.6343-1.7063-2.7495-2.4402-7.0586-2.4489l-3.9694-8e-3 -4.101 15.697c-2.2555 8.6335-4.2226 16.028-4.3715 16.432-0.21844 0.59304 0.87441 0.69816 5.6759 0.546 5.1357-0.16275 6.106-0.34422 7.1172-1.3311zm-7.8365-2.7858c0.0143-0.24168 0.60421-2.5278 1.3107-5.0803l1.2846-4.6409 2.2585-0.16451c2.9977-0.21836 3.208 0.50181 1.678 5.7484l-1.2376 4.2439-2.6602 0.16642c-1.4631 0.0915-2.6484-0.0314-2.634-0.273zm3.9367-14.739c0.0235-0.54365 0.60462-2.9539 1.2915-5.3564 1.2057-4.2168 1.3109-4.3738 3.0415-4.5392 2.5025-0.23926 2.678 0.69075 1.1356 6.0177l-1.3109 4.5275-2.1001 0.16946c-1.7294 0.1396-2.0926-5e-3 -2.0576-0.819zm50.955 33.716c-0.88589-0.86367-0.99383-1.389-0.5889-2.8665 0.27268-0.99493 3.9286-14.34 8.1243-29.654 4.1957-15.315 8.0084-28.419 8.4729-29.12 1.8396-2.7756 2.3906-2.8208 34.341-2.8208 28.63 0 29.738 0.0381 30.785 1.0575 0.88533 0.86314 0.99382 1.39 0.59028 2.8665-11.962 43.766-15.907 57.734-16.597 58.774-1.8431 2.7758-2.3924 2.8208-34.342 2.8208-28.63 0-29.738-0.0381-30.785-1.0575zm41.207-30.352c3.9098-15.285 3.9636-15.59 2.8753-16.334-0.9921-0.67745-1.3606-0.57496-3.4911 0.97095-1.31 0.95061-2.7832 1.9741-3.2737 2.2743-0.61163 0.37445-0.79342 1.0135-0.57861 2.034 0.27064 1.2858 0.46344 1.4096 1.4186 0.91124 0.60796-0.31722 1.2516-0.43413 1.4304-0.25986 0.17877 0.17429-1.1968 6.091-3.0569 13.148l-3.3818 12.831h4.0732zm48.398 30.352c-0.88589-0.86367-0.99382-1.389-0.5889-2.8665 0.27268-0.99493 3.9286-14.34 8.1243-29.654 4.1957-15.315 8.0084-28.419 8.4729-29.12 1.8396-2.7756 2.3906-2.8208 34.341-2.8208 28.63 0 29.738 0.0381 30.785 1.0575 0.88533 0.86314 0.99382 1.39 0.59028 2.8665-11.962 43.766-15.907 57.734-16.597 58.774-1.8431 2.7758-2.3924 2.8208-34.342 2.8208-28.63 0-29.738-0.0381-30.785-1.0575zm43.094-15.459c5e-3 -0.37535 0.1596-1.2353 0.34534-1.9109 0.32527-1.1834 0.20162-1.2285-3.3679-1.2285-2.038 0-3.7055-0.1912-3.7055-0.42491 0-0.61457 1.911-3.1308 7.0618-9.2985 4.3112-5.1623 4.6048-5.6876 5.7875-10.354 0.68523-2.7037 1.1617-5.49 1.0587-6.1918-0.26748-1.8233-2.4603-2.7512-5.9318-2.5096-4.1837 0.29105-6.0563 2.083-7.1093 6.8027-0.38516 1.7265-0.34497 1.7744 1.486 1.7744 1.7115 0 1.9563-0.21002 2.7046-2.3205 0.60795-1.7145 1.1624-2.3674 2.1236-2.5001 2.7892-0.38527 2.9281 0.0463 1.5886 4.9368-1.1484 4.1927-1.6275 5.0059-6.2087 10.54-4.7425 5.7288-6.4754 8.5594-7.2644 11.866l-0.35823 1.5015h5.891c4.3354 0 5.8931-0.18023 5.8987-0.6825zm46.51 15.459c-0.88588-0.86367-0.99382-1.389-0.58889-2.8665 0.27268-0.99493 3.9286-14.34 8.1243-29.654 4.1957-15.315 8.0084-28.419 8.4729-29.12 1.8396-2.7756 2.3906-2.8208 34.341-2.8208 28.63 0 29.738 0.0381 30.785 1.0575 0.88532 0.86314 0.99381 1.39 0.59028 2.8665-11.962 43.766-15.907 57.734-16.597 58.774-1.8431 2.7758-2.3924 2.8208-34.342 2.8208-28.63 0-29.738-0.0381-30.785-1.0575zm41.102-15.55c2.5644-1.0446 3.3544-2.4132 4.95-8.5754 1.4075-5.436 1.271-7.0097-0.61198-7.0528-0.65373-0.0155-0.47331-0.27525 0.57555-0.83014 1.5134-0.80065 1.8024-1.4705 3.7563-8.7028 1.3437-4.9738 0.17569-6.8249-4.3066-6.8249-4.8479 0-7.0361 1.736-8.431 6.6884l-0.57668 2.0474h2.0788c1.9906 0 2.1074-0.10431 2.7529-2.457 0.62819-2.2898 0.80114-2.457 2.543-2.457 2.8765 0 2.8511-0.31367 0.60678 7.5074-0.75619 2.6351-0.95695 2.8665-2.487 2.8665-0.95415 0-1.6677 0.29126-1.6721 0.68249-5e-3 0.37537-0.1596 1.2353-0.34534 1.9109-0.28795 1.0476-0.11937 1.2285 1.1453 1.2285 0.81564 0 1.6215 0.35193 1.7908 0.78207 0.16931 0.43015-0.28651 2.8256-1.0129 5.3234l-1.3208 4.5414-4.8676 0.34235 0.7665-4.9833h-1.8983c-1.8218 0-1.9247 0.11143-2.5535 2.7676-0.70266 2.9678-0.32362 4.375 1.4498 5.3822 1.4173 0.80503 5.4751 0.70586 7.6681-0.1874zm48.504 15.55c-0.88588-0.86367-0.99382-1.389-0.5889-2.8665 0.27269-0.99493 3.9286-14.34 8.1243-29.654 4.1958-15.315 8.0084-28.419 8.4729-29.12 1.8396-2.7756 2.3906-2.8208 34.341-2.8208 28.63 0 29.738 0.0381 30.785 1.0575 0.88533 0.86314 0.99382 1.39 0.59028 2.8665-11.962 43.766-15.907 57.734-16.597 58.774-1.8431 2.7758-2.3924 2.8208-34.342 2.8208-28.63 0-29.738-0.0381-30.785-1.0575zm42.534-17.097c0.93789-3.5721 1.0051-3.6854 2.1834-3.6854 1.2482 0 1.4276-0.21406 1.944-2.3205 0.30909-1.2607 0.1868-1.5015-0.76262-1.5015-0.6219 0-1.1307-0.29121-1.1307-0.64714 0-0.35592 1.2601-5.371 2.8002-11.145 1.5401-5.7737 2.8002-10.642 2.8002-10.819 0-0.17667-1.1971-0.31505-2.6602-0.3075l-2.6602 0.0139-6.3004 11.654c-4.1399 7.6574-6.3004 12.24-6.3004 13.363v1.7093h7.179l-0.78271 2.8665c-0.43048 1.5765-0.7857 2.9279-0.78935 3.003-3e-3 0.0751 0.86568 0.13651 1.9318 0.13651 1.8116 0 1.9783-0.15183 2.5478-2.3205zm-1.6561-16.302c2.4843-4.8368 4.6269-8.687 4.7614-8.556s-0.88861 4.011-2.2734 8.6219c-1.3849 4.6109-2.5179 8.4611-2.5179 8.556 0 0.0949-1.0096 0.1725-2.2434 0.1725h-2.2434zm48.728 33.399c-0.88587-0.86367-0.99381-1.389-0.58889-2.8665 0.27268-0.99493 3.9286-14.34 8.1243-29.654 4.1958-15.315 8.0084-28.419 8.4729-29.12 1.8396-2.7756 2.3906-2.8208 34.341-2.8208 28.63 0 29.738 0.0381 30.785 1.0575 0.88532 0.86314 0.99381 1.39 0.59027 2.8665-11.962 43.766-15.907 57.734-16.597 58.774-1.8431 2.7758-2.3924 2.8208-34.342 2.8208-28.63 0-29.738-0.0381-30.785-1.0575zm40.792-15.467c2.303-1.1538 3.4137-3.2506 5.1073-9.6409 1.1857-4.4738 1.4847-6.4523 1.085-7.1804-0.71355-1.2998-4.1141-1.9261-5.9736-1.1001-0.78629 0.34927-1.5019 0.56441-1.5904 0.4781-0.0884-0.0864 0.41325-2.491 1.1148-5.3439l1.2755-5.1869 4.2184-0.15843c3.8108-0.14316 4.2505-0.27502 4.5502-1.365 0.69987-2.5449 0.64286-2.5715-5.5116-2.5715h-5.8588l-0.55088 2.0474c-0.30299 1.1261-1.2066 4.6273-2.008 7.7804-0.80144 3.1531-1.5883 6.1629-1.7486 6.6884-0.2581 0.84612 0.15779 0.95548 3.6334 0.95548 2.1587 0 4.0519 0.2004 4.2072 0.44534 0.31955 0.50407-1.698 8.5471-2.5194 10.043-0.36091 0.65743-1.1875 0.9772-2.526 0.9772h-1.9896l0.37848-2.184 0.37846-2.184h-1.9393c-1.724 0-1.9782 0.18943-2.2893 1.7062-0.6512 3.1743-0.40115 4.7488 0.89465 5.6338 1.4865 1.015 5.7759 1.1043 7.6619 0.1594zm48.812 15.467c-0.88589-0.86367-0.99382-1.389-0.5889-2.8665 0.27269-0.99493 3.9286-14.34 8.1243-29.654 4.1958-15.315 8.0084-28.419 8.4729-29.12 1.8396-2.7756 2.3906-2.8208 34.341-2.8208 28.63 0 29.738 0.0381 30.785 1.0575 0.8854 0.86314 0.9938 1.39 0.5903 2.8665-11.962 43.766-15.907 57.734-16.597 58.774-1.8431 2.7758-2.3924 2.8208-34.342 2.8208-28.63 0-29.738-0.0381-30.785-1.0575zm25.446-20.782 1.5283-6.006h2.7738c2.3789 0 2.7324 0.13605 2.4835 0.9555-0.7085 2.3325-2.5854 9.9295-2.5854 10.465 0 0.32534 0.85158 0.59153 1.8924 0.59153h1.8923l3.7625-14.69c2.3355-9.1185 3.6174-15.136 3.3801-15.865-0.48001-1.4745-2.4079-2.2066-5.7834-2.1962-3.0637 9e-3 -4.8944 0.80336-6.3938 2.7728-0.83261 1.0938-8.1769 27.399-8.2558 29.569-8e-3 0.22522 0.83831 0.40951 1.881 0.40951h1.896zm4.181-15.76c0.84671-3.2625 1.7164-6.2109 1.9325-6.5518 0.59626-0.94057 4.2216-0.77414 4.6096 0.21159 0.29021 0.73728-0.26903 3.4692-2.093 10.225-0.54284 2.0106-0.60164 2.0474-3.2707 2.0474h-2.7178zm17.588 20.538c0.64735-2.355 0.44803-2.5935-2.1671-2.5935-1.3861 0-2.5202-0.0751-2.5202-0.16684 0-0.0918 1.635-6.4184 3.6335-14.059 1.9983-7.6408 3.6365-14.077 3.6403-14.302 0.01-0.22521-0.83438-0.40948-1.8624-0.40948h-1.8693l-4.1008 15.697c-2.2555 8.6335-4.2134 16.005-4.351 16.379-0.18744 0.51155 0.94086 0.68251 4.5048 0.68251 4.4575 0 4.776-0.0768 5.0925-1.2285zm8.668-3.003c0.6366-2.3273 2.3336-8.8383 3.7713-14.469l2.6138-10.237h2.1544c1.9604 0 2.1971-0.15986 2.6271-1.7744l0.4727-1.7744-6.1312-0.15507c-3.3722-0.0853-6.1944-0.0853-6.2716 0-0.077 0.0853-0.3157 0.95358-0.5302 1.9295-0.3829 1.7422-0.3536 1.7744 1.6147 1.7744 1.1025 0 2.0046 0.15337 2.0046 0.34083s-1.6381 6.5358-3.6401 14.108c-2.0021 7.5716-3.6403 13.929-3.6403 14.128 0 0.19874 0.8545 0.36134 1.8988 0.36134 1.8955 0 1.9009-8e-3 3.0561-4.2314zm-564.78-67.032c-0.36411-0.92506 7.488-32.351 8.3529-33.43 0.36383-0.45389 2.198-0.68249 5.4759-0.68249 4.4855 0 5.0838 0.12707 6.6518 1.4135 1.2177 0.9989 1.7231 1.8931 1.7231 3.0485 0 2.1377-2.1148 10.244-3.0378 11.645-0.50832 0.7712-0.55833 1.4434-0.17018 2.2882 0.40023 0.87119 0.20671 2.5775-0.71209 6.279-2.4076 9.6994-3.0756 10.27-12.03 10.27-4.7895 0-5.9885-0.15938-6.2528-0.83126zm14.047-1.9682c0.7267-0.82433 1.7775-3.4284 2.4706-6.1227 1.5184-5.9024 1.5426-7.4741 0.12033-7.8367-1.0235-0.26096-1.007-0.34413 0.28824-1.4504 1.0069-0.85996 1.7415-2.5978 2.7494-6.5037 2.0407-7.9086 1.1729-9.1386-6.447-9.1386h-3.8622l-0.5538 2.0474c-0.30458 1.1261-2.089 8.067-3.9652 15.424-1.8762 7.3573-3.5514 13.83-3.7224 14.383-0.29118 0.94223 0.0722 0.99468 5.6732 0.81898 5.6531-0.17733 6.0542-0.26711 7.2488-1.6221zm-8.084-2.2321c0-0.18305 2.0599-7.6037 2.5817-9.3009 0.2029-0.65986 0.8674-0.95548 2.1476-0.95548 2.8661 0 3.1121 0.79515 1.7744 5.733l-1.1834 4.3679-2.6602 0.16642c-1.4631 0.0915-2.6602 0.0865-2.6602-0.0108zm4.9634-3.8409c0.36381-1.5765 0.81133-3.4193 0.99449-4.0949 0.26718-0.98552 0.10176-1.2285-0.83669-1.2285-0.94638 0-1.3415 0.59947-2.0693 3.1395-0.49473 1.7268-1.0228 3.5694-1.1734 4.0949-0.20624 0.71941 0.0594 0.95548 1.0748 0.95548 1.1696 0 1.4365-0.38052 2.0101-2.8665zm-1.0294-10.647c8e-3 -0.22522 0.58904-2.6207 1.2921-5.3234 1.2554-4.8257 1.3104-4.917 3.0702-5.0852 2.357-0.22543 2.6354 0.62944 1.502 4.6118-1.6719 5.8744-1.8852 6.2064-3.9859 6.2064-1.0407 0-1.8859-0.18426-1.8783-0.40949zm4.0016-4.2746c1.1414-3.9452 1.2364-5.3035 0.35094-5.0158-0.37067 0.12042-1.121 1.9222-1.6673 4.0039-1.1956 4.5553-1.2099 4.7564-0.31892 4.4697 0.38502-0.12381 1.1209-1.6799 1.6353-3.458zm79.116 23.088c-0.16521-0.41974 1.0632-6.0639 2.7299-12.542 2.7927-10.856 2.951-11.799 2.0185-12.037-1.8732-0.47759-2.386-5.8364-0.55838-5.8364 0.26262 0 1.7597-0.85994 3.3271-1.9109 3.2524-2.1812 3.5303-2.2339 5.4164-1.0292 0.91902 0.58704 1.3653 1.3626 1.3352 2.3204-0.0249 0.79127-1.852 8.1953-4.0602 16.454l-4.0151 15.015-2.9464 0.16525c-2.1272 0.11932-3.0299-0.0469-3.2467-0.59791zm9.1222-15.814c4.0383-15.38 4.046-15.424 2.9105-16.351-1.0882-0.88883-1.2448-0.8527-3.5477 0.81898-1.3251 0.96187-2.8443 1.9951-3.3761 2.2962-0.7189 0.40703-0.86845 0.92912-0.58339 2.0364 0.33057 1.284 0.53626 1.4093 1.4935 0.90989 0.61058-0.31858 1.2246-0.46766 1.3645-0.33129 0.13985 0.13635-1.2383 6.053-3.0626 13.148l-3.3169 12.9 4.0691-6e-3 4.0491-15.421zm78.929 16.155c-0.57542-0.56099-0.44942-1.918 0.45321-4.8813 0.58625-1.9246 2.3839-4.6124 6.183-9.2445 4.1602-5.0724 5.5488-7.2014 6.2177-9.5338 0.47369-1.6517 0.98452-3.4329 1.1352-3.9584 0.17443-0.60845-0.0357-0.95549-0.5785-0.95549-0.53304 0-0.99211 0.72604-1.2253 1.9377-0.50071 2.6021-1.5794 3.5222-4.1295 3.5222-2.9532 0-3.6249-0.93863-2.8032-3.9167 1.5678-5.6816 3.8454-7.5438 9.2303-7.547 2.1917-1e-3 3.8246 0.30454 4.6556 0.87205 2.3158 1.5814 2.4528 3.0469 0.86273 9.2335l-1.4608 5.6836-10.919 12.873 3.4231 0.27299c3.2353 0.25802 3.418 0.34788 3.3301 1.6379-0.0513 0.75074-0.35995 2.0406-0.68618 2.8665l-0.59315 1.5015h-6.3609c-3.4985 0-6.5289-0.16379-6.7343-0.36398zm12.515-1.4105c5e-3 -0.37537 0.1596-1.2353 0.34534-1.9109 0.32493-1.1821 0.19969-1.2285-3.3155-1.2285-3.3115 0-3.6271-0.0969-3.3752-1.036 0.15287-0.56977 2.5365-3.681 5.297-6.9138 2.7605-3.2328 5.2397-6.2796 5.5092-6.7707 0.73712-1.3428 2.8118-9.5607 2.8118-11.138 0-1.8684-1.9431-3.0794-4.9403-3.0794-4.6801 0-7.3066 2.2336-8.2956 7.0544-0.33316 1.624-0.27733 1.6816 1.632 1.6816 1.8344 0 2.0314-0.16741 2.7302-2.3204 0.56509-1.741 1.0781-2.3653 2.0541-2.5002 2.7913-0.38556 2.9284 0.045 1.5807 4.9656-1.1633 4.247-1.6 4.9844-6.1433 10.37-4.621 5.4776-6.4986 8.5566-7.3218 12.007l-0.35823 1.5015h5.891c4.3354 0 5.8931-0.18023 5.8987-0.68248zm78.076 0.41912c-1.3628-1.3286-1.4766-1.7446-1.1979-4.3775 0.49007-4.6292 1.0586-5.2716 4.4939-5.078l2.9054 0.16387-0.1551 2.3633c-0.13208 2.0125-8e-3 2.3356 0.83908 2.1767 0.6813-0.12798 1.2888-1.2154 1.9304-3.4554 1.2508-4.367 1.2468-5.1797-0.0257-5.1797-1.7478 0-2.2317-1.1302-1.5183-3.5465 0.52571-1.7805 0.94324-2.2321 2.2714-2.457 1.4897-0.25215 1.7105-0.5972 2.6124-4.0816 0.54182-2.0934 0.88372-3.905 0.75975-4.0259-0.63276-0.6169-1.8374 0.57603-2.1576 2.1368-0.19963 0.97316-0.64432 2.0999-0.98824 2.5039-0.70564 0.82893-4.2718 0.97488-5.4876 0.22461-1.3286-0.81977 0.21265-6.2778 2.4428-8.6502 1.5694-1.6695 2.2341-1.962 4.9587-2.1824 4.8446-0.39169 6.96 0.17785 8.0094 2.1562 0.83258 1.5697 0.81065 2.0433-0.32112 6.9369-0.66808 2.8888-1.6624 5.8688-2.2098 6.6227-0.74863 1.0311-0.84848 1.5971-0.40323 2.2852 0.43753 0.67621 0.24745 2.2406-0.72908 6.0004-1.5389 5.9249-2.1817 7.3238-4.2176 9.1784-1.2798 1.1658-2.133 1.391-5.9012 1.5579-4.1619 0.18427-4.4883 0.11391-5.911-1.2731zm9.7875-0.42717c2.1825-1.0935 3.281-3.091 4.7248-8.5912 1.4175-5.4 1.2691-7.0765-0.63028-7.1197-0.68617-0.0156-0.54272-0.24314 0.50243-0.79694 1.6145-0.85543 2.2711-2.181 3.5552-7.177 1.6737-6.5112 0.77104-8.384-4.0405-8.384-4.8479 0-7.0361 1.736-8.431 6.6884l-0.57668 2.0474h2.0788c1.9906 0 2.1074-0.10432 2.7529-2.457 0.62819-2.2898 0.80114-2.457 2.543-2.457 1.0279 0 2.0079 0.13542 2.1777 0.30103 0.40822 0.398-1.7347 8.5143-2.4793 9.3903-0.31908 0.37538-1.1793 0.68249-1.9117 0.68249s-1.335 0.30712-1.3392 0.6825c-5e-3 0.37536-0.15961 1.2353-0.34534 1.9109-0.28795 1.0476-0.11937 1.2285 1.1453 1.2285 0.81564 0 1.5996 0.30711 1.7421 0.68249 0.14256 0.37537-0.30643 2.771-0.99762 5.3234l-1.2568 4.6409-2.3801 0.16789c-2.6057 0.18381-2.7416-0.0384-1.8593-3.038l0.52095-1.7709h-2.1547c-2.1307 0-2.1612 0.0302-2.7522 2.717-0.6789 3.0862-0.12415 5.238 1.4531 5.6365 2.0668 0.52221 6.6556 0.34448 7.9583-0.3082zm85.377 0.95099c-0.18001-0.45735-0.0729-1.8086 0.23804-3.003l0.56534-2.1714h-2.9521c-3.5034 0-4.4896-0.83398-4.0573-3.4309 0.16329-0.981 3.1829-7.06 6.7102-13.509l6.4132-11.725 3.2102-0.16511c1.7656-0.0908 3.5365 0.0989 3.9352 0.42148 0.58358 0.47219 0.18752 2.6744-2.0306 11.291-2.7083 10.521-2.7365 10.717-1.6496 11.459 1.0078 0.68816 1.0452 0.961 0.42091 3.0702-0.50431 1.704-1.0087 2.3605-1.9113 2.4879-0.91011 0.12846-1.3878 0.76188-1.8526 2.457-0.34447 1.2562-0.88452 2.5912-1.2002 2.9665-0.8439 1.0037-5.4318 0.88656-5.8394-0.14904zm5.7069-3.2635c0.76817-2.5761 1.0888-3.003 2.2558-3.003 0.74819 0 1.3638-0.30713 1.368-0.68249 5e-3 -0.37538 0.15961-1.2353 0.34534-1.9109 0.27234-0.99075 0.10827-1.2285-0.84771-1.2285-0.65195 0-1.1854-0.13186-1.1854-0.29296 0-0.16111 1.2601-5.189 2.8002-11.173 1.5401-5.984 2.8002-11.012 2.8002-11.173 0-0.16112-1.1971-0.28883-2.6602-0.2838l-2.6602 9e-3 -6.3004 11.66c-4.1356 7.6535-6.3004 12.247-6.3004 13.368v1.7079h7.179l-0.7827 2.8665c-0.43048 1.5765-0.7857 2.9279-0.78935 3.003-3e-3 0.0751 0.86835 0.13651 1.9378 0.13651 1.875 0 1.9764-0.10725 2.8399-3.003zm-1.9542-15.619c2.4843-4.8368 4.6172-8.6965 4.7398-8.577 0.12255 0.11948-0.90042 3.9596-2.2734 8.5337-1.373 4.5741-2.4965 8.4337-2.4965 8.577s-1.0095 0.26069-2.2434 0.26069h-2.2434zm-0.90784 6.6104c0.90523-3.1109 0.86299-3.4577-0.19956-1.6379-1.2592 2.1566-1.3938 2.73-0.64049 2.73 0.28727 0 0.66529-0.49139 0.84005-1.092zm82.259 12.554c-1.8296-0.71869-2.594-2.5481-2.209-5.2869 0.57343-4.0786 1.1131-4.616 4.4472-4.428l2.9054 0.16386-0.12335 2.0474c-0.2131 3.54 1.2755 2.4888 2.3196-1.6379 0.51287-2.027 1.0645-4.1155 1.2259-4.6409 0.26003-0.84685-0.15669-0.95548-3.6646-0.95548-3.5996 0-3.9579-0.1-3.9579-1.1046 0-1.648 3.9995-17.079 4.6314-17.868 0.38245-0.47799 2.5446-0.68249 7.2155-0.68249 7.5325 0 7.9025 0.20959 6.5408 3.706l-0.78938 2.027-8.0476 0.32025-0.5672 2.0536c-0.31196 1.1295-0.72827 2.8388-0.92511 3.7984-0.35471 1.7291-0.33791 1.7447 1.8767 1.7447 2.8072 0 5.1858 1.6884 5.1858 3.6807 0 1.8445-2.7191 11.982-3.7424 13.952-1.2684 2.4423-3.8728 3.6622-7.7384 3.6247-1.8482-0.0179-3.9108-0.24882-4.5837-0.51315zm8.1699-1.2327c2.2752-1.14 3.4245-3.2522 5.1444-9.4542 1.8386-6.6305 1.6732-8.1133-0.97739-8.762-0.83893-0.20529-2.453-0.13187-3.5869 0.16325l-2.0617 0.5365 0.7889-3.3178c0.4339-1.8247 1.0411-4.2391 1.3493-5.3652l0.56045-2.0474h8.1694l0.60158-1.9109 0.60157-1.9109h-12.173l-0.55088 2.0474c-0.30299 1.1261-1.2066 4.6273-2.008 7.7804-0.80143 3.1531-1.5883 6.1629-1.7486 6.6884-0.25779 0.84513 0.15494 0.95548 3.5731 0.95548 2.1255 0 4.003 0.13496 4.1722 0.29984 0.32628 0.31809-1.9358 9.5076-2.5973 10.551-0.45564 0.71876-3.4802 0.83218-3.9148 0.14672-0.16328-0.25754-0.0697-1.2403 0.20787-2.184 0.50295-1.7097 0.49723-1.7158-1.631-1.7158-2.3687 0-2.8045 0.69146-2.8188 4.4734-6e-3 1.4702 0.32954 2.2468 1.237 2.8665 1.4865 1.015 5.7759 1.1043 7.6619 0.15941zm67.545 1.2477c-0.4055-0.63962 6.8008-28.558 7.9364-30.748 1.3272-2.5583 3.8374-3.6569 8.362-3.6592 5.1409-3e-3 6.9359 1.1511 6.9359 4.4581 0 2.0255-6.0866 26.455-7.289 29.254-0.44645 1.0399-0.95413 1.2285-3.3066 1.2285-1.5286 0-2.9281-0.23508-3.1104-0.52239-0.27083-0.42723 1.0106-6.3205 2.2904-10.534 0.21898-0.72086-0.0359-0.95549-1.0374-0.95549-1.217 0-1.436 0.44348-2.6292 5.3234-0.71583 2.9279-1.5524 5.6305-1.859 6.006-0.65692 0.80446-5.8005 0.92514-6.2934 0.14765zm5.7839-2.4048c0.28781-1.0162 0.97575-3.719 1.5288-6.006l1.0055-4.1582h2.7354c2.3425 0 2.6938 0.13728 2.4452 0.95547-0.7085 2.3325-2.5854 9.9295-2.5854 10.465 0 0.32534 0.8415 0.59153 1.8699 0.59153h1.8699l3.7979-14.442c2.4957-9.4908 3.6733-14.926 3.4347-15.853-0.43754-1.6997-2.2584-2.4668-5.8286-2.4559-3.0793 9e-3 -4.8947 0.8037-6.4219 2.8095-0.94068 1.2356-8.2226 27.1-8.2378 29.259-6e-3 0.41513 0.75281 0.68249 1.9291 0.68249 1.721 0 1.9914-0.20333 2.4571-1.8476zm5.1104-19.919c0.84671-3.2625 1.7164-6.2109 1.9325-6.5518 0.49703-0.78408 4.0576-0.81457 4.5493-0.039 0.20257 0.31951-0.31546 3.2678-1.1511 6.5518l-1.5194 5.971h-5.3506zm4.0848-0.61991c1.3242-5.1486 1.346-5.46 0.38249-5.46-1.3709 0-1.5978 0.44971-3.0661 6.075l-1.2644 4.8449h1.2718c1.144 0 1.413-0.54875 2.6762-5.46zm2.8526 22.646c-0.36408-0.92506 7.488-32.351 8.3529-33.43 0.64051-0.79902 5.7883-0.92842 6.2768-0.15777 0.2502 0.39464-4.6484 20.242-6.7686 27.425-0.22093 0.74823 0.18289 0.9548 2.1349 1.092 2.357 0.16566 2.4041 0.20731 2.2577 1.997-0.29989 3.6649-0.70637 3.9051-6.6081 3.9051-4.2454 0-5.3841-0.16766-5.6453-0.83125zm10.65-1.4892c0.64874-2.3599 0.45021-2.5935-2.2049-2.5935-2.1706 0-2.5151-0.14471-2.2749-0.95548 0.98544-3.3265 7.0727-26.894 7.0727-27.383 0-0.32919-0.87234-0.59853-1.9385-0.59853-1.7683 0-1.9872 0.17983-2.4924 2.0474-0.30461 1.1261-2.089 8.067-3.9651 15.424-1.8763 7.3573-3.5438 13.807-3.7058 14.332-0.26411 0.85725 0.19215 0.95548 4.4383 0.95548 4.4345 0 4.7539-0.0774 5.0703-1.2285zm2.3689 1.8625c-0.1597-0.25191 1.3329-6.7015 3.3169-14.332 1.984-7.6308 3.6118-13.92 3.6174-13.976 0.01-0.056-0.8088-0.1789-1.8099-0.273-1.6915-0.15899-1.8096-0.30026-1.6705-1.9988 0.317-3.8742 0.4963-3.9548 8.4196-3.7847l7.1118 0.15261-0.1316 2.1182c-0.168 2.7007-0.9655 3.6143-3.1571 3.6162l-1.7516 2e-3 -3.5897 13.785c-1.9742 7.5817-3.8322 14.092-4.1287 14.467-0.6005 0.76004-5.7691 0.94636-6.2266 0.22448zm5.7005-2.4085c0.2687-0.97597 1.9817-7.486 3.8065-14.467l3.3178-12.692 2.0841-2e-3c1.8804-2e-3 2.1303-0.17531 2.5568-1.7763l0.4727-1.7744-6.1312-0.15505c-3.3722-0.0853-6.2213-0.0673-6.3313 0.0398-0.1098 0.10725-0.36 0.97546-0.5557 1.9295-0.3491 1.7017-0.3159 1.7346 1.7396 1.7346 1.9043 0 2.0632 0.11205 1.7426 1.2285-0.7008 2.4398-7.0582 27.137-7.0582 27.419 0 0.1594 0.8702 0.28981 1.9337 0.28981 1.7082 0 1.9909-0.20709 2.4226-1.7744zm-592.91-54.974c-0.88588-0.86366-0.99381-1.389-0.58889-2.8665 0.27268-0.99493 3.9286-14.34 8.1243-29.654 4.1957-15.315 8.0084-28.419 8.4729-29.12 1.8396-2.7756 2.3906-2.8208 34.341-2.8208 28.63 0 29.738 0.0381 30.785 1.0575 0.88533 0.86314 0.99382 1.39 0.59027 2.8665-11.962 43.766-15.907 57.734-16.597 58.774-1.8431 2.7758-2.3924 2.8208-34.342 2.8208-28.63 0-29.738-0.0381-30.785-1.0575zm21.72-19.007c0.63655-2.3273 2.3336-8.8383 3.7712-14.469l2.6138-10.237h2.1545c1.9604 0 2.1971-0.15986 2.6272-1.7744l0.47264-1.7744-6.1312-0.15505c-3.3721-0.0853-6.1944-0.0853-6.2715 0-0.0772 0.0853-0.31577 0.95356-0.53024 1.9295-0.38285 1.7422-0.35356 1.7744 1.6146 1.7744 1.1025 0 2.0047 0.15337 2.0047 0.34083s-1.6381 6.5358-3.6403 14.108c-2.0022 7.5718-3.6401 13.929-3.6401 14.128s0.85444 0.36133 1.8988 0.36133c1.8955 0 1.9009-8e-3 3.0562-4.2314zm11.006-1.7744 1.5283-6.006h2.7738c2.3788 0 2.7324 0.13604 2.4835 0.95547-0.70852 2.3325-2.5854 9.9295-2.5854 10.465 0 0.32534 0.85157 0.59153 1.8924 0.59153h1.8924l3.7625-14.69c2.3355-9.1185 3.6174-15.136 3.3799-15.865-0.48-1.4745-2.4079-2.2066-5.7834-2.1962-3.0637 9e-3 -4.8946 0.80336-6.3938 2.7728-0.8326 1.0938-8.1769 27.399-8.2558 29.569-8e-3 0.22522 0.83833 0.40949 1.8812 0.40949h1.8959zm4.181-15.76c0.8467-3.2625 1.7162-6.2109 1.9325-6.5518 0.59624-0.94056 4.2216-0.77412 4.6096 0.21161 0.29018 0.73726-0.26902 3.4692-2.093 10.225-0.54286 2.0106-0.60166 2.0474-3.2707 2.0474h-2.7178zm21.323 20.351c0.70603-0.6891 1.7075-3.1814 2.5232-6.279 1.6664-6.3285 1.7129-7.6092 0.28914-7.9723-1.0257-0.26151-1.0105-0.34174 0.27511-1.4504 1.0126-0.87319 1.702-2.5709 2.6933-6.6334 0.76642-3.1406 1.16-5.9238 0.92654-6.5518-0.63429-1.7063-2.7497-2.4401-7.0586-2.4489l-3.9694-8e-3 -4.101 15.697c-2.2555 8.6335-4.2226 16.028-4.3715 16.432-0.21844 0.59303 0.87441 0.69816 5.6759 0.54599 5.1357-0.16275 6.106-0.34422 7.1172-1.3311zm-7.8365-2.7858c0.0143-0.24167 0.60422-2.5278 1.3107-5.0803l1.2846-4.6409 2.2585-0.16452c2.9978-0.21835 3.208 0.50183 1.678 5.7484l-1.2376 4.2439-2.6602 0.1664c-1.4631 0.0915-2.6484-0.0314-2.634-0.27299zm3.9367-14.739c0.0233-0.54366 0.60462-2.9541 1.2915-5.3564 1.2057-4.2168 1.3109-4.3738 3.0415-4.5394 2.5025-0.23924 2.678 0.69076 1.1356 6.0177l-1.3109 4.5275-2.1001 0.16947c-1.7294 0.1396-2.0926-5e-3 -2.0576-0.819zm35.274 33.716c-0.88589-0.86367-0.99382-1.389-0.5889-2.8665 0.27269-0.99493 3.9286-14.34 8.1243-29.654 4.1957-15.315 8.0084-28.419 8.4729-29.12 1.8396-2.7756 2.3906-2.8208 34.341-2.8208 28.63 0 29.738 0.0381 30.785 1.0575 0.88534 0.86314 0.99383 1.39 0.59028 2.8665-11.962 43.766-15.907 57.734-16.597 58.774-1.8431 2.7758-2.3924 2.8208-34.342 2.8208-28.63 0-29.738-0.0381-30.785-1.0575zm35.425-21.465c1.6046-6.3067 1.6591-6.4154 3.2196-6.4154h1.5874l-0.6758 13.104h4.0913v-6.8057c0-6.235 0.0935-6.8544 1.1143-7.3871 0.61286-0.31977 1.4801-1.271 1.9272-2.1138 0.91921-1.733 3.679-11.976 3.679-13.654 0-2.0046-2.0749-2.7985-7.3142-2.7985h-4.8249l-4.1008 15.697c-2.2555 8.6335-4.22 16.022-4.3656 16.416-0.19603 0.53296 0.29265 0.67467 1.8829 0.54598l2.1477-0.17379zm2.7632-10.92c0.14351-0.37537 0.85014-3.078 1.5702-6.006l1.3093-5.3234h2.1476c2.7922 0 3.0215 0.70235 1.8266 5.5971-1.351 5.5342-2.0137 6.4147-4.8272 6.4147-1.5956 0-2.2082-0.20638-2.0263-0.68248zm51.417 32.384c-0.88589-0.86366-0.99381-1.389-0.5889-2.8665 0.27269-0.99493 3.9286-14.34 8.1243-29.654 4.1957-15.315 8.0084-28.419 8.4729-29.12 1.8396-2.7756 2.3906-2.8208 34.341-2.8208 28.63 0 29.738 0.0381 30.785 1.0575 0.88533 0.86314 0.99382 1.39 0.59028 2.8665-11.962 43.766-15.907 57.734-16.597 58.774-1.8431 2.7758-2.3924 2.8208-34.342 2.8208-28.63 0-29.738-0.0381-30.785-1.0575zm35.526-21.874 1.7359-6.8248 2.492-0.17097c2.8268-0.19395 3.0483-0.34502 3.5506-2.4224 0.35506-1.4687 0.3077-1.5015-2.1679-1.5015-2.998 0-2.9956 0.0124-1.1964-6.2788l1.2493-4.3679 2.4884-0.17098c2.823-0.19395 3.0446-0.34535 3.5468-2.4224l0.36299-1.5015h-9.3602l-4.1008 15.697c-2.2555 8.6335-4.22 16.022-4.3656 16.416-0.19604 0.53295 0.29251 0.67467 1.8821 0.54598l2.1469-0.17379zm54.078 21.874c-0.88588-0.86366-0.99381-1.389-0.58889-2.8665 0.27269-0.99493 3.9286-14.34 8.1243-29.654 4.1957-15.315 8.0084-28.419 8.4729-29.12 1.8396-2.7756 2.3906-2.8208 34.341-2.8208 28.63 0 29.738 0.0381 30.785 1.0575 0.88532 0.86314 0.99381 1.39 0.59028 2.8665-11.962 43.766-15.907 57.734-16.597 58.774-1.8431 2.7758-2.3924 2.8208-34.342 2.8208-28.63 0-29.738-0.0381-30.785-1.0575zm40.287-15.824c0-0.57604 0.15287-1.436 0.33993-1.9109 0.2871-0.72944-0.19158-0.86365-3.0802-0.86365-1.881 0-3.4201-0.0978-3.4201-0.21744s3.0242-5.878 6.7203-12.796c4.3159-8.0783 6.7203-13.177 6.7203-14.251v-1.6723h-9.4884l-0.9483 3.549 2.9783 0.16374c1.638 0.0901 2.9783 0.27966 2.9783 0.42135 0 0.14161-3.0242 5.8678-6.7203 12.725-4.451 8.2572-6.7203 13.047-6.7203 14.184v1.7168h5.3203c4.8714 0 5.3203-0.0884 5.3203-1.0473zm49.319 15.824c-0.88589-0.86366-0.99382-1.389-0.5889-2.8665 0.27269-0.99493 3.9286-14.34 8.1243-29.654 4.1957-15.315 8.0084-28.419 8.4729-29.12 1.8396-2.7756 2.3906-2.8208 34.341-2.8208 28.63 0 29.738 0.0381 30.785 1.0575 0.88534 0.86314 0.99383 1.39 0.59028 2.8665-11.962 43.766-15.907 57.734-16.597 58.774-1.8431 2.7758-2.3924 2.8208-34.342 2.8208-28.63 0-29.738-0.0381-30.785-1.0575zm34.687-20.527 3.0802-5.7345 0.31791 11.485h4.0546l-0.75664-16.347 4.066-7.7968c2.2363-4.2882 4.1529-7.9812 4.2591-8.2063 0.1062-0.22521-0.58562-0.40949-1.5374-0.40949-1.627 0-1.8885 0.31005-4.3732 5.1869-1.4536 2.8529-2.868 5.1869-3.1431 5.1869-0.28653 0-0.32982-2.216-0.10144-5.1869l0.39888-5.1869h-4.0248v8.1981c0 7.9938-0.04 8.2693-1.6043 11.056-0.88237 1.572-2.8951 5.2538-4.4729 8.1816l-2.8686 5.3234 1.8128-8e-3c1.731-8e-3 1.9518-0.26676 4.893-5.7424zm54.919 20.527c-0.88588-0.86366-0.99382-1.389-0.58889-2.8665 0.27267-0.99493 3.9286-14.34 8.1243-29.654 4.1957-15.315 8.0084-28.419 8.4729-29.12 1.8396-2.7756 2.3906-2.8208 34.341-2.8208 28.63 0 29.738 0.0381 30.785 1.0575 0.88533 0.86314 0.99382 1.39 0.59027 2.8665-11.962 43.766-15.907 57.734-16.597 58.774-1.8431 2.7758-2.3924 2.8208-34.342 2.8208-28.63 0-29.738-0.0381-30.785-1.0575zm40.489-15.528c1.9096-0.77786 3.2675-2.8942 3.9841-6.2096 0.37484-1.734 0.33911-1.7744-1.5679-1.7744-1.8044 0-2.0082 0.17496-2.7046 2.3205-0.69185 2.1315-0.92414 2.3342-2.8534 2.4899-1.872 0.15106-2.0996 0.0324-2.0955-1.092 6e-3 -1.906 5.5135-22.347 6.2544-23.217 0.36632-0.43036 1.3939-0.68769 2.3738-0.59447 1.8763 0.17849 2.0623 0.92068 1.1701 4.6688-0.41517 1.7442-0.38877 1.7744 1.5519 1.7744 1.9116 0 1.996-0.0884 2.6602-2.7874 0.98691-4.0107 0.86162-5.4708-0.56621-6.598-2.6465-2.0894-9.2962-0.79509-10.83 2.108-1.2192 2.307-7.1836 25.235-6.9878 26.863 0.31154 2.5929 5.5389 3.7064 9.6113 2.0474zm49.117 15.528c-0.88588-0.86366-0.99382-1.389-0.5889-2.8665 0.27269-0.99493 3.9286-14.34 8.1243-29.654 4.1958-15.315 8.0084-28.419 8.4729-29.12 1.8396-2.7756 2.3906-2.8208 34.341-2.8208 28.63 0 29.738 0.0381 30.785 1.0575 0.8853 0.86314 0.9938 1.39 0.5903 2.8665-11.962 43.766-15.907 57.734-16.597 58.774-1.8431 2.7758-2.3923 2.8208-34.342 2.8208-28.63 0-29.738-0.0381-30.785-1.0575zm44.207-28.81c3.2342-7.7075 6.3232-15.089 6.8644-16.402l0.9841-2.3889-4.0893 0.33938-4.7237 11.739c-4.646 11.545-6.0739 14.454-5.4865 11.176 0.43262-2.4144 2.5308-20.671 2.5308-22.021 0-0.96956-0.33143-1.1669-1.9601-1.1669-1.6573 0-1.9612 0.18981-1.9671 1.2285-6e-3 0.67568-0.63076 7.4938-1.3931 15.151-1.7988 18.068-1.8998 16.382 0.98006 16.37l2.3801-0.0108 5.8804-14.014zm45.398 28.81c-0.8859-0.86366-0.9939-1.389-0.589-2.8665 0.2727-0.99493 3.9286-14.34 8.1244-29.654 4.1957-15.315 8.0085-28.419 8.4729-29.12 1.8396-2.7756 2.3906-2.8208 34.341-2.8208 28.63 0 29.738 0.0381 30.785 1.0575 0.8853 0.86314 0.9938 1.39 0.5902 2.8665-11.962 43.766-15.907 57.734-16.597 58.774-1.8431 2.7758-2.3923 2.8208-34.342 2.8208-28.63 0-29.738-0.0381-30.785-1.0575zm37.401-19.007c0.6366-2.3273 2.3336-8.8382 3.7712-14.469l2.6139-10.237h2.1543c1.9604 0 2.1971-0.15986 2.6272-1.7744l0.4726-1.7744-6.1312-0.15504c-3.3721-0.0853-6.1944-0.0853-6.2715 0-0.077 0.0853-0.3158 0.95355-0.5302 1.9295-0.3829 1.7422-0.3536 1.7744 1.6146 1.7744 1.1026 0 2.0047 0.15338 2.0047 0.34084 0 0.18745-1.6381 6.5358-3.6401 14.108s-3.6403 13.929-3.6403 14.128c0 0.19873 0.8545 0.36133 1.8988 0.36133 1.8955 0 1.9009-8e-3 3.0561-4.2314zm52.203 19.007c-0.8859-0.86366-0.9938-1.389-0.5889-2.8665 0.2727-0.99493 3.9285-14.34 8.1243-29.654 4.1957-15.315 8.0086-28.419 8.4729-29.12 1.8396-2.7756 2.3906-2.8208 34.341-2.8208 28.63 0 29.738 0.0381 30.785 1.0575 0.8854 0.86314 0.9938 1.39 0.5903 2.8665-11.962 43.766-15.907 57.734-16.597 58.774-1.843 2.7758-2.3923 2.8208-34.342 2.8208-28.63 0-29.738-0.0381-30.785-1.0575zm43.594-16.823c1.2461-4.6315 3.4125-13.186 3.4125-13.476 0-0.47071-6.7192-0.37191-6.7281 0.0989-0.01 0.22522-0.1596 0.96232-0.3453 1.6379-0.2724 0.99074-0.1083 1.2285 0.8477 1.2285 1.4335 0 1.4268-0.12768 0.2501 4.7774l-0.9497 3.9584h-2.4177c-2.0604 0-2.4177-0.16468-2.4177-1.114 0-1.3341 4.8077-20.346 5.697-22.528 0.5438-1.3346 0.8811-1.5088 2.6435-1.365 2.1904 0.17871 2.3407 0.58938 1.5088 4.1232-0.4092 1.7382-0.3782 1.7744 1.518 1.7744 1.8924 0 1.9531-0.0703 2.7181-3.1395 0.4304-1.7268 0.7004-3.6586 0.6001-4.2931-0.5648-3.5707-10.102-3.0165-12.067 0.70116-1.2192 2.307-7.1836 25.235-6.988 26.863 0.2447 2.0366 2.2655 2.7818 7.5682 2.7911l4.5987 8e-3 0.5509-2.0474zm-745.01-68.843c-0.15968-0.25191 1.3329-6.7015 3.3169-14.332 1.984-7.6308 3.6119-13.92 3.6174-13.976 6e-3 -0.056-0.80881-0.1789-1.8099-0.273-1.6915-0.15899-1.8096-0.30026-1.6705-1.9988 0.31183-3.8112 0.512-3.9051 8.3231-3.9051 6.4722 0 7.0556 0.0839 7.3152 1.0516 0.27835 1.0377 0.30543 1.0378 2.0477 2e-3 1.3039-0.77512 2.8076-1.0501 5.7504-1.0516 5.1409-3e-3 6.9359 1.151 6.9359 4.458 0 2.0255-6.0864 26.455-7.289 29.254-0.44646 1.0399-0.95413 1.2285-3.3066 1.2285-1.5285 0-2.9281-0.23509-3.1102-0.52241-0.27082-0.42722 1.0106-6.3205 2.2904-10.534 0.21896-0.72086-0.0357-0.95549-1.0373-0.95549-1.217 0-1.436 0.44346-2.6292 5.3234-0.71585 2.9279-1.5524 5.6305-1.859 6.006-0.65539 0.80252-5.8001 0.92601-6.2914 0.15106-0.26845-0.42345 5.8199-25.077 6.8462-27.724 0.17918-0.46188-0.34295-0.68201-1.6153-0.681l-1.8801 2e-3 -3.5896 13.785c-1.9742 7.5817-3.8322 14.092-4.1288 14.467-0.60054 0.76005-5.7691 0.94638-6.2266 0.22448zm5.7005-2.4085c0.26874-0.97596 1.9817-7.486 3.8065-14.467l3.3179-12.692 2.0841-2e-3c1.8804-2e-3 2.1302-0.1753 2.5568-1.7763l0.47263-1.7744-6.1312-0.15506c-3.3722-0.0853-6.2212-0.0673-6.3311 0.0398-0.10985 0.10726-0.36001 0.97546-0.55572 1.9295-0.34908 1.7014-0.31595 1.7345 1.7396 1.7345 1.9042 0 2.0633 0.11205 1.7426 1.2285-0.70084 2.4398-7.0582 27.137-7.0582 27.419 0 0.15938 0.87021 0.28979 1.9337 0.28979 1.7082 0 1.9909-0.20708 2.4225-1.7744zm10.675-0.0732c0.28781-1.0162 0.97579-3.719 1.5288-6.006l1.0055-4.1582h2.7356c2.3425 0 2.6938 0.13728 2.4452 0.95548-0.70853 2.3325-2.5854 9.9295-2.5854 10.465 0 0.32533 0.84147 0.59152 1.8699 0.59152h1.8699l3.7979-14.442c2.4957-9.4908 3.6733-14.926 3.4347-15.853-0.43756-1.6997-2.2584-2.4669-5.8286-2.4559-3.0792 9e-3 -4.8947 0.8037-6.4219 2.8097-0.94071 1.2355-8.2226 27.1-8.2377 29.259-3e-3 0.41513 0.75278 0.68249 1.929 0.68249 1.721 0 1.9914-0.20332 2.4571-1.8476zm5.1105-19.919c0.8467-3.2625 1.7162-6.2109 1.9324-6.5518 0.49705-0.78406 4.0576-0.81457 4.5493-0.039 0.20257 0.31953-0.31545 3.268-1.1511 6.5518l-1.5194 5.971h-5.3506zm4.0848-0.61992c1.3242-5.1486 1.346-5.46 0.38253-5.46-1.3709 0-1.5978 0.44972-3.0661 6.075l-1.2644 4.8449h1.2718c1.144 0 1.4129-0.54875 2.6762-5.4599zm3.4126 22.646c-0.36411-0.92506 7.488-32.351 8.3529-33.43 0.36384-0.45389 2.198-0.68248 5.4759-0.68248 4.4855 0 5.0838 0.12706 6.6518 1.4135 1.2177 0.99893 1.7231 1.8932 1.7231 3.0485 0 2.1377-2.1149 10.244-3.0378 11.645-0.50833 0.77121-0.55834 1.4434-0.17019 2.2883 0.40024 0.87117 0.20672 2.5775-0.71209 6.2788-2.4077 9.6994-3.0756 10.27-12.03 10.27-4.7895 0-5.9885-0.15938-6.253-0.83125zm14.047-1.9682c0.72671-0.82433 1.7775-3.4284 2.4706-6.1227 1.5185-5.9024 1.5426-7.4741 0.12033-7.8367-1.0235-0.26094-1.007-0.34413 0.28824-1.4504 1.0069-0.85995 1.7415-2.5978 2.7494-6.5037 2.0407-7.9086 1.1729-9.1386-6.447-9.1386h-3.8622l-0.55382 2.0474c-0.30459 1.1261-2.0888 8.067-3.9651 15.424-1.8762 7.3573-3.5514 13.83-3.7225 14.383-0.29116 0.94223 0.0722 0.99468 5.6732 0.81897 5.6531-0.17732 6.0542-0.2671 7.2488-1.6221zm-8.084-2.2321c0-0.18304 2.0599-7.6036 2.5817-9.3009 0.20294-0.65985 0.86743-0.95548 2.1476-0.95548 2.8661 0 3.1121 0.79517 1.7743 5.733l-1.1834 4.3679-2.6602 0.16641c-1.4631 0.0915-2.6602 0.0865-2.6602-0.0108zm4.9635-3.8409c0.36381-1.5765 0.81132-3.4193 0.99448-4.0949 0.26718-0.98551 0.10176-1.2285-0.83668-1.2285-0.94639 0-1.3415 0.59949-2.0693 3.1395-0.49474 1.7268-1.0228 3.5694-1.1734 4.0949-0.20624 0.71941 0.0594 0.95548 1.0748 0.95548 1.1697 0 1.4365-0.38053 2.0101-2.8665zm-1.0294-10.647c8e-3 -0.22522 0.58904-2.6207 1.2921-5.3234 1.2553-4.8257 1.3104-4.917 3.0702-5.0852 2.357-0.22541 2.6354 0.62944 1.502 4.6118-1.672 5.8744-1.8852 6.2064-3.9859 6.2064-1.0407 0-1.886-0.18427-1.8783-0.40949zm4.0016-4.2746c1.1414-3.9452 1.2364-5.3035 0.35092-5.0158-0.37065 0.12041-1.121 1.9222-1.6673 4.0039-1.1956 4.5553-1.2099 4.7564-0.31891 4.4697 0.38502-0.12382 1.1209-1.6799 1.6353-3.458zm60.037 22.991c-0.3718-0.94463 7.4601-32.359 8.3416-33.458 0.37097-0.46279 2.3034-0.68249 6.0033-0.68249 4.672 0 5.6683 0.16266 6.9318 1.1316 2.1876 1.6775 2.0884 3.4168-0.81316 14.268-0.29747 1.1124-1.2273 2.815-2.0663 3.7833-1.3938 1.6088-1.5736 2.3526-2.0853 8.6242l-0.56003 6.8636-2.4216 0.16986c-3.7206 0.26098-3.9143-0.11608-3.6692-7.1432l0.21392-6.1306-3.72 13.104-2.9083 0.16525c-2.2387 0.12722-2.9862-0.0328-3.2469-0.69476zm6.7605-6.9779c1.6496-6.1976 1.7589-6.4153 3.2218-6.4153h1.5142l-0.67579 13.104h4.0913v-13.177l1.8672-1.7378c1.5807-1.4711 2.0964-2.636 3.3602-7.5907 0.8211-3.219 1.4929-6.4605 1.4929-7.2034 0-2.2736-1.8804-3.0505-7.3834-3.0505h-4.8941l-0.55382 2.0474c-0.30459 1.1261-2.0888 8.067-3.9651 15.424-1.8763 7.3573-3.5492 13.823-3.7174 14.368-0.26379 0.85437-0.0127 0.96751 1.8142 0.81899l2.1203-0.17234zm4.1881-16.107 1.5072-5.8695 2.0726-0.16972c1.4036-0.115 2.1717 0.0817 2.3793 0.60925 0.3619 0.91949-1.8296 9.6271-2.6719 10.617-0.31953 0.37536-1.5289 0.68248-2.6876 0.68248h-2.1066zm3.7347-0.30386 1.2372-4.8082-1.1715 0.16736c-0.97159 0.13883-1.3826 0.98782-2.4087 4.9757l-1.2372 4.8084 1.1715-0.16735c0.9716-0.13883 1.3826-0.98782 2.4087-4.9757zm74.922 23.389c-0.3718-0.94463 7.4601-32.359 8.3416-33.458 0.36861-0.45984 2.2661-0.68249 5.8164-0.68249 5.928 0 6.248 0.21745 5.4133 3.6787-0.47628 1.975-0.60129 2.0648-3.2448 2.3271l-2.7494 0.273-0.99992 3.8219c-0.54994 2.1021-1.0056 3.9913-1.0127 4.1984-6e-3 0.2071 0.93224 0.4528 2.0874 0.546 1.781 0.14363 2.1255 0.38171 2.2669 1.5666 0.0918 0.76839-0.091 2.0583-0.40616 2.8665-0.50457 1.2938-0.87324 1.4694-3.0855 1.4694-2.8394 0-2.2244-1.115-4.9687 9.0088l-1.3321 4.9139-2.894 0.16525c-2.2255 0.12706-2.9721-0.0334-3.2325-0.69477zm6.5132-6.0224c0.82327-3.003 1.6685-6.1355 1.8783-6.9614 0.3524-1.3872 0.59365-1.5015 3.1709-1.5015 1.8542 0 2.7921-0.22884 2.7972-0.68249 5e-3 -0.37538 0.1596-1.2353 0.34534-1.9109 0.3145-1.1441 0.16014-1.2285-2.2477-1.2285-1.422 0-2.5792-0.18427-2.5717-0.40949 8e-3 -0.22522 0.58919-2.6207 1.2924-5.3234l1.2786-4.9139 2.4878-0.17097c2.8224-0.19396 3.044-0.3454 3.5462-2.4224l0.36299-1.5015h-9.4988l-0.5538 2.0474c-0.30459 1.1261-2.089 8.067-3.9652 15.424-1.8763 7.3573-3.549 13.823-3.7174 14.368-0.26353 0.85344-0.0143 0.96735 1.7959 0.81899l2.102-0.17234zm83.013 6.1869c-1.4453-1.4091-0.53166-3.9324 5.4364-15.014 3.3693-6.2561 6.2944-11.805 6.5003-12.33 0.32393-0.82699 0.017-0.95551-2.2819-0.95551h-2.6562l0.36151-2.5713c0.19883-1.4143 0.57032-2.775 0.82553-3.0237 0.25522-0.2488 2.9521-0.38158 5.9933-0.29505l5.5292 0.15734 0.40781 1.9109c0.36754 1.7223-0.22494 3.1099-5.9985 14.05-3.5236 6.6764-6.4063 12.266-6.4063 12.421 0 0.15538 1.1032 0.2824 2.4516 0.2824 3.1432 0 3.7481 0.73536 2.9188 3.549l-0.64376 2.184-5.8739 0.15369c-4.091 0.1071-6.0831-0.0505-6.5635-0.5187zm11.639-1.1365c5e-3 -0.37537 0.15961-1.2353 0.34535-1.9109 0.32324-1.176 0.19124-1.2285-3.0878-1.2285-1.884 0-3.4255-0.081-3.4255-0.17974 0-0.0989 3.0242-5.864 6.7203-12.811 4.2654-8.0175 6.7203-13.237 6.7203-14.289v-1.6573h-4.7272c-5.0098 0-4.9963-6e-3 -5.5667 2.3204-0.36774 1.5-0.36498 1.5015 2.7227 1.5015 1.6999 0 3.0908 0.12815 3.0908 0.28484 0 0.15667-3.0242 5.895-6.7203 12.752-4.451 8.2572-6.7203 13.047-6.7203 14.184v1.7168h5.3203c3.8789 0 5.3224-0.18492 5.3279-0.68249zm76.379 1.0056c-0.18539-0.47098 1.571-4.3167 4.0659-8.9025l4.3923-8.0734 0.28002-8.4629 0.28002-8.4628h5.6004l0.28002 2.9279 0.28 2.9279 1.534-3.0644c1.5101-3.0168 1.5716-3.0644 3.9482-3.0644 4.1265 0 4.1102 0.43531-0.33682 8.9475l-4.0254 7.7052-0.56003 18.018h-5.6004l-0.17382-3.8219-0.17383-3.8219-4.1326 7.6439-2.6659 0.16664c-1.9814 0.12382-2.7497-0.0463-2.9923-0.66254zm7.6182-6.0735 3.0802-5.7345 0.31791 11.485h4.0546l-0.75663-16.347 4.066-7.7968c2.2363-4.2882 4.1529-7.9812 4.2591-8.2063 0.1062-0.22521-0.58562-0.40949-1.5374-0.40949-1.627 0-1.8885 0.31005-4.3732 5.1869-1.4536 2.8529-2.868 5.1869-3.1431 5.1869-0.28653 0-0.32982-2.216-0.10144-5.1869l0.39888-5.1869h-4.0248v8.1981c0 7.9938-0.04 8.2693-1.6043 11.056-0.88237 1.572-2.8951 5.2538-4.4729 8.1816l-2.8686 5.3234 1.8128-8e-3c1.731-8e-3 1.9518-0.26678 4.893-5.7424zm86.334 5.9682c-2.5166-1.7186-2.4814-2.734 0.50359-14.541 3.5971-14.227 4.1303-15.752 6.1766-17.664 1.5295-1.4286 2.1398-1.6067 6.113-1.7825 4.1203-0.18243 4.5091-0.10262 5.8463 1.2011 1.7059 1.6632 1.8272 4.1265 0.40749 8.271l-0.93515 2.73h-3.0802c-3.4145 0-3.4144 3.1e-4 -2.5289-4.2851 0.38054-1.8418 0.31123-2.0776-0.56158-1.9109-0.79178 0.15121-1.6031 2.4796-3.961 11.369-1.6308 6.1482-2.8645 11.277-2.7413 11.397 0.59189 0.57704 1.9593-0.58032 2.2928-1.9406 0.57738-2.3547 1.2842-2.8898 3.8163-2.8898 3.2928 0 3.715 0.60152 2.7988 3.9876-0.86449 3.1949-2.2608 5.2652-4.2094 6.2415-1.9939 0.99903-8.3782 0.88111-9.9374-0.18355zm9.0728-0.96971c1.9096-0.77788 3.2675-2.8942 3.9841-6.2096 0.37484-1.734 0.33911-1.7744-1.5679-1.7744-1.8043 0-2.0082 0.17494-2.7046 2.3205-0.69186 2.1315-0.92414 2.3342-2.8534 2.4899-1.8291 0.14765-2.1001 0.0181-2.1001-1.0037 0-1.7379 5.6169-22.527 6.31-23.353 0.32728-0.39071 1.3726-0.63641 2.3228-0.54599 1.8788 0.17874 1.9812 0.5581 1.1869 4.3958l-0.4238 2.0474h1.9496c1.822 0 1.9907-0.15199 2.5767-2.3205 1.2656-4.6835 1.0623-6.5978-0.78786-7.4198-3.2694-1.4523-8.8879-0.286-10.536 2.1872-1.111 1.6672-7.1847 25.337-6.9665 27.151 0.31062 2.5814 5.5476 3.691 9.6102 2.036zm81.345 1.3951c-0.38076-0.60063 2.7635-33.105 3.2814-33.922 0.44948-0.70909 5.7105-0.7636 6.1542-0.0638 0.17759 0.28008-0.0662 3.7544-0.54154 7.7207-0.47542 3.9663-0.77022 7.3032-0.65513 7.4155 0.1151 0.11221 1.5989-3.3006 3.2975-7.5842l3.0883-7.7881h3.0097c2.2747 0 3.0505 0.20689 3.1771 0.84736 0.092 0.46604-2.9401 8.2056-6.738 17.198l-6.9053 16.351-3.4263 0.16131c-1.8844 0.0887-3.5684-0.0628-3.742-0.33699zm12.221-15.258c3.3676-8.0279 6.4647-15.41 6.8826-16.404l0.7598-1.8086-4.1521 0.34148-4.6277 11.466c-2.5452 6.3062-4.8596 11.831-5.143 12.278-0.28343 0.44651 0.0695-4.0989 0.78416-10.101 1.7437-14.643 1.7764-13.916-0.62663-13.916-1.4916 0-1.9612 0.22838-1.9648 0.95549 0 0.52551-0.63171 7.3437-1.398 15.151-0.76629 7.8076-1.3942 14.749-1.3953 15.424 0 1.083 0.27973 1.2274 2.3781 1.2192l2.3801-9e-3 6.1228-14.596zm76.258 15.248c-0.1597-0.2519 1.3329-6.7015 3.3169-14.332 1.984-7.6308 3.6118-13.92 3.6174-13.976 0.01-0.056-0.8088-0.1789-1.8099-0.273-1.6915-0.159-1.8096-0.30026-1.6705-1.9988 0.317-3.8742 0.4963-3.9548 8.4196-3.7847l7.1118 0.1526-0.1316 2.1182c-0.1679 2.7007-0.9655 3.6143-3.1571 3.6162l-1.7516 2e-3 -3.5897 13.785c-1.9742 7.5817-3.8322 14.092-4.1287 14.467-0.6005 0.76005-5.7691 0.94638-6.2266 0.22448zm5.7005-2.4085c0.2688-0.97596 1.9817-7.486 3.8065-14.467l3.3179-12.692 2.084-2e-3c1.8804-2e-3 2.1303-0.17531 2.5568-1.7763l0.4727-1.7744-6.1312-0.15507c-3.3722-0.0853-6.2213-0.0673-6.3313 0.0398-0.11 0.10726-0.3599 0.97546-0.5557 1.9295-0.3491 1.7017-0.3159 1.7346 1.7396 1.7346 1.9043 0 2.0633 0.11205 1.7426 1.2285-0.7008 2.4398-7.0582 27.137-7.0582 27.419 0 0.15938 0.8702 0.28979 1.9338 0.28979 1.7081 0 1.9908-0.20708 2.4223-1.7744zm84.218 1.9924c-2.5167-1.7186-2.4814-2.734 0.5035-14.541 3.5971-14.227 4.1304-15.752 6.1766-17.664 1.5296-1.4286 2.14-1.6067 6.113-1.7825 4.1203-0.18243 4.5091-0.10261 5.8463 1.2011 1.6489 1.6076 1.7759 3.1423 0.6126 7.4037-0.9192 3.367-1.4562 3.8503-4.292 3.862-2.8251 0.0124-3.5169-0.95992-2.7251-3.827 0.3465-1.2544 0.4983-2.4091 0.3374-2.5661-0.8789-0.8568-1.8963 0.72621-2.7593 4.293-0.5349 2.2107-1.1051 4.5108-1.2672 5.1114-0.2768 1.0258-0.061 1.0812 3.5522 0.91462 2.7322-0.12598 4.0289 0.0365 4.4749 0.56059 0.4743 0.55711 0.1362 2.6744-1.3794 8.6402-1.1041 4.3462-2.2533 8.2094-2.5535 8.5848-0.8611 1.0765-11.008 0.92269-12.64-0.19159zm12.179-2.2654c1.2461-4.6315 3.4125-13.186 3.4125-13.476 0-0.47071-6.7192-0.37191-6.7281 0.0989-0.01 0.22522-0.1596 0.96232-0.3453 1.6379-0.2723 0.99075-0.1083 1.2285 0.8477 1.2285 1.4335 0 1.4269-0.12768 0.2501 4.7774l-0.9496 3.9584h-2.4178c-1.8013 0-2.4177-0.21391-2.4177-0.83895 0-1.5859 5.6748-22.887 6.2896-23.61 0.3384-0.39751 1.3928-0.6488 2.3432-0.55838 1.8402 0.17508 1.8834 0.31654 1.1741 3.8499l-0.4111 2.0474h2.0009c1.8801 0 2.0395-0.14007 2.6418-2.3205 0.854-3.0915 0.8916-5.7277 0.093-6.5064-0.3582-0.34927-1.9907-0.7433-3.6278-0.87564-3.486-0.28184-6.6374 0.79273-7.9055 2.6954-1.1111 1.6672-7.1849 25.337-6.9666 27.151 0.2436 2.0242 2.2752 2.7705 7.5671 2.7798l4.5987 8e-3 0.5509-2.0474zm-3.9641-5.6381c0.8455-3.5713 0.8422-3.6055-0.3746-3.9158-0.8641-0.22027-1.169 0.29967-1.8838 3.2122-0.8504 3.4654-0.8494 3.475 0.3747 3.475 1.0159 0 1.3406-0.47772 1.8837-2.7716zm-756.47-49.063c-0.88588-0.86367-0.99382-1.389-0.58889-2.8665 0.27267-0.99491 3.9286-14.34 8.1243-29.654 4.1957-15.315 8.0084-28.419 8.4729-29.12 1.8396-2.7756 2.3906-2.8208 34.341-2.8208 28.63 0 29.738 0.0381 30.785 1.0575 0.88532 0.86314 0.99381 1.39 0.59027 2.8665-11.962 43.766-15.907 57.734-16.597 58.774-1.8431 2.7758-2.3924 2.8208-34.342 2.8208-28.63 0-29.738-0.0381-30.785-1.0575zm44.377-15.186c0.12954-0.22522 0.40131-1.0852 0.60376-1.9109 0.30909-1.2607 0.1868-1.5015-0.76262-1.5015-0.62189 0-1.1307-0.25943-1.1307-0.57649 0-0.31708 1.3861-5.7989 3.0802-12.182 1.6942-6.383 3.0802-12.252 3.0802-13.042 0-2.0481-1.8961-3.1368-5.4629-3.1368-3.5774 0-6.326 1.0258-7.4807 2.792-1.1545 1.7658-7.3272 25.32-7.1104 27.133 0.26493 2.2144 2.178 2.8182 8.9603 2.8273 3.2931 5e-3 6.0933-0.17622 6.223-0.40144zm-10.81-4.529c0-1.269 4.0772-17.469 5.3873-21.406 0.85489-2.5689 0.88631-2.5935 3.3052-2.5935 1.3432 0 2.5676 0.19792 2.721 0.43981 0.15335 0.24191-1.1549 5.8918-2.9072 12.555l-3.1859 12.115-2.6602 3e-3c-2.3071 2e-3 -2.6602-0.14579-2.6602-1.1142zm56.038 19.715c-1.0735-1.0466-1.068-1.1213 0.50783-6.9614 8.7646-32.481 14.806-53.643 15.637-54.77 1.9098-2.591 2.8684-2.6662 34.363-2.6992 28.497-0.0297 29.58 6e-3 30.626 1.0267 0.8851 0.86291 0.99382 1.3904 0.59085 2.8665-11.045 40.458-15.929 57.749-16.605 58.774-1.8275 2.775-2.3846 2.8208-34.336 2.8208-28.634 0-29.738-0.0379-30.785-1.0579zm36.884-23.649c3.4958-8.8709 4.8099-11.435 4.258-8.3092-0.2561 1.4507-1.975 16.144-1.975 16.882 0 0.16452 0.97944 0.29911 2.1764 0.29911h2.1764l6.504-16.008c3.5772-8.8045 6.504-16.175 6.504-16.379 0-0.20435-0.81905-0.37113-1.8201-0.37059l-1.8201 1e-3 -3.0148 7.7795c-5.7278 14.78-6.349 16.303-6.5611 16.098-0.11715-0.11422 0.49791-5.5336 1.3667-12.043l1.5796-11.836h-1.5364c-1.7018 0-1.2476-0.94645-7.8528 16.361-1.6578 4.3439-3.0896 7.5167-3.1816 7.0508-0.0921-0.46589 0.47324-5.5191 1.2562-11.229 0.78292-5.71 1.4235-10.787 1.4235-11.282 0-0.66479-0.51256-0.90017-1.9601-0.90017-1.2281 0-1.9601 0.26327-1.9601 0.70498 0 0.38776-0.75604 7.4413-1.68 15.675-0.92401 8.2337-1.68 15.287-1.68 15.675 0 0.45361 0.76683 0.70499 2.1506 0.70499h2.1506zm52.721 23.649c-0.88589-0.86368-0.99381-1.3891-0.5889-2.8665 0.27269-0.99491 3.9286-14.34 8.1243-29.654 4.1957-15.315 8.0084-28.419 8.4729-29.12 1.8396-2.7756 2.3906-2.8208 34.341-2.8208 28.63 0 29.738 0.0381 30.785 1.0575 0.88534 0.86314 0.99383 1.39 0.59028 2.8665-12.821 46.909-15.897 57.734-16.734 58.865-1.9128 2.5912-2.8702 2.6664-34.364 2.6992-28.497 0.0297-29.58-6e-3 -30.626-1.0267zm37.693-16.005c0.64732-2.355 0.44801-2.5935-2.1672-2.5935-1.3861 0-2.5084-0.18427-2.494-0.40949 0.0143-0.22524 0.60421-2.498 1.3107-5.0504l1.2846-4.6409 2.4695-0.17097c2.8034-0.19409 3.0262-0.34706 3.5279-2.4224 0.35506-1.4687 0.30771-1.5015-2.1679-1.5015-2.9978 0-2.9956 0.0124-1.1963-6.279l1.2493-4.3679 2.4884-0.17097c2.8229-0.19396 3.0447-0.34534 3.5468-2.4224l0.363-1.5015h-9.3602l-4.101 15.697c-2.2555 8.6335-4.2134 16.005-4.351 16.379-0.18744 0.51155 0.94087 0.68249 4.5048 0.68249 4.4575 0 4.776-0.0768 5.0925-1.2285zm51.911 16.005c-0.88588-0.86368-0.99381-1.3891-0.58889-2.8665 0.27269-0.99491 3.9286-14.34 8.1243-29.654 4.1957-15.315 8.0084-28.419 8.4729-29.12 1.8396-2.7756 2.3906-2.8208 34.341-2.8208 28.63 0 29.738 0.0381 30.785 1.0575 0.88533 0.86314 0.99382 1.39 0.59028 2.8665-11.962 43.766-15.907 57.734-16.597 58.774-1.8431 2.7758-2.3924 2.8208-34.342 2.8208-28.63 0-29.738-0.0381-30.785-1.0575zm20.901-20.854c1.4234-0.63232 2.086-1.8376 3.1121-5.6621 1.0193-3.7987 0.77872-4.7276-1.7807-6.8767l-2.373-1.9925 0.8329-3.2093c0.75294-2.9013 0.98744-3.2265 2.4431-3.3887l1.6104-0.17936-0.38453 2.4998c-0.36749 2.3892-0.32393 2.4998 0.9834 2.4998 1.1513 0 1.4672-0.3842 1.9944-2.4257 0.34458-1.3342 0.62651-2.6679 0.62651-2.964 0-1.1213-1.8312-2.2542-3.6438-2.2542-4.4828 0-6.1387 1.9725-6.795 8.094l-0.34022 3.1734 2.3093 1.7831c2.6111 2.0162 2.6278 2.0852 1.4475 5.9602-0.79714 2.617-0.99155 2.829-2.5933 2.829-1.6662 0-1.7197-0.0721-1.4136-1.9109 0.29156-1.7517 0.2028-1.9109-1.0644-1.9109-1.4024 0-1.5519 0.19887-2.1492 2.8581-0.67104 2.9881 3.4252 4.744 7.178 3.077zm9.243-4.7065 1.3384-5.0504h2.2217c1.7654 0 2.1541 0.17177 1.8924 0.83653-0.18108 0.4601-0.72536 2.3643-1.2095 4.2314-0.48411 1.8671-1.0159 3.8434-1.1818 4.3914-0.24841 0.82079-0.0281 0.96525 1.2492 0.81899 1.5326-0.17547 1.588-0.3208 4.692-12.326l3.1412-12.148h-1.4474c-1.3719 0-1.5198 0.29165-2.8373 5.5965l-1.3899 5.5965-2.0836 0.16945c-2.4962 0.203-2.4812 0.33361-0.7229-6.3434l1.3383-5.082-1.4895 0.16801c-1.4527 0.16385-1.5678 0.46904-4.6567 12.348l-3.1674 12.18 1.4872-0.16779c1.3753-0.15517 1.5878-0.54759 2.8256-5.2182zm15.27-7.1291 3.1674-12.18-1.4872 0.16779c-1.4497 0.16356-1.5671 0.47504-4.6545 12.347l-3.1674 12.18 1.4872-0.16778c1.4497-0.16357 1.5671-0.47504 4.6545-12.347zm4.8916 7.1291 1.3384-5.0504h2.0966c1.7916 0 2.1355-0.19856 2.3642-1.365 0.24254-1.237 0.0911-1.365-1.6148-1.365-1.0354 0-1.8856-0.18427-1.8896-0.40949-3e-3 -0.22523 0.42016-2.1908 0.94247-4.3679l0.94962-3.9584h2.1377c1.1758 0 2.1377-0.2256 2.1377-0.50134 0-0.27573 0.15794-0.9025 0.35089-1.3928 0.30581-0.77695-0.10795-0.87038-3.2202-0.72714l-3.5711 0.16433-6.3347 24.359 1.4872-0.16778c1.3753-0.15518 1.5878-0.5476 2.8256-5.2182zm11.211 3.276c0.30342-1.1261 1.3347-5.1187 2.2917-8.8723 3.0234-11.859 2.6362-10.92 4.5018-10.92 0.91219 0 1.6584-0.22559 1.6584-0.50133s0.15303-0.88997 0.33993-1.365c0.29353-0.74574-0.3092-0.86365-4.415-0.86365-4.6272 0-4.7622 0.0367-5.0225 1.365-0.23687 1.208-0.0765 1.365 1.3947 1.365 1.1314 0 1.5734 0.22604 1.3838 0.70773-0.35408 0.89958-5.4416 20.34-5.4416 20.793 0 0.18593 0.62033 0.33805 1.3785 0.33805 1.1215 0 1.4814-0.38174 1.9302-2.0474zm28.089 22.284c-0.88535-0.86314-0.99384-1.39-0.5903-2.8665 11.962-43.766 15.907-57.734 16.597-58.774 1.8431-2.7758 2.3924-2.8208 34.342-2.8208 28.63 0 29.738 0.0381 30.785 1.0575 0.88587 0.86366 0.99381 1.3891 0.5889 2.8665-0.2727 0.99493-3.9286 14.34-8.1243 29.654s-8.0084 28.419-8.4729 29.12c-1.8396 2.7756-2.3906 2.8208-34.341 2.8208-28.63 0-29.738-0.0381-30.785-1.0575zm33.287-20.782 1.5283-6.006h2.7738c2.3789 0 2.7324 0.13604 2.4835 0.95548-0.70854 2.3325-2.5854 9.9295-2.5854 10.465 0 0.32534 0.85158 0.59151 1.8924 0.59151h1.8924l3.7625-14.69c2.3355-9.1186 3.6174-15.136 3.3799-15.865-0.48001-1.4745-2.4079-2.2066-5.7834-2.1962-3.0637 9e-3 -4.8946 0.80334-6.3938 2.7728-0.83262 1.0937-8.1769 27.399-8.2558 29.569-8e-3 0.22522 0.83832 0.40949 1.8812 0.40949h1.8959zm4.1811-15.76c0.8467-3.2625 1.7162-6.2109 1.9325-6.5518 0.59626-0.94057 4.2216-0.77415 4.6096 0.21159 0.2902 0.73726-0.26902 3.4692-2.093 10.225-0.54286 2.0106-0.60165 2.0474-3.2706 2.0474h-2.7178zm52.138 36.543c-0.88509-0.86292-0.99382-1.3904-0.59086-2.8665 11.971-43.852 15.924-57.751 16.742-58.865 1.8986-2.5907 2.8616-2.6662 34.358-2.6992 35.665-0.0371 32.51-0.87401 30.119 7.9884-8.7645 32.481-14.806 53.643-15.637 54.77-1.9098 2.591-2.8684 2.6664-34.363 2.6992-28.497 0.0297-29.58-6e-3 -30.626-1.0267zm41.251-16.559c0.93619-0.91273 1.7267-2.7499 2.4327-5.654 1.5846-6.5178 1.5575-6.645-2.1028-9.846l-3.218-2.8142 1.137-4.2837 1.1369-4.2837 4.2866-0.34796-0.35652 2.1737c-0.1961 1.1955-0.51005 2.5638-0.69769 3.0404-0.2723 0.69186 0.0621 0.86673 1.6574 0.86673 1.8378 0 2.0428-0.1645 2.5501-2.0474 0.58895-2.1858 0.84009-4.2227 0.69866-5.6667-0.13272-1.3545-3.0908-2.2859-6.3038-1.9851-3.8857 0.36399-5.3136 1.8617-6.6856 7.012-1.7231 6.4686-1.5962 7.1022 2.0244 10.118 3.4642 2.8854 3.4525 2.8199 1.5986 8.9064-0.83093 2.7278-0.8806 2.7728-3.0631 2.7728-2.4028 0-2.5448-0.26278-1.6975-3.1431l0.52096-1.7709h-2.131c-1.9386 0-2.1626 0.15399-2.4811 1.7062-1.1669 5.6884 0.14859 7.2602 5.7386 6.8564 2.837-0.20495 3.8527-0.53492 4.9554-1.6099zm48.355 16.559c-0.88589-0.86368-0.99382-1.389-0.5889-2.8665 0.27269-0.99492 3.9286-14.34 8.1243-29.654 4.1958-15.315 8.0084-28.419 8.4729-29.12 1.8396-2.7756 2.3906-2.8208 34.341-2.8208 28.63 0 29.738 0.0381 30.785 1.0575 0.8854 0.86313 0.9939 1.39 0.5903 2.8665-11.962 43.766-15.907 57.734-16.597 58.774-1.8431 2.7758-2.3924 2.8208-34.342 2.8208-28.63 0-29.738-0.0381-30.785-1.0575zm39.325-15.511c0.9912-0.404 2.1136-1.3254 2.4943-2.0474 1.2154-2.3058 6.9423-25.046 6.7619-26.851-0.23856-2.3872-1.9742-3.1085-7.5031-3.1184l-4.5294-8e-3 -4.1008 15.697c-2.2555 8.6335-4.2134 16.005-4.351 16.379-0.35451 0.96737 8.8318 0.92476 11.228-0.0522zm-6.1828-3.7699c0.1405-0.37538 1.6105-6.0264 3.2669-12.558l3.0116-11.875h2.3933c2.1896 0 2.3933 0.11809 2.3933 1.387 0 1.5146-4.7264 20.513-5.5978 22.5-0.44775 1.0214-0.97547 1.2285-3.1307 1.2285-1.8364 0-2.5176-0.19894-2.3366-0.68249zm56.462 19.281c-0.8859-0.86368-0.9938-1.389-0.5889-2.8665 0.2726-0.99492 3.9285-14.34 8.1243-29.654 4.1957-15.315 8.0086-28.419 8.4729-29.12 1.8396-2.7756 2.3906-2.8208 34.341-2.8208 28.63 0 29.738 0.0381 30.785 1.0575 0.8853 0.86313 0.9938 1.39 0.5903 2.8665-11.962 43.766-15.907 57.734-16.597 58.774-1.843 2.7758-2.3923 2.8208-34.342 2.8208-28.63 0-29.738-0.0381-30.785-1.0575zm24.876-19.14c0.8613-0.31925 1.7981-1.3231 2.2766-2.4395 1.1607-2.7082 1.0385-3.5699-0.5061-3.5699-1.0082 0-1.4416 0.41817-1.8388 1.7744-0.5226 1.7842-2.5344 2.7222-3.6034 1.68-0.2595-0.25297 0.5886-4.512 1.8846-9.4646l2.3565-9.0046 1.8201-0.1711c2.0026-0.18825 2.1486 0.15353 1.2991 3.0412-0.499 1.6963-0.4548 1.7709 1.0459 1.7709 1.4379 0 1.6135-0.23002 2.1337-2.7956 0.498-2.4556 0.4389-2.9203-0.4858-3.8219-1.8585-1.8119-6.7464-1.1168-8.2095 1.1675-0.8149 1.2721-5.164 18.004-5.164 19.868 0 0.74933 0.441 1.6128 0.9801 1.919 1.2622 0.71679 4.1435 0.73942 6.011 0.0472zm10.318-1.5049c0.3034-1.1261 1.3346-5.1187 2.2917-8.8723 3.0234-11.859 2.6362-10.92 4.5018-10.92 0.9122 0 1.6586-0.22561 1.6586-0.50134 0-0.27574 0.1529-0.88998 0.3399-1.365 0.2936-0.74573-0.3091-0.86364-4.4149-0.86364-4.6273 0-4.7622 0.0367-5.0227 1.365-0.2368 1.208-0.076 1.365 1.3948 1.365 1.1313 0 1.5733 0.22604 1.3838 0.70773-0.3542 0.89957-5.4417 20.34-5.4417 20.793 0 0.18591 0.6204 0.33803 1.3786 0.33803 1.1214 0 1.4813-0.38172 1.93-2.0474zm8.8231-0.68249c0.3753-1.3513 0.9591-3.5012 1.2973-4.7774 0.4604-1.7374 0.8907-2.3204 1.7133-2.3204 1.01 0 1.0985 0.39617 1.0985 4.9139 0 4.8776 0.01 4.9139 1.4001 4.9139 1.3913 0 1.4001-0.0314 1.4001-4.9878 0-4.5431 0.1181-5.0945 1.3244-6.1844 0.9451-0.85393 1.7024-2.7252 2.6441-6.5334 1.3083-5.2908 1.3102-5.3436 0.218-6.1222-0.7572-0.53981-2.2407-0.73588-4.7442-0.62703l-3.6425 0.15838-3.1672 12.18-3.1674 12.18 1.4716-0.16778c1.2206-0.13914 1.588-0.58675 2.1539-2.6247zm2.9818-10.51c-0.01-0.37538 0.4201-2.4638 0.9424-4.6409 0.9434-3.9324 0.9619-3.9584 2.8073-3.9584 1.3985 0 1.8561 0.23623 1.851 0.95549-0.011 1.5865-1.5426 6.6958-2.2596 7.5382-0.8229 0.96672-3.3313 1.0461-3.3412 0.10571zm13.585 11.875c0.2425-1.237 0.091-1.365-1.6148-1.365-1.0354 0-1.8761-0.18427-1.8682-0.40949 0.01-0.22522 1.2425-5.153 2.7437-10.951l2.7293-10.541-1.4835 0.16745c-1.4448 0.16305-1.5661 0.48468-4.6428 12.316l-3.1591 12.148h3.5139c3.3034 0 3.53-0.0817 3.7816-1.365zm40.964 20.488c-0.6502-0.2578-1.3226-0.82543-1.4942-1.2614-0.314-0.79779 15.304-58.459 16.351-60.365 0.3085-0.56194 1.2642-1.4864 2.1238-2.0544 1.5168-1.0024 4.5977-1.0374 104.61-1.1895 56.675-0.0862 103.86-0.0139 104.86 0.16 0.9974 0.17419 2.0526 0.75259 2.3451 1.2854 0.3897 0.71001-1.6199 8.7918-7.526 30.265-4.4318 16.113-8.312 29.759-8.6227 30.325-0.3106 0.56646-1.2682 1.4938-2.1277 2.0618-1.5176 1.003-4.5666 1.0358-105.45 1.1377-57.137 0.0577-104.42-0.10602-105.07-0.3638zm-699.04-86.596c-2.5624-1.7549-2.5173-2.6794 0.76238-15.649 3.5711-14.121 3.716-14.527 5.928-16.593 1.5026-1.4035 2.1282-1.5831 6.1269-1.7602 3.4582-0.1531 4.7704 5e-3 5.8713 0.7085 2.766 1.7668 2.7305 2.6716-0.61555 15.681-2.8738 11.173-3.0288 12.094-2.1415 12.727 0.80195 0.5717 0.87285 1.069 0.43883 3.0777l-0.51766 2.396-7.2787 0.14967c-5.9885 0.12304-7.5084-8e-3 -8.574-0.73759zm14.626-0.64053c0.12954-0.22522 0.40131-1.0852 0.60376-1.9109 0.30909-1.2607 0.1868-1.5015-0.76262-1.5015-0.62189 0-1.1307-0.13109-1.1307-0.29123 0-0.16019 1.3861-5.6802 3.0802-12.267 1.6942-6.5864 3.0802-12.584 3.0802-13.328 0-1.9574-1.9596-3.0522-5.4629-3.0522-3.5517 0-6.4565 1.0754-7.6198 2.8208-1.111 1.6672-7.1847 25.337-6.9666 27.151 0.26014 2.1618 2.2218 2.7707 8.9557 2.7798 3.2931 5e-3 6.0933-0.17622 6.223-0.40144zm-10.81-4.5227c0-1.7 5.6104-22.516 6.2862-23.322 0.56744-0.67786 4.4383-0.96471 5.0444-0.37383 0.17414 0.16976-1.1136 5.7594-2.8614 12.421l-3.1782 12.113-2.6454 0.16642c-2.3841 0.14998-2.6454 0.0508-2.6454-1.0037zm6.7491-10.083c1.4267-5.4053 2.7692-10.521 2.9832-11.368 0.36064-1.4264 0.27842-1.5268-1.118-1.365-1.46 0.16923-1.5894 0.48305-4.1281 10.015-1.4415 5.4124-2.7978 10.528-3.014 11.367-0.36519 1.4185-0.28396 1.5144 1.1449 1.3521 1.5011-0.17051 1.6002-0.41018 4.1319-10.003zm77.046 15.67c-0.36269-0.57212 3.279-33.06 3.7976-33.879 0.46542-0.73418 5.7216-0.85873 6.1733-0.14628 0.16841 0.26567-0.0814 3.3653-0.55539 6.8882-0.47389 3.5228-0.77722 6.4875-0.6741 6.5879 0.10319 0.1006 1.2821-2.6921 2.6198-6.2058 1.3378-3.5137 2.6832-6.6956 2.9896-7.0709 0.80971-0.9917 4.8577-0.8803 5.2611 0.14479 0.17909 0.455 0.0394 2.8505-0.3105 5.3234-0.34986 2.4729-0.76197 5.479-0.9158 6.6802-0.1892 1.4773 0.59408-0.028 2.4208-4.6525 1.4853-3.7601 2.8919-7.1384 3.1258-7.5074 0.60074-0.94764 5.9101-0.88592 6.2874 0.0731 0.27942 0.70986-12.235 32.096-13.364 33.517-0.7311 0.92021-5.6986 0.88177-6.492-0.0503-0.34306-0.403-0.53275-0.83297-0.4215-0.95548 0.11128-0.12258 0.3559-2.0656 0.54371-4.3178l0.34147-4.0949-1.8101 4.3679c-0.99554 2.4023-2.0133 4.6751-2.2617 5.0504-0.49911 0.75422-6.3001 0.96604-6.756 0.2467zm9.1498-9.5285c3.3382-8.418 4.9714-11.704 4.2735-8.5993-0.29573 1.3159-2.0126 15.732-2.0126 16.899 0 0.31464 0.98666 0.5721 2.1926 0.5721h2.1926l13.337-32.758h-4.0943l-4.1014 10.783c-2.2558 5.9308-4.4516 11.398-4.8796 12.148-0.76541 1.3427-0.77336 1.3339-0.48868-0.546 0.15918-1.051 0.80269-5.965 1.43-10.92 0.62733-4.9549 1.2697-9.5616 1.4274-10.237 0.24701-1.0582 0.0592-1.2285-1.355-1.2285-1.8253 0-1.0805-1.5183-7.9654 16.238-1.6581 4.2766-3.0893 7.5602-3.1802 7.2969-0.091-0.26326 0.4761-5.2148 1.2601-11.003 1.8178-13.423 1.8559-12.532-0.53472-12.532-1.0781 0-1.9601 0.23404-1.9601 0.52009 0 0.28604-0.75604 7.3407-1.68 15.677-0.92405 8.3363-1.68 15.473-1.68 15.859 0 0.45106 0.77034 0.70281 2.1507 0.70281h2.1507zm79.743 9.1331c-0.36411-0.92506 7.488-32.351 8.3529-33.43 0.3686-0.45985 2.266-0.68249 5.8164-0.68249 5.928 0 6.248 0.21745 5.4134 3.6787-0.47629 1.975-0.60132 2.0648-3.2448 2.3273l-2.7494 0.273-0.9999 3.8219c-0.54996 2.1021-1.0057 3.9913-1.0127 4.1984-6e-3 0.20709 0.93226 0.45279 2.0874 0.54599 1.781 0.14378 2.1255 0.38172 2.2669 1.5666 0.0918 0.76837-0.091 2.0583-0.40618 2.8665-0.50484 1.2946-0.87271 1.4694-3.0913 1.4694h-2.5184l-0.89954 3.1395c-0.49474 1.7268-1.018 3.5547-1.1628 4.0622-0.21298 0.74654 0.1965 0.95511 2.1439 1.092 2.357 0.16565 2.4041 0.20732 2.2577 1.997-0.29987 3.6649-0.70636 3.9051-6.6081 3.9051-4.2456 0-5.3842-0.16766-5.6453-0.83125zm10.65-1.4892c0.64732-2.355 0.44801-2.5935-2.1672-2.5935-1.3861 0-2.5202-0.0664-2.5202-0.1475 0-0.16102 2.1069-7.7268 2.5817-9.2708 0.22824-0.74212 0.91069-0.95549 3.0562-0.95549 1.8324 0 2.7649-0.22974 2.77-0.68248 5e-3 -0.37536 0.1596-1.2353 0.34534-1.9109 0.3145-1.1441 0.16013-1.2285-2.2477-1.2285-1.422 0-2.5792-0.18427-2.5717-0.40949 8e-3 -0.22523 0.5892-2.6207 1.2924-5.3234l1.2786-4.9139 2.4878-0.17097c2.8224-0.19396 3.044-0.3454 3.5461-2.4224l0.36299-1.5015h-9.4988l-0.55382 2.0474c-0.30458 1.1261-2.0888 8.067-3.9651 15.424-1.8762 7.3573-3.5439 13.807-3.7058 14.332-0.26414 0.85726 0.19215 0.9555 4.4383 0.9555 4.4345 0 4.7539-0.0774 5.0704-1.2285zm168.08 1.7856c-0.40546-0.6396 6.8008-28.558 7.9364-30.748 1.3272-2.5583 3.8374-3.6569 8.362-3.6592 5.1409-3e-3 6.9359 1.1511 6.9359 4.4581 0 2.0255-6.0864 26.455-7.289 29.254-0.44647 1.0399-0.95415 1.2285-3.3066 1.2285-1.5285 0-2.9281-0.23507-3.1102-0.5224-0.27082-0.42721 1.0106-6.3205 2.2904-10.534 0.21896-0.72085-0.0357-0.95548-1.0374-0.95548-1.217 0-1.436 0.44346-2.6292 5.3234-0.71584 2.9279-1.5523 5.6305-1.859 6.006-0.65694 0.80444-5.8005 0.92515-6.2934 0.14765zm5.7839-2.4048c0.28781-1.0162 0.97577-3.719 1.5288-6.006l1.0055-4.1582h2.7356c2.3425 0 2.6938 0.13728 2.4452 0.9555-0.70853 2.3325-2.5854 9.9295-2.5854 10.465 0 0.32534 0.84149 0.59153 1.8699 0.59153h1.8699l3.7979-14.442c2.4957-9.4908 3.6733-14.926 3.4347-15.853-0.43756-1.6997-2.2584-2.4669-5.8286-2.4559-3.0793 9e-3 -4.8947 0.80371-6.4219 2.8095-0.9407 1.2356-8.2226 27.1-8.2376 29.259-3e-3 0.41512 0.75276 0.6825 1.929 0.6825 1.721 0 1.9914-0.20333 2.4571-1.8476zm5.1105-19.919c0.84669-3.2625 1.7162-6.2109 1.9324-6.5518 0.49707-0.78408 4.0576-0.81456 4.5493-0.039 0.20255 0.31952-0.31545 3.268-1.1511 6.5518l-1.5194 5.971h-5.3506zm4.0848-0.61991c1.3242-5.1486 1.346-5.46 0.38254-5.46-1.3709 0-1.598 0.44969-3.0661 6.075l-1.2645 4.8449h1.2718c1.144 0 1.413-0.54874 2.6762-5.46zm79.048 22.946c-0.64406-0.25392-1.5069-1.2523-1.9174-2.2186-0.6272-1.4762-0.61907-2.2474 0.051-4.8271l0.79737-3.0703h6.1604l-0.15018 2.3204c-0.11366 1.7574 0.0524 2.3205 0.6844 2.3205 0.53898 0 1.1512-1.1119 1.7286-3.1395 0.49173-1.7268 0.97909-3.4065 1.083-3.7327 0.10397-0.32632-1.1531-1.6152-2.7935-2.8643-1.9052-1.4506-3.1074-2.8248-3.328-3.8044-0.41935-1.8614 1.5711-10.525 2.8581-12.44 1.4132-2.1028 3.6534-2.9569 7.7557-2.9569 3.1748 0 3.8865 0.18822 5.0681 1.3402 1.5399 1.5013 1.6677 2.728 0.72335 6.9445-0.7686 3.432-1.64 4.273-4.4275 4.273-2.707 0-3.4588-0.90609-2.7502-3.3148 0.72818-2.4754 0.69192-3.3746-0.12542-3.109-0.37066 0.12046-1.0909 1.8298-1.6005 3.7987l-0.92664 3.5797 2.9354 2.2352c1.6145 1.2293 3.092 2.843 3.2832 3.586 0.39645 1.5399-1.4763 9.9566-2.7495 12.357-0.46582 0.87819-1.5862 1.9694-2.4898 2.4249-1.7774 0.89606-7.8844 1.08-9.8698 0.29734zm10.208-2.298c0.9983-0.97328 1.7734-2.7416 2.5011-5.7062 1.5978-6.5099 1.532-6.8238-2.0598-9.8153-3.4642-2.8854-3.4525-2.8199-1.5986-8.9064 0.81166-2.6645 0.92303-2.7728 2.853-2.7728 2.1823 0 2.1782-0.0197 0.9852 4.6143-0.36483 1.4171-0.30667 1.46 1.7539 1.2922 2.0888-0.17009 2.1452-0.23322 2.8338-3.1765 0.38642-1.6517 0.5611-3.5736 0.38823-4.2713-0.86786-3.5015-10.161-2.8526-11.881 0.82977-0.93723 2.0053-2.2738 7.756-2.2836 9.8254-6e-3 1.4415 0.53093 2.1968 3.1083 4.3662 3.4538 2.907 3.4407 2.8354 1.605 8.8627-0.83093 2.7278-0.8806 2.7728-3.0631 2.7728-2.4028 0-2.5448-0.26278-1.6975-3.1431l0.52096-1.7709h-2.131c-1.9386 0-2.1626 0.154-2.4811 1.7062-1.1575 5.6426 0.14113 7.2194 5.6851 6.9033 2.8737-0.16378 3.7789-0.45762 4.9616-1.6107zm75.446 1.9976c-0.36408-0.92506 7.488-32.351 8.3529-33.43 0.37243-0.46456 2.3273-0.68249 6.122-0.68249 5.4149 0 5.6218 0.0458 7.2118 1.596 0.90039 0.87779 1.637 2.0535 1.637 2.6127 0 2.2779-6.7406 26.679-7.7284 27.978-1.7358 2.2802-3.3291 2.741-9.5102 2.7496-4.6445 6e-3 -5.8212-0.15275-6.085-0.8232zm12.376-1.0335c1.0434-0.42501 2.1441-1.2235 2.446-1.7744 1.1067-2.0196 6.8919-25.289 6.7195-27.029-0.24389-2.4588-1.9309-3.1658-7.5768-3.1757l-4.5986-8e-3 -0.55381 2.0474c-0.30461 1.1261-2.089 8.067-3.9651 15.424-1.8761 7.3573-3.5438 13.807-3.7058 14.332-0.26438 0.85817 0.19614 0.9555 4.5217 0.9555 2.8859 0 5.5762-0.30969 6.713-0.77278zm-6.3906-3.1856c0.0127-0.0751 1.4855-5.6647 3.2736-12.421l3.2509-12.285 2.327-0.16789c2.1923-0.15819 2.3268-0.0835 2.3268 1.2935 0 1.3998-4.6618 19.942-5.654 22.488-0.39902 1.0242-0.89992 1.2285-3.0126 1.2285-1.3938 0-2.524-0.0614-2.5114-0.13651zm4.404-2.184c0.514-1.3192 5.654-20.776 5.654-21.403 0-0.2068-0.54708-0.2975-1.2158-0.20154-1.0831 0.15544-1.5052 1.2867-3.8671 10.365-1.4583 5.6045-2.8183 10.703-3.0223 11.329-0.53941 1.657 1.804 1.5715 2.4511-0.0893zm69.497 2.3205c-0.6161-0.60058-1.1201-1.594-1.1201-2.2073 0-1.954 4.95-19.69 5.8826-21.078 0.493-0.73351 1.5296-1.5684 2.3036-1.8552 2.1252-0.78773 6.5332-0.62564 7.8734 0.28951 1.0366 0.70789 1.2277 0.7099 1.5009 0.0157 0.259-0.65795 2.1293-0.79378 10.822-0.78585 11.485 0.0105 12.454 0.25647 12.543 3.1831 0.035 1.1487 0.1702 1.0035 0.715-0.76712 0.6324-2.0556 0.8112-2.1938 3.0423-2.352 1.7795-0.12623 2.4571 0.0527 2.719 0.71803 0.1919 0.48738-0.8185 5.2556-2.2452 10.596s-2.5941 9.8535-2.5941 10.029c0 0.17552 0.693 0.39687 1.5401 0.4919 1.7456 0.19583 2.3039 1.8201 1.2717 3.7004-0.582 1.0604-1.0396 1.1186-7.7355 0.98365l-7.1169-0.14347-0.2015-3.276-0.2014-3.276-0.9187 3.276-0.9186 3.276-2.3852 0.16812c-1.7932 0.12645-2.4717-0.0519-2.734-0.71802-0.1918-0.4874 0.8186-5.2556 2.2452-10.596 1.4268-5.3405 2.5941-9.8698 2.5941-10.065 0-0.19548-0.5909-0.35542-1.3131-0.35542-1.2349 0-1.4737 0.60983-4.0097 10.237-1.4831 5.6305-2.9391 10.544-3.2358 10.92-0.6165 0.7804-4.6581 0.93182-5.1271 0.19212-0.171-0.26972 0.9317-5.1987 2.4503-10.953 2.6499-10.041 2.7137-10.456 1.5856-10.293-0.8344 0.1205-1.357 0.80346-1.8011 2.3537-0.6106 2.131-0.6864 2.184-3.1279 2.184h-2.5022l0.1146-2.405c0.1817-3.8112-0.6217-2.0118-2.8652 6.4175-2.0557 7.7231-2.322 10.273-0.6709 6.4203 0.7698-1.7962 1.0414-1.9699 3.0798-1.9699 1.2297 0 2.3835 0.2331 2.564 0.51798 0.7033 1.1094-0.9759 5.5169-2.6138 6.8605-2.2096 1.8127-7.6643 1.9665-9.4091 0.26538zm7.551-0.54252c0.8614-0.31927 1.7982-1.3231 2.2767-2.4395 1.1606-2.7082 1.0384-3.5699-0.5061-3.5699-1.0083 0-1.4416 0.41818-1.8388 1.7744-0.5247 1.7915-2.5357 2.721-3.6133 1.6703-0.2689-0.26211 0.584-4.4436 1.9305-9.4646l2.4122-8.995h1.6343c1.7383 0 2.0098 0.81686 1.1335 3.4125-0.3674 1.0881-0.2256 1.2285 1.2407 1.2285 1.4549 0 1.701-0.23628 2.0307-1.9498 0.2064-1.0724 0.506-2.2819 0.6658-2.6877 0.1597-0.4059-0.2331-1.2484-0.873-1.8722-1.3976-1.3626-4.4141-1.4997-6.7779-0.30799-1.7705 0.89262-1.731 0.79038-4.9911 12.933-1.9771 7.3639-2.1256 9.4313-0.735 10.221 1.2623 0.71677 4.1435 0.73939 6.0111 0.0472zm10.256-1.232c0.2745-0.97596 1.5861-5.8899 2.9148-10.92 2.3845-9.0269 2.4356-9.1453 3.9477-9.1453 1.3935 0 2.2118-0.82451 2.2118-2.2287 0-0.27574-2.1421-0.50133-4.7602-0.50133s-4.7603 0.22561-4.7603 0.50133c0 0.27574-0.1529 0.88997-0.3399 1.365-0.2639 0.67026 0.04 0.86364 1.3545 0.86364h1.6943l-2.7545 10.438c-1.515 5.7407-2.7546 10.655-2.7546 10.92 0 0.26527 0.6182 0.48206 1.3738 0.48206 1.0741 0 1.4826-0.38699 1.8728-1.7744zm9.004-1.1357c1.3854-6.0355 1.7548-6.9177 2.8967-6.9177 1.0039 0 1.0937 0.40343 1.0937 4.9139 0 4.8776 0.01 4.9139 1.4001 4.9139 1.3912 0 1.4001-0.0314 1.4001-4.9878 0-4.5261 0.1211-5.0973 1.3086-6.1702 1.2738-1.1509 3.7317-8.468 3.7317-11.109 0-1.6518-1.6141-2.3028-5.7035-2.3003l-3.5369 2e-3 -3.0226 11.6c-1.6624 6.3801-3.1385 11.907-3.2801 12.283-0.1692 0.44843 0.3086 0.68248 1.3934 0.68248 1.5377 0 1.6967-0.19937 2.319-2.9101zm2.8632-10.33c-0.01-0.37538 0.4201-2.4638 0.9424-4.6409 0.9434-3.9324 0.9619-3.9584 2.8073-3.9584 1.3985 0 1.8561 0.23623 1.851 0.95548-0.011 1.5865-1.5426 6.6958-2.2596 7.5382-0.823 0.96672-3.3313 1.0461-3.3412 0.1057zm3.3009-3.3812c0.7451-2.8852 0.794-4.1262 0.1626-4.1262-0.2551 0-0.7591 1.2472-1.1201 2.7716-0.7864 3.3215-0.8061 3.7802-0.1626 3.7802 0.2714 0 0.7755-1.0916 1.1201-2.4257zm10.147 16.121c0-0.27573 0.153-0.88998 0.3399-1.365 0.2712-0.68916-0.068-0.86365-1.68-0.86365-1.1111 0-2.0201-0.1708-2.0201-0.37958 0-0.35511 4.7405-18.414 5.3824-20.504 0.2309-0.75187-0.043-0.95502-1.2844-0.95333l-1.5778 2e-3 -3.0226 11.6c-1.6624 6.38-3.1385 11.907-3.2801 12.283-0.1896 0.50246 0.7185 0.68249 3.4426 0.68249 2.0352 0 3.7002-0.22561 3.7002-0.50134zm-5.6264-11.175c0.014-0.26572-0.4862 0.15183-1.1124 0.92795-0.8006 0.99235-1.218 2.5128-1.4066 5.1241l-0.2681 3.7129 1.3805-4.6409c0.7592-2.5525 1.3922-4.8584 1.4066-5.1241zm-7.9918 4.4756c-0.1788-0.43555-0.3115-0.30618-0.3384 0.32987-0.024 0.57558 0.1081 0.89805 0.2942 0.71662 0.1861-0.18142 0.206-0.65234 0.044-1.0465zm-391.92 5.4943c-1.0026-0.97748-1.1387-1.5808-0.86484-3.8349 0.42709-3.5157 0.61813-3.7409 3.1747-3.7409 2.3986 0 3.1158 0.67354 2.9072 2.73-0.20191 1.9906 0.80957 0.25799 1.2749-2.184 0.32839-1.7232 0.14081-2.1231-1.909-4.0692-2.5687-2.439-2.6824-3.1268-1.3626-8.2492 1.2033-4.6703 3.001-6.2454 7.1283-6.2454 1.7966 0 3.4166 0.34411 4.2276 0.89803 1.1964 0.81695 1.2881 1.1886 1.0159 4.1153-0.36773 3.9537-1.0466 4.8144-3.7973 4.8144-2.6105 0-2.9835-0.50512-2.2598-3.0606 0.30891-1.0908 0.38469-1.814 0.16841-1.6073-0.2163 0.20677-0.65537 1.3951-0.97573 2.6408-0.57539 2.2375-0.55262 2.2929 1.8764 4.562 2.326 2.1728 2.4424 2.4246 2.1518 4.6584-0.40187 3.0909-0.16367 2.361 2.6148-8.0124l2.3398-8.7358 2.3852-0.16814c3.1594-0.22269 3.3548 0.43579 1.8575 6.2564-1.0927 4.2475-1.1816 5.8512-0.27549 4.9676 0.17986-0.17536 0.90134-2.5193 1.6032-5.2089 0.70195-2.6896 1.4517-5.1668 1.6661-5.5051 0.21444-0.33827 1.3912-0.61504 2.6151-0.61504 1.7737 0 2.3166 0.24104 2.676 1.1882l0.45087 1.1882 0.31871-1.1882c0.26233-0.97805 0.72733-1.1882 2.6289-1.1882 1.5696 0 2.4168 0.27119 2.6432 0.84602 0.18313 0.46531-1.1478 6.4234-2.9578 13.24l-3.2907 12.394h-2.4949c-2.192 0-2.5386-0.16575-2.8546-1.365l-0.35976-1.365-0.22551 1.365c-0.1884 1.1404-0.57748 1.3932-2.3647 1.5367-3.5603 0.28581-3.8182-0.34238-2.32-5.6512 0.90439-3.2048 1.101-4.6211 0.64156-4.6205-0.36443 5.1e-4 -1.2926 2.2732-2.0626 5.0504l-1.4001 5.0495h-5.0403l0.11526-2.4119 0.11541-2.4119-0.95539 1.8583c-1.2136 2.3605-2.9956 3.2204-6.6957 3.2305-2.2582 6e-3 -3.2161-0.26102-4.13-1.1519zm7.9175-0.75464c1.7216-0.86795 2.4571-2.6419 3.1558-7.6117 0.35657-2.5362 0.31509-2.6298-2.0469-4.613l-2.4109-2.0244 0.80987-3.2475c0.73198-2.9352 0.9625-3.2647 2.3977-3.4267 1.5861-0.17918 1.5874-0.17666 1.2033 2.3204-0.37003 2.4057-0.33147 2.4998 1.0236 2.4998 1.1501 0 1.5149-0.37518 1.9914-2.0474 0.79661-2.7965 0.73908-3.7346-0.29057-4.7384-1.0526-1.0263-4.4499-1.1105-6.4004-0.15869-1.6504 0.80538-3.2985 4.9559-3.3356 8.4001-0.0217 2.0205 0.23026 2.4714 2.2565 4.0358 2.4458 1.8886 2.396 1.5649 1.0267 6.6569-0.48548 1.8052-0.75414 2.0474-2.2714 2.0474-1.67 0-1.7097-0.0577-1.3456-1.9504 0.36229-1.8826 0.32133-1.9442-1.1798-1.7744-1.2863 0.14549-1.6415 0.53436-2.0552 2.25-0.40548 1.6817-0.31299 2.2756 0.48887 3.1395 1.2118 1.3055 4.6386 1.4246 6.9829 0.24272zm8.9533-4.3643 1.3537-5.1869h4.1657l-1.3597 4.9534c-0.74782 2.7242-1.3597 5.0747-1.3597 5.2232 0 0.14842 0.67145 0.19211 1.4921 0.097 1.4533-0.16828 1.5759-0.48906 4.7096-12.321l3.2175-12.148h-1.5614c-1.4617 0-1.6211 0.23522-2.4984 3.6854-2.1157 8.3218-1.8386 7.7804-3.9811 7.7804-1.0662 0-1.9385-0.14332-1.9385-0.31853 0-0.33093 2.0763-8.5156 2.5854-10.192 0.22815-0.75114-0.0471-0.95502-1.2876-0.95333l-1.5778 2e-3 -3.0226 11.6c-1.6624 6.3801-3.1385 11.907-3.2801 12.283-0.16859 0.44675 0.30308 0.68248 1.3656 0.68248 1.582 0 1.6575-0.13171 2.9769-5.1869zm15.07-6.4174c1.6661-6.3802 3.1421-11.907 3.2801-12.283 0.16329-0.4441-0.30791-0.68174-1.349-0.68034l-1.6 2e-3 -3.0226 11.6c-1.6624 6.38-3.1385 11.907-3.2801 12.283-0.16815 0.44558 0.29786 0.68179 1.3424 0.68047l1.6-1e-3 3.0291-11.6zm-6.8469 8.226c-0.17876-0.43556-0.31148-0.30617-0.33834 0.32987-0.0243 0.57557 0.10811 0.89805 0.29413 0.71661 0.1861-0.18142 0.206-0.65233 0.0441-1.0465zm-12.881-2.184c-0.17877-0.43556-0.31149-0.30618-0.33835 0.32987-0.0243 0.57557 0.10811 0.89805 0.29414 0.71661 0.1861-0.18142 0.20599-0.65233 0.0441-1.0465zm13.441 0c-0.17878-0.43556-0.31148-0.30618-0.33836 0.32987-0.0243 0.57557 0.10811 0.89805 0.29415 0.71661 0.18609-0.18142 0.20598-0.65233 0.0441-1.0465zm0.56004-2.184c-0.17878-0.43555-0.31148-0.30618-0.33836 0.32987-0.0243 0.57557 0.10811 0.89805 0.29415 0.71661 0.18609-0.18143 0.20598-0.65235 0.0441-1.0465zm1.2188-3.7196c0-0.51622-0.17792-0.4153-0.48129 0.27299-0.26473 0.6006-0.48131 1.4605-0.48131 1.9109 0 0.51622 0.17792 0.41529 0.48131-0.273 0.26471-0.60059 0.48129-1.4605 0.48129-1.9109zm0.4613-2.2862c-0.17877-0.43557-0.31148-0.30619-0.33836 0.32985-0.0243 0.57558 0.10811 0.89805 0.29415 0.71662 0.1861-0.18142 0.20599-0.65234 0.0441-1.0465zm0.56004-2.184c-0.17879-0.43557-0.31148-0.30618-0.33836 0.32986-0.0243 0.57557 0.10811 0.89805 0.29415 0.71661 0.18608-0.18142 0.20598-0.65234 0.0441-1.0465zm0.56001-2.184c-0.17877-0.43555-0.31147-0.30618-0.33833 0.32987-0.0243 0.57557 0.1081 0.89805 0.29414 0.71662 0.18608-0.18143 0.20597-0.65234 0.0441-1.0465zm0.56004-2.184c-0.17877-0.43555-0.31148-0.30618-0.33834 0.32987-0.0243 0.57557 0.1081 0.89804 0.29413 0.71662 0.1861-0.18142 0.20599-0.65236 0.0441-1.0465zm0.56004-2.184c-0.17877-0.43555-0.31149-0.30618-0.33835 0.32987-0.0243 0.57558 0.10811 0.89804 0.29414 0.71662 0.1861-0.18142 0.20599-0.65236 0.0441-1.0465zm1.5019 22.765c-0.18999-0.48271 1.1354-6.4551 2.9453-13.272l3.2907-12.394 9.741-0.13821c10.263-0.14562 11.375 0.0805 10.841 2.2058-0.44994 1.7939-1.2505 2.5734-2.643 2.5734-1.1459 0-1.4583 0.81139-3.9411 10.237-1.4831 5.6305-2.9391 10.544-3.2358 10.92-0.61655 0.78038-4.6582 0.93182-5.1271 0.1921-0.17096-0.26972 0.92147-5.16 2.4276-10.867 2.7022-10.24 2.7226-10.38 1.5379-10.579-0.66033-0.11106-2.0671-0.0733-3.1259 0.0839-1.7701 0.26281-1.9837 0.50605-2.6494 3.0158-0.94975 3.5814-0.97827 3.4503 0.79453 3.6492 3.1116 0.34906 2.0548 4.813-1.1398 4.8146-1.7962 9.3e-4 -1.8036 0.0124-3.2005 5.0504l-1.4001 5.0495-2.3852 0.16814c-1.7847 0.12583-2.4722-0.0528-2.7306-0.70952zm5.396-5.4646 1.3537-5.1869h2.1233c1.1678 0 2.1233-0.22561 2.1233-0.50134s0.15303-0.88997 0.33994-1.365c0.27126-0.68915-0.0683-0.86364-1.68-0.86364-1.111 0-2.0142-0.18427-2.0072-0.40949 6e-3 -0.22522 0.46263-2.1293 1.0124-4.2314 0.97607-3.732 1.0449-3.8262 2.9224-4.0028 1.9086-0.17958 2.7476-0.82899 2.7641-2.1395 6e-3 -0.4743-1.0591-0.68183-3.4917-0.68033l-3.5003 2e-3 -3.0226 11.6c-1.6624 6.38-3.1385 11.907-3.2801 12.283-0.16859 0.44676 0.30308 0.68249 1.3656 0.68249 1.582 0 1.6575-0.13171 2.9769-5.1869zm11.087 3.4125c0.27446-0.97595 1.5861-5.8899 2.9146-10.92 2.3844-9.0269 2.4355-9.1453 3.9476-9.1453 1.3935 0 2.2118-0.8245 2.2118-2.2287 0-0.27574-2.1422-0.50133-4.7603-0.50133-2.6181 0-4.7603 0.22561-4.7603 0.50133 0 0.27574-0.15286 0.88997-0.33992 1.365-0.26381 0.67026 0.0395 0.86365 1.3545 0.86365h1.6943l-2.7546 10.438c-1.515 5.7407-2.7546 10.655-2.7546 10.92 0 0.26528 0.6182 0.48206 1.3738 0.48206 1.0742 0 1.4826-0.387 1.8728-1.7744z" clip-path="url(#clipPath1366)" style="fill:#f60;stroke-width:.55297"/></svg>
